<svg width="1728" height="219" viewBox="0 0 1728 219" fill="none" xmlns="http://www.w3.org/2000/svg">
<rect y="15.001" width="1728" height="204" fill="#256CB3"/>
<path d="M1082.23 122.801H1087.45V148.001H1082.23V122.801ZM1082.01 117.473C1082.01 116.705 1082.29 116.081 1082.84 115.601C1083.39 115.097 1084.05 114.845 1084.82 114.845C1085.59 114.845 1086.24 115.097 1086.76 115.601C1087.32 116.081 1087.59 116.705 1087.59 117.473C1087.59 118.241 1087.32 118.877 1086.76 119.381C1086.24 119.885 1085.59 120.137 1084.82 120.137C1084.05 120.137 1083.39 119.885 1082.84 119.381C1082.29 118.877 1082.01 118.241 1082.01 117.473ZM1093.17 141.809C1093.91 142.577 1094.61 143.189 1095.26 143.645C1095.9 144.101 1096.49 144.437 1097.02 144.653C1097.57 144.845 1098.04 144.941 1098.42 144.941C1098.98 144.941 1099.43 144.821 1099.79 144.581C1100.18 144.317 1100.37 143.933 1100.37 143.429C1100.37 142.973 1100.19 142.589 1099.83 142.277C1099.49 141.965 1099.05 141.689 1098.5 141.449C1097.97 141.209 1097.39 140.981 1096.77 140.765C1096 140.477 1095.26 140.153 1094.54 139.793C1093.82 139.409 1093.22 138.905 1092.74 138.281C1092.28 137.633 1092.05 136.781 1092.05 135.725C1092.05 134.693 1092.32 133.829 1092.84 133.133C1093.4 132.437 1094.12 131.921 1095 131.585C1095.89 131.225 1096.89 131.045 1097.99 131.045C1099.38 131.045 1100.66 131.309 1101.81 131.837C1102.96 132.365 1103.93 133.001 1104.72 133.745L1102.67 136.661C1102.12 136.037 1101.44 135.521 1100.62 135.113C1099.83 134.681 1099.1 134.465 1098.42 134.465C1097.8 134.465 1097.31 134.573 1096.95 134.789C1096.59 134.981 1096.41 135.305 1096.41 135.761C1096.41 136.217 1096.6 136.577 1096.98 136.841C1097.39 137.105 1097.91 137.345 1098.53 137.561C1099.16 137.753 1099.8 137.981 1100.48 138.245C1101.27 138.557 1102.01 138.917 1102.71 139.325C1103.4 139.733 1103.97 140.249 1104.4 140.873C1104.83 141.497 1105.05 142.301 1105.05 143.285C1105.05 145.157 1104.48 146.513 1103.36 147.353C1102.25 148.169 1100.79 148.577 1098.96 148.577C1097.86 148.577 1096.82 148.409 1095.83 148.073C1094.85 147.761 1093.94 147.317 1093.1 146.741C1092.28 146.141 1091.55 145.469 1090.9 144.725L1093.17 141.809ZM1098.21 145.733L1101.66 145.841L1098.78 150.089C1098.95 150.065 1099.11 150.041 1099.25 150.017C1099.42 150.017 1099.6 150.017 1099.79 150.017C1100.25 150.017 1100.72 150.137 1101.2 150.377C1101.68 150.617 1102.07 150.977 1102.38 151.457C1102.72 151.937 1102.89 152.537 1102.89 153.257C1102.89 154.073 1102.66 154.757 1102.2 155.309C1101.77 155.885 1101.21 156.305 1100.51 156.569C1099.84 156.857 1099.14 157.001 1098.42 157.001C1097.51 157.001 1096.71 156.893 1096.01 156.677C1095.34 156.485 1094.63 156.137 1093.89 155.633L1095.36 153.473C1095.77 153.785 1096.2 154.013 1096.66 154.157C1097.12 154.301 1097.54 154.373 1097.92 154.373C1098.54 154.373 1099.01 154.253 1099.32 154.013C1099.66 153.797 1099.83 153.473 1099.83 153.041C1099.83 152.585 1099.62 152.273 1099.22 152.105C1098.83 151.937 1098.35 151.853 1097.78 151.853C1097.61 151.853 1097.26 151.877 1096.73 151.925C1096.2 151.997 1095.66 152.165 1095.11 152.429L1098.21 145.733ZM1123.63 119.921V148.001H1118.95V119.921H1123.63ZM1137.24 139.721C1137.24 141.545 1136.87 143.105 1136.13 144.401C1135.38 145.697 1134.4 146.681 1133.17 147.353C1131.97 148.025 1130.68 148.361 1129.29 148.361C1127.92 148.361 1126.69 148.013 1125.61 147.317C1124.56 146.621 1123.72 145.625 1123.09 144.329C1122.47 143.033 1122.16 141.497 1122.16 139.721C1122.16 137.921 1122.47 136.385 1123.09 135.113C1123.72 133.817 1124.56 132.821 1125.61 132.125C1126.69 131.429 1127.92 131.081 1129.29 131.081C1130.68 131.081 1131.97 131.417 1133.17 132.089C1134.4 132.761 1135.38 133.745 1136.13 135.041C1136.87 136.313 1137.24 137.873 1137.24 139.721ZM1132.42 139.721C1132.42 138.737 1132.21 137.885 1131.81 137.165C1131.4 136.445 1130.85 135.893 1130.15 135.509C1129.48 135.125 1128.73 134.933 1127.92 134.933C1127.22 134.933 1126.54 135.125 1125.87 135.509C1125.22 135.869 1124.68 136.409 1124.25 137.129C1123.84 137.849 1123.63 138.713 1123.63 139.721C1123.63 140.729 1123.84 141.593 1124.25 142.313C1124.68 143.033 1125.22 143.585 1125.87 143.969C1126.54 144.329 1127.22 144.509 1127.92 144.509C1128.73 144.509 1129.48 144.317 1130.15 143.933C1130.85 143.549 1131.4 142.997 1131.81 142.277C1132.21 141.557 1132.42 140.705 1132.42 139.721ZM1145.54 141.521C1145.54 142.601 1145.76 143.441 1146.19 144.041C1146.62 144.617 1147.32 144.905 1148.28 144.905C1148.95 144.905 1149.53 144.773 1150.01 144.509C1150.51 144.221 1150.89 143.825 1151.16 143.321C1151.45 142.817 1151.59 142.217 1151.59 141.521V131.441H1156.23V148.001H1151.59V145.481C1151.06 146.417 1150.39 147.137 1149.57 147.641C1148.76 148.121 1147.76 148.361 1146.59 148.361C1144.62 148.361 1143.14 147.797 1142.16 146.669C1141.2 145.541 1140.72 143.993 1140.72 142.025V131.441H1145.54V141.521ZM1160.83 119.921H1165.51V148.001H1160.83V119.921ZM1194.59 137.417V148.001H1189.91V137.921C1189.91 136.793 1189.72 135.953 1189.33 135.401C1188.95 134.825 1188.32 134.537 1187.46 134.537C1186.88 134.537 1186.38 134.669 1185.95 134.933C1185.52 135.173 1185.18 135.557 1184.94 136.085C1184.7 136.589 1184.58 137.201 1184.58 137.921V148.001H1179.94V137.921C1179.94 136.793 1179.74 135.953 1179.36 135.401C1178.98 134.825 1178.35 134.537 1177.49 134.537C1176.91 134.537 1176.41 134.669 1175.98 134.933C1175.54 135.173 1175.21 135.557 1174.97 136.085C1174.73 136.589 1174.61 137.201 1174.61 137.921V148.001H1170.11V131.441H1174.61V133.889C1175.09 132.977 1175.72 132.281 1176.52 131.801C1177.31 131.321 1178.26 131.081 1179.36 131.081C1180.58 131.081 1181.59 131.321 1182.38 131.801C1183.18 132.281 1183.75 132.989 1184.11 133.925C1184.71 132.989 1185.44 132.281 1186.31 131.801C1187.2 131.321 1188.2 131.081 1189.33 131.081C1190.56 131.081 1191.55 131.333 1192.32 131.837C1193.09 132.317 1193.65 133.037 1194.01 133.997C1194.4 134.933 1194.59 136.073 1194.59 137.417ZM1202.49 142.853C1202.49 143.333 1202.61 143.753 1202.85 144.113C1203.09 144.449 1203.42 144.713 1203.83 144.905C1204.26 145.073 1204.73 145.157 1205.23 145.157C1205.95 145.157 1206.6 145.013 1207.17 144.725C1207.75 144.413 1208.22 143.981 1208.58 143.429C1208.94 142.853 1209.12 142.169 1209.12 141.377L1209.69 143.537C1209.69 144.593 1209.39 145.481 1208.79 146.201C1208.22 146.921 1207.46 147.461 1206.53 147.821C1205.61 148.181 1204.65 148.361 1203.65 148.361C1202.61 148.361 1201.65 148.157 1200.77 147.749C1199.88 147.341 1199.16 146.753 1198.61 145.985C1198.08 145.193 1197.81 144.233 1197.81 143.105C1197.81 141.497 1198.38 140.225 1199.51 139.289C1200.63 138.353 1202.23 137.885 1204.29 137.885C1205.35 137.885 1206.27 137.993 1207.07 138.209C1207.88 138.425 1208.57 138.689 1209.12 139.001C1209.67 139.313 1210.07 139.613 1210.31 139.901V142.061C1209.66 141.581 1208.93 141.221 1208.11 140.981C1207.32 140.741 1206.48 140.621 1205.59 140.621C1204.87 140.621 1204.28 140.717 1203.83 140.909C1203.37 141.077 1203.03 141.329 1202.82 141.665C1202.6 141.977 1202.49 142.373 1202.49 142.853ZM1200.69 136.121L1198.97 132.953C1199.83 132.497 1200.89 132.065 1202.13 131.657C1203.38 131.225 1204.77 131.009 1206.31 131.009C1207.73 131.009 1208.99 131.213 1210.09 131.621C1211.19 132.029 1212.06 132.629 1212.68 133.421C1213.31 134.189 1213.62 135.137 1213.62 136.265V148.001H1209.12V137.237C1209.12 136.781 1209.05 136.397 1208.9 136.085C1208.76 135.749 1208.53 135.473 1208.22 135.257C1207.93 135.041 1207.58 134.885 1207.17 134.789C1206.77 134.693 1206.31 134.645 1205.81 134.645C1205.04 134.645 1204.31 134.729 1203.61 134.897C1202.91 135.065 1202.31 135.269 1201.81 135.509C1201.31 135.749 1200.93 135.953 1200.69 136.121ZM1217.85 119.921H1222.35V148.001H1217.85V119.921ZM1228.43 131.441H1234.01L1226.88 138.281L1234.73 148.001H1229.19L1221.3 138.281L1228.43 131.441ZM1252.66 119.921V148.001H1247.98V119.921H1252.66ZM1258.67 137.921C1258.67 136.817 1258.46 135.977 1258.02 135.401C1257.62 134.825 1256.92 134.537 1255.94 134.537C1255.29 134.537 1254.71 134.681 1254.21 134.969C1253.7 135.233 1253.32 135.617 1253.06 136.121C1252.79 136.625 1252.66 137.225 1252.66 137.921H1251.72C1251.72 136.601 1251.94 135.413 1252.37 134.357C1252.83 133.301 1253.5 132.461 1254.39 131.837C1255.28 131.213 1256.37 130.901 1257.66 130.901C1258.96 130.901 1260.03 131.141 1260.87 131.621C1261.71 132.101 1262.33 132.821 1262.74 133.781C1263.15 134.717 1263.35 135.869 1263.35 137.237V148.001H1258.67V137.921ZM1267.73 125.033C1267.73 124.265 1268.01 123.641 1268.56 123.161C1269.11 122.657 1269.77 122.405 1270.54 122.405C1271.31 122.405 1271.96 122.657 1272.48 123.161C1273.04 123.641 1273.31 124.265 1273.31 125.033C1273.31 125.777 1273.04 126.401 1272.48 126.905C1271.96 127.409 1271.31 127.661 1270.54 127.661C1269.77 127.661 1269.11 127.409 1268.56 126.905C1268.01 126.401 1267.73 125.777 1267.73 125.033ZM1268.24 131.441H1272.77V148.001H1268.24V131.441ZM1281.25 139.721C1281.25 140.681 1281.47 141.521 1281.9 142.241C1282.33 142.961 1282.91 143.525 1283.63 143.933C1284.37 144.341 1285.19 144.545 1286.07 144.545C1286.79 144.545 1287.49 144.437 1288.16 144.221C1288.83 143.981 1289.43 143.669 1289.96 143.285C1290.51 142.877 1290.93 142.409 1291.22 141.881V146.669C1290.65 147.197 1289.89 147.617 1288.95 147.929C1288.04 148.217 1286.97 148.361 1285.75 148.361C1284 148.361 1282.41 148.001 1281 147.281C1279.61 146.561 1278.5 145.553 1277.69 144.257C1276.89 142.937 1276.5 141.425 1276.5 139.721C1276.5 137.993 1276.89 136.481 1277.69 135.185C1278.5 133.889 1279.61 132.881 1281 132.161C1282.41 131.441 1284 131.081 1285.75 131.081C1286.97 131.081 1288.04 131.237 1288.95 131.549C1289.89 131.837 1290.65 132.233 1291.22 132.737V137.525C1290.93 136.997 1290.5 136.541 1289.93 136.157C1289.37 135.749 1288.76 135.437 1288.09 135.221C1287.42 135.005 1286.75 134.897 1286.07 134.897C1285.19 134.897 1284.37 135.113 1283.63 135.545C1282.91 135.953 1282.33 136.517 1281.9 137.237C1281.47 137.957 1281.25 138.785 1281.25 139.721ZM1284.2 145.841L1287.59 145.913L1284.74 150.197C1284.91 150.149 1285.08 150.125 1285.25 150.125C1285.41 150.125 1285.58 150.125 1285.75 150.125C1286.21 150.125 1286.67 150.245 1287.15 150.485C1287.63 150.725 1288.03 151.073 1288.34 151.529C1288.65 152.009 1288.81 152.621 1288.81 153.365C1288.81 154.181 1288.59 154.865 1288.16 155.417C1287.73 155.969 1287.18 156.389 1286.51 156.677C1285.83 156.965 1285.13 157.109 1284.38 157.109C1283.49 157.109 1282.69 157.001 1281.97 156.785C1281.27 156.593 1280.55 156.233 1279.81 155.705L1281.32 153.581C1281.75 153.893 1282.2 154.109 1282.65 154.229C1283.11 154.373 1283.53 154.445 1283.91 154.445C1284.54 154.445 1285.01 154.337 1285.32 154.121C1285.65 153.905 1285.82 153.581 1285.82 153.149C1285.82 152.693 1285.62 152.369 1285.21 152.177C1284.83 152.009 1284.33 151.925 1283.73 151.925C1283.57 151.925 1283.21 151.961 1282.65 152.033C1282.13 152.105 1281.6 152.273 1281.07 152.537L1284.2 145.841ZM1310.7 119.921V148.001H1306.02V119.921H1310.7ZM1324.31 139.721C1324.31 141.545 1323.94 143.105 1323.19 144.401C1322.45 145.697 1321.46 146.681 1320.24 147.353C1319.04 148.025 1317.74 148.361 1316.35 148.361C1314.98 148.361 1313.76 148.013 1312.68 147.317C1311.62 146.621 1310.78 145.625 1310.16 144.329C1309.54 143.033 1309.22 141.497 1309.22 139.721C1309.22 137.921 1309.54 136.385 1310.16 135.113C1310.78 133.817 1311.62 132.821 1312.68 132.125C1313.76 131.429 1314.98 131.081 1316.35 131.081C1317.74 131.081 1319.04 131.417 1320.24 132.089C1321.46 132.761 1322.45 133.745 1323.19 135.041C1323.94 136.313 1324.31 137.873 1324.31 139.721ZM1319.48 139.721C1319.48 138.737 1319.28 137.885 1318.87 137.165C1318.46 136.445 1317.91 135.893 1317.22 135.509C1316.54 135.125 1315.8 134.933 1314.98 134.933C1314.29 134.933 1313.6 135.125 1312.93 135.509C1312.28 135.869 1311.74 136.409 1311.31 137.129C1310.9 137.849 1310.7 138.713 1310.7 139.721C1310.7 140.729 1310.9 141.593 1311.31 142.313C1311.74 143.033 1312.28 143.585 1312.93 143.969C1313.6 144.329 1314.29 144.509 1314.98 144.509C1315.8 144.509 1316.54 144.317 1317.22 143.933C1317.91 143.549 1318.46 142.997 1318.87 142.277C1319.28 141.557 1319.48 140.705 1319.48 139.721ZM1332.61 141.521C1332.61 142.601 1332.82 143.441 1333.26 144.041C1333.69 144.617 1334.38 144.905 1335.34 144.905C1336.02 144.905 1336.59 144.773 1337.07 144.509C1337.58 144.221 1337.96 143.825 1338.22 143.321C1338.51 142.817 1338.66 142.217 1338.66 141.521V131.441H1343.3V148.001H1338.66V145.481C1338.13 146.417 1337.46 147.137 1336.64 147.641C1335.82 148.121 1334.83 148.361 1333.65 148.361C1331.68 148.361 1330.21 147.797 1329.22 146.669C1328.26 145.541 1327.78 143.993 1327.78 142.025V131.441H1332.61V141.521ZM1358.58 119.921H1363.08V148.001H1358.58V119.921ZM1369.16 131.441H1374.74L1367.61 138.281L1375.46 148.001H1369.92L1362.03 138.281L1369.16 131.441ZM1381.23 142.853C1381.23 143.333 1381.35 143.753 1381.59 144.113C1381.83 144.449 1382.15 144.713 1382.56 144.905C1382.99 145.073 1383.46 145.157 1383.97 145.157C1384.69 145.157 1385.33 145.013 1385.91 144.725C1386.49 144.413 1386.95 143.981 1387.31 143.429C1387.67 142.853 1387.85 142.169 1387.85 141.377L1388.43 143.537C1388.43 144.593 1388.13 145.481 1387.53 146.201C1386.95 146.921 1386.2 147.461 1385.26 147.821C1384.35 148.181 1383.39 148.361 1382.38 148.361C1381.35 148.361 1380.39 148.157 1379.5 147.749C1378.61 147.341 1377.89 146.753 1377.34 145.985C1376.81 145.193 1376.55 144.233 1376.55 143.105C1376.55 141.497 1377.11 140.225 1378.24 139.289C1379.37 138.353 1380.97 137.885 1383.03 137.885C1384.09 137.885 1385.01 137.993 1385.8 138.209C1386.62 138.425 1387.3 138.689 1387.85 139.001C1388.41 139.313 1388.8 139.613 1389.04 139.901V142.061C1388.39 141.581 1387.66 141.221 1386.85 140.981C1386.05 140.741 1385.21 140.621 1384.33 140.621C1383.61 140.621 1383.02 140.717 1382.56 140.909C1382.11 141.077 1381.77 141.329 1381.55 141.665C1381.34 141.977 1381.23 142.373 1381.23 142.853ZM1379.43 136.121L1377.7 132.953C1378.57 132.497 1379.62 132.065 1380.87 131.657C1382.12 131.225 1383.51 131.009 1385.05 131.009C1386.46 131.009 1387.72 131.213 1388.83 131.621C1389.93 132.029 1390.79 132.629 1391.42 133.421C1392.04 134.189 1392.35 135.137 1392.35 136.265V148.001H1387.85V137.237C1387.85 136.781 1387.78 136.397 1387.64 136.085C1387.49 135.749 1387.27 135.473 1386.95 135.257C1386.67 135.041 1386.32 134.885 1385.91 134.789C1385.5 134.693 1385.05 134.645 1384.54 134.645C1383.77 134.645 1383.04 134.729 1382.35 134.897C1381.65 135.065 1381.05 135.269 1380.55 135.509C1380.04 135.749 1379.67 135.953 1379.43 136.121ZM1409.18 119.921H1413.86V148.001H1409.18V119.921ZM1395.57 139.721C1395.57 137.873 1395.95 136.313 1396.69 135.041C1397.43 133.745 1398.42 132.761 1399.64 132.089C1400.87 131.417 1402.16 131.081 1403.53 131.081C1404.92 131.081 1406.15 131.429 1407.2 132.125C1408.28 132.821 1409.12 133.817 1409.72 135.113C1410.35 136.385 1410.66 137.921 1410.66 139.721C1410.66 141.497 1410.35 143.033 1409.72 144.329C1409.12 145.625 1408.28 146.621 1407.2 147.317C1406.15 148.013 1404.92 148.361 1403.53 148.361C1402.16 148.361 1400.87 148.025 1399.64 147.353C1398.42 146.681 1397.43 145.697 1396.69 144.401C1395.95 143.105 1395.57 141.545 1395.57 139.721ZM1400.4 139.721C1400.4 140.705 1400.6 141.557 1401.01 142.277C1401.42 142.997 1401.97 143.549 1402.67 143.933C1403.36 144.317 1404.11 144.509 1404.9 144.509C1405.59 144.509 1406.27 144.329 1406.91 143.969C1407.59 143.585 1408.13 143.033 1408.53 142.313C1408.97 141.593 1409.18 140.729 1409.18 139.721C1409.18 138.713 1408.97 137.849 1408.53 137.129C1408.13 136.409 1407.59 135.869 1406.91 135.509C1406.27 135.125 1405.59 134.933 1404.9 134.933C1404.11 134.933 1403.36 135.125 1402.67 135.509C1401.97 135.893 1401.42 136.445 1401.01 137.165C1400.6 137.885 1400.4 138.737 1400.4 139.721ZM1421.66 142.853C1421.66 143.333 1421.78 143.753 1422.02 144.113C1422.26 144.449 1422.58 144.713 1422.99 144.905C1423.42 145.073 1423.89 145.157 1424.39 145.157C1425.11 145.157 1425.76 145.013 1426.34 144.725C1426.91 144.413 1427.38 143.981 1427.74 143.429C1428.1 142.853 1428.28 142.169 1428.28 141.377L1428.86 143.537C1428.86 144.593 1428.56 145.481 1427.96 146.201C1427.38 146.921 1426.63 147.461 1425.69 147.821C1424.78 148.181 1423.82 148.361 1422.81 148.361C1421.78 148.361 1420.82 148.157 1419.93 147.749C1419.04 147.341 1418.32 146.753 1417.77 145.985C1417.24 145.193 1416.98 144.233 1416.98 143.105C1416.98 141.497 1417.54 140.225 1418.67 139.289C1419.8 138.353 1421.39 137.885 1423.46 137.885C1424.51 137.885 1425.44 137.993 1426.23 138.209C1427.05 138.425 1427.73 138.689 1428.28 139.001C1428.83 139.313 1429.23 139.613 1429.47 139.901V142.061C1428.82 141.581 1428.09 141.221 1427.27 140.981C1426.48 140.741 1425.64 140.621 1424.75 140.621C1424.03 140.621 1423.45 140.717 1422.99 140.909C1422.53 141.077 1422.2 141.329 1421.98 141.665C1421.77 141.977 1421.66 142.373 1421.66 142.853ZM1419.86 136.121L1418.13 132.953C1418.99 132.497 1420.05 132.065 1421.3 131.657C1422.55 131.225 1423.94 131.009 1425.47 131.009C1426.89 131.009 1428.15 131.213 1429.25 131.621C1430.36 132.029 1431.22 132.629 1431.85 133.421C1432.47 134.189 1432.78 135.137 1432.78 136.265V148.001H1428.28V137.237C1428.28 136.781 1428.21 136.397 1428.07 136.085C1427.92 135.749 1427.69 135.473 1427.38 135.257C1427.09 135.041 1426.75 134.885 1426.34 134.789C1425.93 134.693 1425.47 134.645 1424.97 134.645C1424.2 134.645 1423.47 134.729 1422.77 134.897C1422.08 135.065 1421.48 135.269 1420.97 135.509C1420.47 135.749 1420.1 135.953 1419.86 136.121ZM1441.69 131.441V148.001H1437.12V131.441H1441.69ZM1446.55 136.301C1446.24 136.013 1445.92 135.797 1445.58 135.653C1445.27 135.485 1444.87 135.401 1444.39 135.401C1443.82 135.401 1443.32 135.557 1442.92 135.869C1442.51 136.181 1442.2 136.625 1441.98 137.201C1441.79 137.753 1441.69 138.425 1441.69 139.217L1440.4 137.921C1440.4 136.601 1440.65 135.437 1441.15 134.429C1441.66 133.397 1442.32 132.581 1443.13 131.981C1443.95 131.357 1444.79 131.045 1445.65 131.045C1446.25 131.045 1446.82 131.153 1447.34 131.369C1447.9 131.585 1448.34 131.909 1448.68 132.341L1446.55 136.301ZM1461.83 119.921H1466.33V148.001H1461.83V119.921ZM1472.42 131.441H1478L1470.87 138.281L1478.72 148.001H1473.17L1465.29 138.281L1472.42 131.441ZM1479.53 139.721C1479.53 137.993 1479.92 136.481 1480.72 135.185C1481.53 133.889 1482.62 132.881 1483.99 132.161C1485.38 131.441 1486.96 131.081 1488.71 131.081C1490.46 131.081 1492.02 131.441 1493.39 132.161C1494.78 132.881 1495.87 133.889 1496.66 135.185C1497.48 136.481 1497.89 137.993 1497.89 139.721C1497.89 141.425 1497.48 142.937 1496.66 144.257C1495.87 145.553 1494.78 146.561 1493.39 147.281C1492.02 148.001 1490.46 148.361 1488.71 148.361C1486.96 148.361 1485.38 148.001 1483.99 147.281C1482.62 146.561 1481.53 145.553 1480.72 144.257C1479.92 142.937 1479.53 141.425 1479.53 139.721ZM1484.28 139.721C1484.28 140.657 1484.47 141.485 1484.86 142.205C1485.26 142.901 1485.8 143.453 1486.48 143.861C1487.15 144.245 1487.89 144.437 1488.71 144.437C1489.52 144.437 1490.27 144.245 1490.94 143.861C1491.61 143.453 1492.14 142.901 1492.52 142.205C1492.93 141.485 1493.14 140.657 1493.14 139.721C1493.14 138.785 1492.93 137.957 1492.52 137.237C1492.14 136.517 1491.61 135.965 1490.94 135.581C1490.27 135.197 1489.52 135.005 1488.71 135.005C1487.89 135.005 1487.15 135.197 1486.48 135.581C1485.8 135.965 1485.26 136.517 1484.86 137.237C1484.47 137.957 1484.28 138.785 1484.28 139.721ZM1501.39 119.921H1506.07V148.001H1501.39V119.921ZM1513.98 142.853C1513.98 143.333 1514.1 143.753 1514.34 144.113C1514.58 144.449 1514.9 144.713 1515.31 144.905C1515.74 145.073 1516.21 145.157 1516.72 145.157C1517.44 145.157 1518.08 145.013 1518.66 144.725C1519.24 144.413 1519.7 143.981 1520.06 143.429C1520.42 142.853 1520.6 142.169 1520.6 141.377L1521.18 143.537C1521.18 144.593 1520.88 145.481 1520.28 146.201C1519.7 146.921 1518.95 147.461 1518.01 147.821C1517.1 148.181 1516.14 148.361 1515.13 148.361C1514.1 148.361 1513.14 148.157 1512.25 147.749C1511.36 147.341 1510.64 146.753 1510.09 145.985C1509.56 145.193 1509.3 144.233 1509.3 143.105C1509.3 141.497 1509.86 140.225 1510.99 139.289C1512.12 138.353 1513.72 137.885 1515.78 137.885C1516.84 137.885 1517.76 137.993 1518.55 138.209C1519.37 138.425 1520.05 138.689 1520.6 139.001C1521.16 139.313 1521.55 139.613 1521.79 139.901V142.061C1521.14 141.581 1520.41 141.221 1519.6 140.981C1518.8 140.741 1517.96 140.621 1517.08 140.621C1516.36 140.621 1515.77 140.717 1515.31 140.909C1514.86 141.077 1514.52 141.329 1514.3 141.665C1514.09 141.977 1513.98 142.373 1513.98 142.853ZM1512.18 136.121L1510.45 132.953C1511.32 132.497 1512.37 132.065 1513.62 131.657C1514.87 131.225 1516.26 131.009 1517.8 131.009C1519.21 131.009 1520.47 131.213 1521.58 131.621C1522.68 132.029 1523.54 132.629 1524.17 133.421C1524.79 134.189 1525.1 135.137 1525.1 136.265V148.001H1520.6V137.237C1520.6 136.781 1520.53 136.397 1520.39 136.085C1520.24 135.749 1520.02 135.473 1519.7 135.257C1519.42 135.041 1519.07 134.885 1518.66 134.789C1518.25 134.693 1517.8 134.645 1517.29 134.645C1516.52 134.645 1515.79 134.729 1515.1 134.897C1514.4 135.065 1513.8 135.269 1513.3 135.509C1512.79 135.749 1512.42 135.953 1512.18 136.121ZM1545.03 131.441L1534.23 155.921H1529.44L1533.62 146.345L1526.74 131.441H1531.93L1537.26 144.617L1534.95 144.545L1540.17 131.441H1545.03ZM1556.8 139.721C1556.8 137.993 1557.2 136.481 1557.99 135.185C1558.81 133.889 1559.9 132.881 1561.27 132.161C1562.66 131.441 1564.23 131.081 1565.98 131.081C1567.73 131.081 1569.29 131.441 1570.66 132.161C1572.05 132.881 1573.15 133.889 1573.94 135.185C1574.75 136.481 1575.16 137.993 1575.16 139.721C1575.16 141.425 1574.75 142.937 1573.94 144.257C1573.15 145.553 1572.05 146.561 1570.66 147.281C1569.29 148.001 1567.73 148.361 1565.98 148.361C1564.23 148.361 1562.66 148.001 1561.27 147.281C1559.9 146.561 1558.81 145.553 1557.99 144.257C1557.2 142.937 1556.8 141.425 1556.8 139.721ZM1561.55 139.721C1561.55 140.657 1561.75 141.485 1562.13 142.205C1562.54 142.901 1563.08 143.453 1563.75 143.861C1564.42 144.245 1565.17 144.437 1565.98 144.437C1566.8 144.437 1567.54 144.245 1568.21 143.861C1568.89 143.453 1569.41 142.901 1569.8 142.205C1570.21 141.485 1570.41 140.657 1570.41 139.721C1570.41 138.785 1570.21 137.957 1569.8 137.237C1569.41 136.517 1568.89 135.965 1568.21 135.581C1567.54 135.197 1566.8 135.005 1565.98 135.005C1565.17 135.005 1564.42 135.197 1563.75 135.581C1563.08 135.965 1562.54 136.517 1562.13 137.237C1561.75 137.957 1561.55 138.785 1561.55 139.721ZM1578.66 119.921H1583.34V148.001H1578.66V119.921ZM1612.42 137.417V148.001H1607.74V137.921C1607.74 136.793 1607.55 135.953 1607.16 135.401C1606.78 134.825 1606.16 134.537 1605.29 134.537C1604.72 134.537 1604.21 134.669 1603.78 134.933C1603.35 135.173 1603.01 135.557 1602.77 136.085C1602.53 136.589 1602.41 137.201 1602.41 137.921V148.001H1597.77V137.921C1597.77 136.793 1597.58 135.953 1597.19 135.401C1596.81 134.825 1596.18 134.537 1595.32 134.537C1594.74 134.537 1594.24 134.669 1593.81 134.933C1593.38 135.173 1593.04 135.557 1592.8 136.085C1592.56 136.589 1592.44 137.201 1592.44 137.921V148.001H1587.94V131.441H1592.44V133.889C1592.92 132.977 1593.56 132.281 1594.35 131.801C1595.14 131.321 1596.09 131.081 1597.19 131.081C1598.42 131.081 1599.42 131.321 1600.22 131.801C1601.01 132.281 1601.58 132.989 1601.94 133.925C1602.54 132.989 1603.28 132.281 1604.14 131.801C1605.03 131.321 1606.04 131.081 1607.16 131.081C1608.39 131.081 1609.38 131.333 1610.15 131.837C1610.92 132.317 1611.48 133.037 1611.84 133.997C1612.23 134.933 1612.42 136.073 1612.42 137.417ZM1620.33 142.853C1620.33 143.333 1620.45 143.753 1620.69 144.113C1620.93 144.449 1621.25 144.713 1621.66 144.905C1622.09 145.073 1622.56 145.157 1623.06 145.157C1623.78 145.157 1624.43 145.013 1625.01 144.725C1625.58 144.413 1626.05 143.981 1626.41 143.429C1626.77 142.853 1626.95 142.169 1626.95 141.377L1627.53 143.537C1627.53 144.593 1627.23 145.481 1626.63 146.201C1626.05 146.921 1625.29 147.461 1624.36 147.821C1623.45 148.181 1622.49 148.361 1621.48 148.361C1620.45 148.361 1619.49 148.157 1618.6 147.749C1617.71 147.341 1616.99 146.753 1616.44 145.985C1615.91 145.193 1615.65 144.233 1615.65 143.105C1615.65 141.497 1616.21 140.225 1617.34 139.289C1618.47 138.353 1620.06 137.885 1622.13 137.885C1623.18 137.885 1624.11 137.993 1624.9 138.209C1625.71 138.425 1626.4 138.689 1626.95 139.001C1627.5 139.313 1627.9 139.613 1628.14 139.901V142.061C1627.49 141.581 1626.76 141.221 1625.94 140.981C1625.15 140.741 1624.31 140.621 1623.42 140.621C1622.7 140.621 1622.11 140.717 1621.66 140.909C1621.2 141.077 1620.87 141.329 1620.65 141.665C1620.43 141.977 1620.33 142.373 1620.33 142.853ZM1618.53 136.121L1616.8 132.953C1617.66 132.497 1618.72 132.065 1619.97 131.657C1621.21 131.225 1622.61 131.009 1624.14 131.009C1625.56 131.009 1626.82 131.213 1627.92 131.621C1629.03 132.029 1629.89 132.629 1630.51 133.421C1631.14 134.189 1631.45 135.137 1631.45 136.265V148.001H1626.95V137.237C1626.95 136.781 1626.88 136.397 1626.73 136.085C1626.59 135.749 1626.36 135.473 1626.05 135.257C1625.76 135.041 1625.41 134.885 1625.01 134.789C1624.6 134.693 1624.14 134.645 1623.64 134.645C1622.87 134.645 1622.14 134.729 1621.44 134.897C1620.75 135.065 1620.15 135.269 1619.64 135.509C1619.14 135.749 1618.77 135.953 1618.53 136.121ZM1660.27 137.417V148.001H1655.59V137.921C1655.59 136.793 1655.4 135.953 1655.01 135.401C1654.63 134.825 1654 134.537 1653.14 134.537C1652.56 134.537 1652.06 134.669 1651.63 134.933C1651.2 135.173 1650.86 135.557 1650.62 136.085C1650.38 136.589 1650.26 137.201 1650.26 137.921V148.001H1645.62V137.921C1645.62 136.793 1645.42 135.953 1645.04 135.401C1644.66 134.825 1644.03 134.537 1643.17 134.537C1642.59 134.537 1642.09 134.669 1641.66 134.933C1641.22 135.173 1640.89 135.557 1640.65 136.085C1640.41 136.589 1640.29 137.201 1640.29 137.921V148.001H1635.79V131.441H1640.29V133.889C1640.77 132.977 1641.4 132.281 1642.2 131.801C1642.99 131.321 1643.94 131.081 1645.04 131.081C1646.26 131.081 1647.27 131.321 1648.06 131.801C1648.86 132.281 1649.43 132.989 1649.79 133.925C1650.39 132.989 1651.12 132.281 1651.99 131.801C1652.88 131.321 1653.88 131.081 1655.01 131.081C1656.24 131.081 1657.23 131.333 1658 131.837C1658.77 132.317 1659.33 133.037 1659.69 133.997C1660.08 134.933 1660.27 136.073 1660.27 137.417ZM1665.15 131.441H1669.69V148.001H1665.15V131.441ZM1675.36 141.809C1676.1 142.577 1676.8 143.189 1677.44 143.645C1678.09 144.101 1678.68 144.437 1679.21 144.653C1679.76 144.845 1680.23 144.941 1680.61 144.941C1681.16 144.941 1681.62 144.821 1681.98 144.581C1682.36 144.317 1682.56 143.933 1682.56 143.429C1682.56 142.973 1682.38 142.589 1682.02 142.277C1681.68 141.965 1681.24 141.689 1680.68 141.449C1680.16 141.209 1679.58 140.981 1678.96 140.765C1678.19 140.477 1677.44 140.153 1676.72 139.793C1676 139.409 1675.4 138.905 1674.92 138.281C1674.47 137.633 1674.24 136.781 1674.24 135.725C1674.24 134.693 1674.5 133.829 1675.03 133.133C1675.58 132.437 1676.3 131.921 1677.19 131.585C1678.08 131.225 1679.08 131.045 1680.18 131.045C1681.57 131.045 1682.84 131.309 1684 131.837C1685.15 132.365 1686.12 133.001 1686.91 133.745L1684.86 136.661C1684.31 136.037 1683.62 135.521 1682.81 135.113C1682.02 134.681 1681.28 134.465 1680.61 134.465C1679.99 134.465 1679.5 134.573 1679.14 134.789C1678.78 134.981 1678.6 135.305 1678.6 135.761C1678.6 136.217 1678.79 136.577 1679.17 136.841C1679.58 137.105 1680.1 137.345 1680.72 137.561C1681.34 137.753 1681.99 137.981 1682.66 138.245C1683.46 138.557 1684.2 138.917 1684.9 139.325C1685.59 139.733 1686.16 140.249 1686.59 140.873C1687.02 141.497 1687.24 142.301 1687.24 143.285C1687.24 145.157 1686.67 146.513 1685.54 147.353C1684.44 148.169 1682.98 148.577 1681.15 148.577C1680.05 148.577 1679 148.409 1678.02 148.073C1677.04 147.761 1676.12 147.317 1675.28 146.741C1674.47 146.141 1673.74 145.469 1673.09 144.725L1675.36 141.809ZM1680.4 145.733L1683.85 145.841L1680.97 150.089C1681.14 150.065 1681.3 150.041 1681.44 150.017C1681.61 150.017 1681.79 150.017 1681.98 150.017C1682.44 150.017 1682.9 150.137 1683.38 150.377C1683.86 150.617 1684.26 150.977 1684.57 151.457C1684.91 151.937 1685.08 152.537 1685.08 153.257C1685.08 154.073 1684.85 154.757 1684.39 155.309C1683.96 155.885 1683.4 156.305 1682.7 156.569C1682.03 156.857 1681.33 157.001 1680.61 157.001C1679.7 157.001 1678.9 156.893 1678.2 156.677C1677.53 156.485 1676.82 156.137 1676.08 155.633L1677.55 153.473C1677.96 153.785 1678.39 154.013 1678.85 154.157C1679.3 154.301 1679.72 154.373 1680.11 154.373C1680.73 154.373 1681.2 154.253 1681.51 154.013C1681.85 153.797 1682.02 153.473 1682.02 153.041C1682.02 152.585 1681.81 152.273 1681.4 152.105C1681.02 151.937 1680.54 151.853 1679.96 151.853C1679.8 151.853 1679.45 151.877 1678.92 151.925C1678.39 151.997 1677.85 152.165 1677.3 152.429L1680.4 145.733ZM1688.33 131.441H1698.56V135.365H1688.33V131.441ZM1691.18 125.681H1695.68V148.001H1691.18V125.681ZM1701.33 131.441H1705.86V148.001H1701.33V131.441Z" fill="white"/>
<circle cx="209.914" cy="118.312" r="56.9138" fill="white"/>
<circle cx="209.805" cy="118.422" r="34.5626" fill="#256CB3"/>
<rect x="209.914" y="27.1636" width="136.07" height="148.063" fill="#256CB3"/>
<rect x="209.914" y="152.984" width="56.9138" height="22.2422" fill="white"/>
<rect x="209.914" y="61.3984" width="37.7245" height="22.2422" fill="white"/>
<rect x="247.638" y="164.208" width="188.631" height="22.2422" transform="rotate(-60 247.638 164.208)" fill="white"/>
<path d="M568 175.33C568 184.167 575.163 191.33 584 191.33C592.837 191.33 600 184.167 600 175.33C600 166.494 592.837 159.33 584 159.33C575.163 159.33 568 166.494 568 175.33ZM584 178.33H1728V172.33H584V178.33Z" fill="#A6C5E3"/>
</svg>
