<svg width="1728" height="380" viewBox="0 0 1728 380" fill="none" xmlns="http://www.w3.org/2000/svg">
<rect y="44" width="1728" height="336" fill="#256CB3"/>
<path d="M821.804 260.4H828.764V294H821.804V260.4ZM821.516 253.296C821.516 252.272 821.884 251.44 822.62 250.8C823.356 250.128 824.236 249.792 825.26 249.792C826.284 249.792 827.148 250.128 827.852 250.8C828.588 251.44 828.956 252.272 828.956 253.296C828.956 254.32 828.588 255.168 827.852 255.84C827.148 256.512 826.284 256.848 825.26 256.848C824.236 256.848 823.356 256.512 822.62 255.84C821.884 255.168 821.516 254.32 821.516 253.296ZM836.391 285.744C837.383 286.768 838.311 287.584 839.175 288.192C840.039 288.8 840.823 289.248 841.527 289.536C842.263 289.792 842.887 289.92 843.399 289.92C844.135 289.92 844.743 289.76 845.223 289.44C845.735 289.088 845.991 288.576 845.991 287.904C845.991 287.296 845.751 286.784 845.271 286.368C844.823 285.952 844.231 285.584 843.495 285.264C842.791 284.944 842.023 284.64 841.191 284.352C840.167 283.968 839.175 283.536 838.215 283.056C837.255 282.544 836.455 281.872 835.815 281.04C835.207 280.176 834.903 279.04 834.903 277.632C834.903 276.256 835.255 275.104 835.959 274.176C836.695 273.248 837.655 272.56 838.839 272.112C840.023 271.632 841.351 271.392 842.823 271.392C844.679 271.392 846.375 271.744 847.911 272.448C849.447 273.152 850.743 274 851.799 274.992L849.063 278.88C848.327 278.048 847.415 277.36 846.327 276.816C845.271 276.24 844.295 275.952 843.399 275.952C842.567 275.952 841.911 276.096 841.431 276.384C840.951 276.64 840.711 277.072 840.711 277.68C840.711 278.288 840.967 278.768 841.479 279.12C842.023 279.472 842.711 279.792 843.543 280.08C844.375 280.336 845.239 280.64 846.135 280.992C847.191 281.408 848.183 281.888 849.111 282.432C850.039 282.976 850.791 283.664 851.367 284.496C851.943 285.328 852.231 286.4 852.231 287.712C852.231 290.208 851.479 292.016 849.975 293.136C848.503 294.224 846.551 294.768 844.119 294.768C842.647 294.768 841.255 294.544 839.943 294.096C838.631 293.68 837.415 293.088 836.295 292.32C835.207 291.52 834.231 290.624 833.367 289.632L836.391 285.744ZM843.111 290.976L847.719 291.12L843.879 296.784C844.103 296.752 844.311 296.72 844.503 296.688C844.727 296.688 844.967 296.688 845.223 296.688C845.831 296.688 846.455 296.848 847.095 297.168C847.735 297.488 848.263 297.968 848.679 298.608C849.127 299.248 849.351 300.048 849.351 301.008C849.351 302.096 849.047 303.008 848.439 303.744C847.863 304.512 847.111 305.072 846.183 305.424C845.287 305.808 844.359 306 843.399 306C842.183 306 841.111 305.856 840.183 305.568C839.287 305.312 838.343 304.848 837.351 304.176L839.319 301.296C839.863 301.712 840.439 302.016 841.047 302.208C841.655 302.4 842.215 302.496 842.727 302.496C843.559 302.496 844.183 302.336 844.599 302.016C845.047 301.728 845.271 301.296 845.271 300.72C845.271 300.112 844.999 299.696 844.455 299.472C843.943 299.248 843.303 299.136 842.535 299.136C842.311 299.136 841.847 299.168 841.143 299.232C840.439 299.328 839.719 299.552 838.983 299.904L843.111 290.976ZM877.012 256.56V294H870.772V256.56H877.012ZM895.156 282.96C895.156 285.392 894.66 287.472 893.668 289.2C892.676 290.928 891.364 292.24 889.732 293.136C888.132 294.032 886.404 294.48 884.548 294.48C882.724 294.48 881.092 294.016 879.652 293.088C878.244 292.16 877.124 290.832 876.292 289.104C875.46 287.376 875.044 285.328 875.044 282.96C875.044 280.56 875.46 278.512 876.292 276.816C877.124 275.088 878.244 273.76 879.652 272.832C881.092 271.904 882.724 271.44 884.548 271.44C886.404 271.44 888.132 271.888 889.732 272.784C891.364 273.68 892.676 274.992 893.668 276.72C894.66 278.416 895.156 280.496 895.156 282.96ZM888.724 282.96C888.724 281.648 888.452 280.512 887.908 279.552C887.364 278.592 886.628 277.856 885.7 277.344C884.804 276.832 883.812 276.576 882.724 276.576C881.796 276.576 880.884 276.832 879.988 277.344C879.124 277.824 878.404 278.544 877.828 279.504C877.284 280.464 877.012 281.616 877.012 282.96C877.012 284.304 877.284 285.456 877.828 286.416C878.404 287.376 879.124 288.112 879.988 288.624C880.884 289.104 881.796 289.344 882.724 289.344C883.812 289.344 884.804 289.088 885.7 288.576C886.628 288.064 887.364 287.328 887.908 286.368C888.452 285.408 888.724 284.272 888.724 282.96ZM906.223 285.36C906.223 286.8 906.511 287.92 907.087 288.72C907.663 289.488 908.591 289.872 909.871 289.872C910.767 289.872 911.535 289.696 912.175 289.344C912.847 288.96 913.359 288.432 913.711 287.76C914.095 287.088 914.287 286.288 914.287 285.36V271.92H920.479V294H914.287V290.64C913.583 291.888 912.687 292.848 911.599 293.52C910.511 294.16 909.183 294.48 907.615 294.48C904.991 294.48 903.023 293.728 901.711 292.224C900.431 290.72 899.791 288.656 899.791 286.032V271.92H906.223V285.36ZM926.603 256.56H932.843V294H926.603V256.56ZM971.618 279.888V294H965.378V280.56C965.378 279.056 965.122 277.936 964.61 277.2C964.098 276.432 963.266 276.048 962.114 276.048C961.346 276.048 960.674 276.224 960.098 276.576C959.522 276.896 959.074 277.408 958.754 278.112C958.434 278.784 958.274 279.6 958.274 280.56V294H952.082V280.56C952.082 279.056 951.826 277.936 951.314 277.2C950.802 276.432 949.97 276.048 948.818 276.048C948.05 276.048 947.378 276.224 946.802 276.576C946.226 276.896 945.778 277.408 945.458 278.112C945.138 278.784 944.978 279.6 944.978 280.56V294H938.978V271.92H944.978V275.184C945.618 273.968 946.466 273.04 947.522 272.4C948.578 271.76 949.842 271.44 951.314 271.44C952.946 271.44 954.29 271.76 955.346 272.4C956.402 273.04 957.17 273.984 957.65 275.232C958.45 273.984 959.426 273.04 960.578 272.4C961.762 271.76 963.106 271.44 964.61 271.44C966.242 271.44 967.57 271.776 968.594 272.448C969.618 273.088 970.37 274.048 970.85 275.328C971.362 276.576 971.618 278.096 971.618 279.888ZM982.16 287.136C982.16 287.776 982.32 288.336 982.64 288.816C982.96 289.264 983.392 289.616 983.936 289.872C984.512 290.096 985.136 290.208 985.808 290.208C986.768 290.208 987.632 290.016 988.4 289.632C989.168 289.216 989.792 288.64 990.272 287.904C990.752 287.136 990.992 286.224 990.992 285.168L991.76 288.048C991.76 289.456 991.36 290.64 990.56 291.6C989.792 292.56 988.784 293.28 987.536 293.76C986.32 294.24 985.04 294.48 983.696 294.48C982.32 294.48 981.04 294.208 979.856 293.664C978.672 293.12 977.712 292.336 976.976 291.312C976.272 290.256 975.92 288.976 975.92 287.472C975.92 285.328 976.672 283.632 978.176 282.384C979.68 281.136 981.808 280.512 984.56 280.512C985.968 280.512 987.2 280.656 988.256 280.944C989.344 281.232 990.256 281.584 990.992 282C991.728 282.416 992.256 282.816 992.576 283.2V286.08C991.712 285.44 990.736 284.96 989.648 284.64C988.592 284.32 987.472 284.16 986.288 284.16C985.328 284.16 984.544 284.288 983.936 284.544C983.328 284.768 982.88 285.104 982.592 285.552C982.304 285.968 982.16 286.496 982.16 287.136ZM979.76 278.16L977.456 273.936C978.608 273.328 980.016 272.752 981.68 272.208C983.344 271.632 985.2 271.344 987.248 271.344C989.136 271.344 990.816 271.616 992.288 272.16C993.76 272.704 994.912 273.504 995.744 274.56C996.576 275.584 996.992 276.848 996.992 278.352V294H990.992V279.648C990.992 279.04 990.896 278.528 990.704 278.112C990.512 277.664 990.208 277.296 989.792 277.008C989.408 276.72 988.944 276.512 988.4 276.384C987.856 276.256 987.248 276.192 986.576 276.192C985.552 276.192 984.576 276.304 983.648 276.528C982.72 276.752 981.92 277.024 981.248 277.344C980.576 277.664 980.08 277.936 979.76 278.16ZM1002.63 256.56H1008.63V294H1002.63V256.56ZM1016.74 271.92H1024.18L1014.68 281.04L1025.14 294H1017.75L1007.24 281.04L1016.74 271.92ZM1049.05 256.56V294H1042.81V256.56H1049.05ZM1057.06 280.56C1057.06 279.088 1056.77 277.968 1056.2 277.2C1055.65 276.432 1054.73 276.048 1053.41 276.048C1052.55 276.048 1051.78 276.24 1051.11 276.624C1050.44 276.976 1049.93 277.488 1049.57 278.16C1049.22 278.832 1049.05 279.632 1049.05 280.56H1047.8C1047.8 278.8 1048.09 277.216 1048.66 275.808C1049.27 274.4 1050.17 273.28 1051.35 272.448C1052.53 271.616 1053.99 271.2 1055.72 271.2C1057.45 271.2 1058.87 271.52 1059.99 272.16C1061.11 272.8 1061.94 273.76 1062.49 275.04C1063.03 276.288 1063.3 277.824 1063.3 279.648V294H1057.06V280.56ZM1069.14 263.376C1069.14 262.352 1069.51 261.52 1070.25 260.88C1070.98 260.208 1071.86 259.872 1072.89 259.872C1073.91 259.872 1074.78 260.208 1075.48 260.88C1076.22 261.52 1076.58 262.352 1076.58 263.376C1076.58 264.368 1076.22 265.2 1075.48 265.872C1074.78 266.544 1073.91 266.88 1072.89 266.88C1071.86 266.88 1070.98 266.544 1070.25 265.872C1069.51 265.2 1069.14 264.368 1069.14 263.376ZM1069.82 271.92H1075.86V294H1069.82V271.92ZM1087.17 282.96C1087.17 284.24 1087.45 285.36 1088.03 286.32C1088.61 287.28 1089.37 288.032 1090.33 288.576C1091.33 289.12 1092.41 289.392 1093.6 289.392C1094.56 289.392 1095.49 289.248 1096.38 288.96C1097.28 288.64 1098.08 288.224 1098.78 287.712C1099.52 287.168 1100.08 286.544 1100.46 285.84V292.224C1099.69 292.928 1098.69 293.488 1097.44 293.904C1096.22 294.288 1094.8 294.48 1093.17 294.48C1090.83 294.48 1088.72 294 1086.83 293.04C1084.97 292.08 1083.5 290.736 1082.41 289.008C1081.36 287.248 1080.83 285.232 1080.83 282.96C1080.83 280.656 1081.36 278.64 1082.41 276.912C1083.5 275.184 1084.97 273.84 1086.83 272.88C1088.72 271.92 1090.83 271.44 1093.17 271.44C1094.8 271.44 1096.22 271.648 1097.44 272.064C1098.69 272.448 1099.69 272.976 1100.46 273.648V280.032C1100.08 279.328 1099.5 278.72 1098.73 278.208C1098 277.664 1097.18 277.248 1096.29 276.96C1095.39 276.672 1094.49 276.528 1093.6 276.528C1092.41 276.528 1091.33 276.816 1090.33 277.392C1089.37 277.936 1088.61 278.688 1088.03 279.648C1087.45 280.608 1087.17 281.712 1087.17 282.96ZM1091.1 291.12L1095.61 291.216L1091.82 296.928C1092.05 296.864 1092.27 296.832 1092.49 296.832C1092.72 296.832 1092.94 296.832 1093.17 296.832C1093.77 296.832 1094.4 296.992 1095.04 297.312C1095.68 297.632 1096.21 298.096 1096.62 298.704C1097.04 299.344 1097.25 300.16 1097.25 301.152C1097.25 302.24 1096.96 303.152 1096.38 303.888C1095.81 304.624 1095.07 305.184 1094.17 305.568C1093.28 305.952 1092.33 306.144 1091.34 306.144C1090.16 306.144 1089.09 306 1088.13 305.712C1087.2 305.456 1086.24 304.976 1085.25 304.272L1087.26 301.44C1087.84 301.856 1088.43 302.144 1089.04 302.304C1089.65 302.496 1090.21 302.592 1090.72 302.592C1091.55 302.592 1092.17 302.448 1092.59 302.16C1093.04 301.872 1093.26 301.44 1093.26 300.864C1093.26 300.256 1092.99 299.824 1092.45 299.568C1091.93 299.344 1091.28 299.232 1090.48 299.232C1090.25 299.232 1089.77 299.28 1089.04 299.376C1088.33 299.472 1087.63 299.696 1086.93 300.048L1091.1 291.12ZM1126.43 256.56V294H1120.19V256.56H1126.43ZM1144.58 282.96C1144.58 285.392 1144.08 287.472 1143.09 289.2C1142.1 290.928 1140.79 292.24 1139.15 293.136C1137.55 294.032 1135.83 294.48 1133.97 294.48C1132.15 294.48 1130.51 294.016 1129.07 293.088C1127.67 292.16 1126.55 290.832 1125.71 289.104C1124.88 287.376 1124.47 285.328 1124.47 282.96C1124.47 280.56 1124.88 278.512 1125.71 276.816C1126.55 275.088 1127.67 273.76 1129.07 272.832C1130.51 271.904 1132.15 271.44 1133.97 271.44C1135.83 271.44 1137.55 271.888 1139.15 272.784C1140.79 273.68 1142.1 274.992 1143.09 276.72C1144.08 278.416 1144.58 280.496 1144.58 282.96ZM1138.15 282.96C1138.15 281.648 1137.87 280.512 1137.33 279.552C1136.79 278.592 1136.05 277.856 1135.12 277.344C1134.23 276.832 1133.23 276.576 1132.15 276.576C1131.22 276.576 1130.31 276.832 1129.41 277.344C1128.55 277.824 1127.83 278.544 1127.25 279.504C1126.71 280.464 1126.43 281.616 1126.43 282.96C1126.43 284.304 1126.71 285.456 1127.25 286.416C1127.83 287.376 1128.55 288.112 1129.41 288.624C1130.31 289.104 1131.22 289.344 1132.15 289.344C1133.23 289.344 1134.23 289.088 1135.12 288.576C1136.05 288.064 1136.79 287.328 1137.33 286.368C1137.87 285.408 1138.15 284.272 1138.15 282.96ZM1155.64 285.36C1155.64 286.8 1155.93 287.92 1156.51 288.72C1157.08 289.488 1158.01 289.872 1159.29 289.872C1160.19 289.872 1160.96 289.696 1161.6 289.344C1162.27 288.96 1162.78 288.432 1163.13 287.76C1163.52 287.088 1163.71 286.288 1163.71 285.36V271.92H1169.9V294H1163.71V290.64C1163 291.888 1162.11 292.848 1161.02 293.52C1159.93 294.16 1158.6 294.48 1157.04 294.48C1154.41 294.48 1152.44 293.728 1151.13 292.224C1149.85 290.72 1149.21 288.656 1149.21 286.032V271.92H1155.64V285.36ZM1190.27 256.56H1196.27V294H1190.27V256.56ZM1204.38 271.92H1211.82L1202.32 281.04L1212.78 294H1205.39L1194.88 281.04L1204.38 271.92ZM1220.47 287.136C1220.47 287.776 1220.63 288.336 1220.95 288.816C1221.27 289.264 1221.7 289.616 1222.25 289.872C1222.82 290.096 1223.45 290.208 1224.12 290.208C1225.08 290.208 1225.94 290.016 1226.71 289.632C1227.48 289.216 1228.1 288.64 1228.58 287.904C1229.06 287.136 1229.3 286.224 1229.3 285.168L1230.07 288.048C1230.07 289.456 1229.67 290.64 1228.87 291.6C1228.1 292.56 1227.1 293.28 1225.85 293.76C1224.63 294.24 1223.35 294.48 1222.01 294.48C1220.63 294.48 1219.35 294.208 1218.17 293.664C1216.98 293.12 1216.02 292.336 1215.29 291.312C1214.58 290.256 1214.23 288.976 1214.23 287.472C1214.23 285.328 1214.98 283.632 1216.49 282.384C1217.99 281.136 1220.12 280.512 1222.87 280.512C1224.28 280.512 1225.51 280.656 1226.57 280.944C1227.66 281.232 1228.57 281.584 1229.3 282C1230.04 282.416 1230.57 282.816 1230.89 283.2V286.08C1230.02 285.44 1229.05 284.96 1227.96 284.64C1226.9 284.32 1225.78 284.16 1224.6 284.16C1223.64 284.16 1222.86 284.288 1222.25 284.544C1221.64 284.768 1221.19 285.104 1220.9 285.552C1220.62 285.968 1220.47 286.496 1220.47 287.136ZM1218.07 278.16L1215.77 273.936C1216.92 273.328 1218.33 272.752 1219.99 272.208C1221.66 271.632 1223.51 271.344 1225.56 271.344C1227.45 271.344 1229.13 271.616 1230.6 272.16C1232.07 272.704 1233.22 273.504 1234.06 274.56C1234.89 275.584 1235.3 276.848 1235.3 278.352V294H1229.3V279.648C1229.3 279.04 1229.21 278.528 1229.02 278.112C1228.82 277.664 1228.52 277.296 1228.1 277.008C1227.72 276.72 1227.26 276.512 1226.71 276.384C1226.17 276.256 1225.56 276.192 1224.89 276.192C1223.86 276.192 1222.89 276.304 1221.96 276.528C1221.03 276.752 1220.23 277.024 1219.56 277.344C1218.89 277.664 1218.39 277.936 1218.07 278.16ZM1257.74 256.56H1263.98V294H1257.74V256.56ZM1239.6 282.96C1239.6 280.496 1240.1 278.416 1241.09 276.72C1242.08 274.992 1243.39 273.68 1245.02 272.784C1246.66 271.888 1248.38 271.44 1250.21 271.44C1252.06 271.44 1253.7 271.904 1255.1 272.832C1256.54 273.76 1257.66 275.088 1258.46 276.816C1259.3 278.512 1259.71 280.56 1259.71 282.96C1259.71 285.328 1259.3 287.376 1258.46 289.104C1257.66 290.832 1256.54 292.16 1255.1 293.088C1253.7 294.016 1252.06 294.48 1250.21 294.48C1248.38 294.48 1246.66 294.032 1245.02 293.136C1243.39 292.24 1242.08 290.928 1241.09 289.2C1240.1 287.472 1239.6 285.392 1239.6 282.96ZM1246.03 282.96C1246.03 284.272 1246.3 285.408 1246.85 286.368C1247.39 287.328 1248.13 288.064 1249.06 288.576C1249.98 289.088 1250.98 289.344 1252.03 289.344C1252.96 289.344 1253.86 289.104 1254.72 288.624C1255.62 288.112 1256.34 287.376 1256.88 286.416C1257.46 285.456 1257.74 284.304 1257.74 282.96C1257.74 281.616 1257.46 280.464 1256.88 279.504C1256.34 278.544 1255.62 277.824 1254.72 277.344C1253.86 276.832 1252.96 276.576 1252.03 276.576C1250.98 276.576 1249.98 276.832 1249.06 277.344C1248.13 277.856 1247.39 278.592 1246.85 279.552C1246.3 280.512 1246.03 281.648 1246.03 282.96ZM1274.38 287.136C1274.38 287.776 1274.54 288.336 1274.86 288.816C1275.18 289.264 1275.61 289.616 1276.15 289.872C1276.73 290.096 1277.35 290.208 1278.03 290.208C1278.99 290.208 1279.85 290.016 1280.62 289.632C1281.39 289.216 1282.01 288.64 1282.49 287.904C1282.97 287.136 1283.21 286.224 1283.21 285.168L1283.98 288.048C1283.98 289.456 1283.58 290.64 1282.78 291.6C1282.01 292.56 1281 293.28 1279.75 293.76C1278.54 294.24 1277.26 294.48 1275.91 294.48C1274.54 294.48 1273.26 294.208 1272.07 293.664C1270.89 293.12 1269.93 292.336 1269.19 291.312C1268.49 290.256 1268.14 288.976 1268.14 287.472C1268.14 285.328 1268.89 283.632 1270.39 282.384C1271.9 281.136 1274.03 280.512 1276.78 280.512C1278.19 280.512 1279.42 280.656 1280.47 280.944C1281.56 281.232 1282.47 281.584 1283.21 282C1283.95 282.416 1284.47 282.816 1284.79 283.2V286.08C1283.93 285.44 1282.95 284.96 1281.87 284.64C1280.81 284.32 1279.69 284.16 1278.51 284.16C1277.55 284.16 1276.76 284.288 1276.15 284.544C1275.55 284.768 1275.1 285.104 1274.81 285.552C1274.52 285.968 1274.38 286.496 1274.38 287.136ZM1271.98 278.16L1269.67 273.936C1270.83 273.328 1272.23 272.752 1273.9 272.208C1275.56 271.632 1277.42 271.344 1279.47 271.344C1281.35 271.344 1283.03 271.616 1284.51 272.16C1285.98 272.704 1287.13 273.504 1287.96 274.56C1288.79 275.584 1289.21 276.848 1289.21 278.352V294H1283.21V279.648C1283.21 279.04 1283.11 278.528 1282.92 278.112C1282.73 277.664 1282.43 277.296 1282.01 277.008C1281.63 276.72 1281.16 276.512 1280.62 276.384C1280.07 276.256 1279.47 276.192 1278.79 276.192C1277.77 276.192 1276.79 276.304 1275.87 276.528C1274.94 276.752 1274.14 277.024 1273.47 277.344C1272.79 277.664 1272.3 277.936 1271.98 278.16ZM1301.09 271.92V294H1294.99V271.92H1301.09ZM1307.57 278.4C1307.15 278.016 1306.72 277.728 1306.27 277.536C1305.86 277.312 1305.33 277.2 1304.69 277.2C1303.92 277.2 1303.27 277.408 1302.72 277.824C1302.18 278.24 1301.76 278.832 1301.47 279.6C1301.22 280.336 1301.09 281.232 1301.09 282.288L1299.36 280.56C1299.36 278.8 1299.7 277.248 1300.37 275.904C1301.04 274.528 1301.92 273.44 1303.01 272.64C1304.1 271.808 1305.22 271.392 1306.37 271.392C1307.17 271.392 1307.92 271.536 1308.63 271.824C1309.36 272.112 1309.95 272.544 1310.4 273.12L1307.57 278.4ZM1327.94 256.56H1333.94V294H1327.94V256.56ZM1342.06 271.92H1349.5L1339.99 281.04L1350.46 294H1343.06L1332.55 281.04L1342.06 271.92ZM1351.54 282.96C1351.54 280.656 1352.07 278.64 1353.12 276.912C1354.21 275.184 1355.67 273.84 1357.49 272.88C1359.35 271.92 1361.44 271.44 1363.78 271.44C1366.11 271.44 1368.19 271.92 1370.02 272.88C1371.87 273.84 1373.33 275.184 1374.39 276.912C1375.47 278.64 1376.02 280.656 1376.02 282.96C1376.02 285.232 1375.47 287.248 1374.39 289.008C1373.33 290.736 1371.87 292.08 1370.02 293.04C1368.19 294 1366.11 294.48 1363.78 294.48C1361.44 294.48 1359.35 294 1357.49 293.04C1355.67 292.08 1354.21 290.736 1353.12 289.008C1352.07 287.248 1351.54 285.232 1351.54 282.96ZM1357.87 282.96C1357.87 284.208 1358.13 285.312 1358.64 286.272C1359.19 287.2 1359.91 287.936 1360.8 288.48C1361.7 288.992 1362.69 289.248 1363.78 289.248C1364.87 289.248 1365.86 288.992 1366.75 288.48C1367.65 287.936 1368.35 287.2 1368.87 286.272C1369.41 285.312 1369.68 284.208 1369.68 282.96C1369.68 281.712 1369.41 280.608 1368.87 279.648C1368.35 278.688 1367.65 277.952 1366.75 277.44C1365.86 276.928 1364.87 276.672 1363.78 276.672C1362.69 276.672 1361.7 276.928 1360.8 277.44C1359.91 277.952 1359.19 278.688 1358.64 279.648C1358.13 280.608 1357.87 281.712 1357.87 282.96ZM1380.68 256.56H1386.92V294H1380.68V256.56ZM1397.47 287.136C1397.47 287.776 1397.63 288.336 1397.95 288.816C1398.27 289.264 1398.7 289.616 1399.25 289.872C1399.82 290.096 1400.45 290.208 1401.12 290.208C1402.08 290.208 1402.94 290.016 1403.71 289.632C1404.48 289.216 1405.1 288.64 1405.58 287.904C1406.06 287.136 1406.3 286.224 1406.3 285.168L1407.07 288.048C1407.07 289.456 1406.67 290.64 1405.87 291.6C1405.1 292.56 1404.1 293.28 1402.85 293.76C1401.63 294.24 1400.35 294.48 1399.01 294.48C1397.63 294.48 1396.35 294.208 1395.17 293.664C1393.98 293.12 1393.02 292.336 1392.29 291.312C1391.58 290.256 1391.23 288.976 1391.23 287.472C1391.23 285.328 1391.98 283.632 1393.49 282.384C1394.99 281.136 1397.12 280.512 1399.87 280.512C1401.28 280.512 1402.51 280.656 1403.57 280.944C1404.66 281.232 1405.57 281.584 1406.3 282C1407.04 282.416 1407.57 282.816 1407.89 283.2V286.08C1407.02 285.44 1406.05 284.96 1404.96 284.64C1403.9 284.32 1402.78 284.16 1401.6 284.16C1400.64 284.16 1399.86 284.288 1399.25 284.544C1398.64 284.768 1398.19 285.104 1397.9 285.552C1397.62 285.968 1397.47 286.496 1397.47 287.136ZM1395.07 278.16L1392.77 273.936C1393.92 273.328 1395.33 272.752 1396.99 272.208C1398.66 271.632 1400.51 271.344 1402.56 271.344C1404.45 271.344 1406.13 271.616 1407.6 272.16C1409.07 272.704 1410.22 273.504 1411.06 274.56C1411.89 275.584 1412.3 276.848 1412.3 278.352V294H1406.3V279.648C1406.3 279.04 1406.21 278.528 1406.02 278.112C1405.82 277.664 1405.52 277.296 1405.1 277.008C1404.72 276.72 1404.26 276.512 1403.71 276.384C1403.17 276.256 1402.56 276.192 1401.89 276.192C1400.86 276.192 1399.89 276.304 1398.96 276.528C1398.03 276.752 1397.23 277.024 1396.56 277.344C1395.89 277.664 1395.39 277.936 1395.07 278.16ZM1438.88 271.92L1424.48 304.56H1418.09L1423.66 291.792L1414.49 271.92H1421.41L1428.51 289.488L1425.44 289.392L1432.4 271.92H1438.88ZM1454.57 282.96C1454.57 280.656 1455.1 278.64 1456.15 276.912C1457.24 275.184 1458.7 273.84 1460.52 272.88C1462.38 271.92 1464.47 271.44 1466.81 271.44C1469.14 271.44 1471.22 271.92 1473.05 272.88C1474.9 273.84 1476.36 275.184 1477.42 276.912C1478.5 278.64 1479.05 280.656 1479.05 282.96C1479.05 285.232 1478.5 287.248 1477.42 289.008C1476.36 290.736 1474.9 292.08 1473.05 293.04C1471.22 294 1469.14 294.48 1466.81 294.48C1464.47 294.48 1462.38 294 1460.52 293.04C1458.7 292.08 1457.24 290.736 1456.15 289.008C1455.1 287.248 1454.57 285.232 1454.57 282.96ZM1460.9 282.96C1460.9 284.208 1461.16 285.312 1461.67 286.272C1462.22 287.2 1462.94 287.936 1463.83 288.48C1464.73 288.992 1465.72 289.248 1466.81 289.248C1467.9 289.248 1468.89 288.992 1469.78 288.48C1470.68 287.936 1471.38 287.2 1471.9 286.272C1472.44 285.312 1472.71 284.208 1472.71 282.96C1472.71 281.712 1472.44 280.608 1471.9 279.648C1471.38 278.688 1470.68 277.952 1469.78 277.44C1468.89 276.928 1467.9 276.672 1466.81 276.672C1465.72 276.672 1464.73 276.928 1463.83 277.44C1462.94 277.952 1462.22 278.688 1461.67 279.648C1461.16 280.608 1460.9 281.712 1460.9 282.96ZM1483.71 256.56H1489.95V294H1483.71V256.56ZM1528.73 279.888V294H1522.49V280.56C1522.49 279.056 1522.23 277.936 1521.72 277.2C1521.21 276.432 1520.38 276.048 1519.22 276.048C1518.46 276.048 1517.78 276.224 1517.21 276.576C1516.63 276.896 1516.18 277.408 1515.86 278.112C1515.54 278.784 1515.38 279.6 1515.38 280.56V294H1509.19V280.56C1509.19 279.056 1508.94 277.936 1508.42 277.2C1507.91 276.432 1507.08 276.048 1505.93 276.048C1505.16 276.048 1504.49 276.224 1503.91 276.576C1503.34 276.896 1502.89 277.408 1502.57 278.112C1502.25 278.784 1502.09 279.6 1502.09 280.56V294H1496.09V271.92H1502.09V275.184C1502.73 273.968 1503.58 273.04 1504.63 272.4C1505.69 271.76 1506.95 271.44 1508.42 271.44C1510.06 271.44 1511.4 271.76 1512.46 272.4C1513.51 273.04 1514.28 273.984 1514.76 275.232C1515.56 273.984 1516.54 273.04 1517.69 272.4C1518.87 271.76 1520.22 271.44 1521.72 271.44C1523.35 271.44 1524.68 271.776 1525.7 272.448C1526.73 273.088 1527.48 274.048 1527.96 275.328C1528.47 276.576 1528.73 278.096 1528.73 279.888ZM1539.27 287.136C1539.27 287.776 1539.43 288.336 1539.75 288.816C1540.07 289.264 1540.5 289.616 1541.05 289.872C1541.62 290.096 1542.25 290.208 1542.92 290.208C1543.88 290.208 1544.74 290.016 1545.51 289.632C1546.28 289.216 1546.9 288.64 1547.38 287.904C1547.86 287.136 1548.1 286.224 1548.1 285.168L1548.87 288.048C1548.87 289.456 1548.47 290.64 1547.67 291.6C1546.9 292.56 1545.89 293.28 1544.65 293.76C1543.43 294.24 1542.15 294.48 1540.81 294.48C1539.43 294.48 1538.15 294.208 1536.97 293.664C1535.78 293.12 1534.82 292.336 1534.09 291.312C1533.38 290.256 1533.03 288.976 1533.03 287.472C1533.03 285.328 1533.78 283.632 1535.29 282.384C1536.79 281.136 1538.92 280.512 1541.67 280.512C1543.08 280.512 1544.31 280.656 1545.37 280.944C1546.45 281.232 1547.37 281.584 1548.1 282C1548.84 282.416 1549.37 282.816 1549.69 283.2V286.08C1548.82 285.44 1547.85 284.96 1546.76 284.64C1545.7 284.32 1544.58 284.16 1543.4 284.16C1542.44 284.16 1541.65 284.288 1541.05 284.544C1540.44 284.768 1539.99 285.104 1539.7 285.552C1539.41 285.968 1539.27 286.496 1539.27 287.136ZM1536.87 278.16L1534.57 273.936C1535.72 273.328 1537.13 272.752 1538.79 272.208C1540.45 271.632 1542.31 271.344 1544.36 271.344C1546.25 271.344 1547.93 271.616 1549.4 272.16C1550.87 272.704 1552.02 273.504 1552.85 274.56C1553.69 275.584 1554.1 276.848 1554.1 278.352V294H1548.1V279.648C1548.1 279.04 1548.01 278.528 1547.81 278.112C1547.62 277.664 1547.32 277.296 1546.9 277.008C1546.52 276.72 1546.05 276.512 1545.51 276.384C1544.97 276.256 1544.36 276.192 1543.69 276.192C1542.66 276.192 1541.69 276.304 1540.76 276.528C1539.83 276.752 1539.03 277.024 1538.36 277.344C1537.69 277.664 1537.19 277.936 1536.87 278.16ZM1592.52 279.888V294H1586.28V280.56C1586.28 279.056 1586.03 277.936 1585.52 277.2C1585 276.432 1584.17 276.048 1583.02 276.048C1582.25 276.048 1581.58 276.224 1581 276.576C1580.43 276.896 1579.98 277.408 1579.66 278.112C1579.34 278.784 1579.18 279.6 1579.18 280.56V294H1572.99V280.56C1572.99 279.056 1572.73 277.936 1572.22 277.2C1571.71 276.432 1570.88 276.048 1569.72 276.048C1568.96 276.048 1568.28 276.224 1567.71 276.576C1567.13 276.896 1566.68 277.408 1566.36 278.112C1566.04 278.784 1565.88 279.6 1565.88 280.56V294H1559.88V271.92H1565.88V275.184C1566.52 273.968 1567.37 273.04 1568.43 272.4C1569.48 271.76 1570.75 271.44 1572.22 271.44C1573.85 271.44 1575.2 271.76 1576.25 272.4C1577.31 273.04 1578.08 273.984 1578.56 275.232C1579.36 273.984 1580.33 273.04 1581.48 272.4C1582.67 271.76 1584.01 271.44 1585.52 271.44C1587.15 271.44 1588.48 271.776 1589.5 272.448C1590.52 273.088 1591.28 274.048 1591.76 275.328C1592.27 276.576 1592.52 278.096 1592.52 279.888ZM1599.03 271.92H1605.08V294H1599.03V271.92ZM1612.64 285.744C1613.63 286.768 1614.56 287.584 1615.43 288.192C1616.29 288.8 1617.07 289.248 1617.78 289.536C1618.51 289.792 1619.14 289.92 1619.65 289.92C1620.39 289.92 1620.99 289.76 1621.47 289.44C1621.99 289.088 1622.24 288.576 1622.24 287.904C1622.24 287.296 1622 286.784 1621.52 286.368C1621.07 285.952 1620.48 285.584 1619.75 285.264C1619.04 284.944 1618.27 284.64 1617.44 284.352C1616.42 283.968 1615.43 283.536 1614.47 283.056C1613.51 282.544 1612.71 281.872 1612.07 281.04C1611.46 280.176 1611.15 279.04 1611.15 277.632C1611.15 276.256 1611.51 275.104 1612.21 274.176C1612.95 273.248 1613.91 272.56 1615.09 272.112C1616.27 271.632 1617.6 271.392 1619.07 271.392C1620.93 271.392 1622.63 271.744 1624.16 272.448C1625.7 273.152 1626.99 274 1628.05 274.992L1625.31 278.88C1624.58 278.048 1623.67 277.36 1622.58 276.816C1621.52 276.24 1620.55 275.952 1619.65 275.952C1618.82 275.952 1618.16 276.096 1617.68 276.384C1617.2 276.64 1616.96 277.072 1616.96 277.68C1616.96 278.288 1617.22 278.768 1617.73 279.12C1618.27 279.472 1618.96 279.792 1619.79 280.08C1620.63 280.336 1621.49 280.64 1622.39 280.992C1623.44 281.408 1624.43 281.888 1625.36 282.432C1626.29 282.976 1627.04 283.664 1627.62 284.496C1628.19 285.328 1628.48 286.4 1628.48 287.712C1628.48 290.208 1627.73 292.016 1626.23 293.136C1624.75 294.224 1622.8 294.768 1620.37 294.768C1618.9 294.768 1617.51 294.544 1616.19 294.096C1614.88 293.68 1613.67 293.088 1612.55 292.32C1611.46 291.52 1610.48 290.624 1609.62 289.632L1612.64 285.744ZM1619.36 290.976L1623.97 291.12L1620.13 296.784C1620.35 296.752 1620.56 296.72 1620.75 296.688C1620.98 296.688 1621.22 296.688 1621.47 296.688C1622.08 296.688 1622.71 296.848 1623.35 297.168C1623.99 297.488 1624.51 297.968 1624.93 298.608C1625.38 299.248 1625.6 300.048 1625.6 301.008C1625.6 302.096 1625.3 303.008 1624.69 303.744C1624.11 304.512 1623.36 305.072 1622.43 305.424C1621.54 305.808 1620.61 306 1619.65 306C1618.43 306 1617.36 305.856 1616.43 305.568C1615.54 305.312 1614.59 304.848 1613.6 304.176L1615.57 301.296C1616.11 301.712 1616.69 302.016 1617.3 302.208C1617.91 302.4 1618.47 302.496 1618.98 302.496C1619.81 302.496 1620.43 302.336 1620.85 302.016C1621.3 301.728 1621.52 301.296 1621.52 300.72C1621.52 300.112 1621.25 299.696 1620.71 299.472C1620.19 299.248 1619.55 299.136 1618.79 299.136C1618.56 299.136 1618.1 299.168 1617.39 299.232C1616.69 299.328 1615.97 299.552 1615.23 299.904L1619.36 290.976ZM1629.94 271.92H1643.58V277.152H1629.94V271.92ZM1633.74 264.24H1639.74V294H1633.74V264.24ZM1647.27 271.92H1653.32V294H1647.27V271.92Z" fill="white"/>
<circle cx="248.294" cy="226.577" r="70.2937" fill="white"/>
<circle cx="248.159" cy="226.712" r="42.6879" fill="#256CB3"/>
<rect x="248.294" y="114" width="168.058" height="182.871" fill="#256CB3"/>
<rect x="248.294" y="269.4" width="70.2937" height="27.4711" fill="white"/>
<rect x="248.294" y="156.284" width="46.5931" height="27.4711" fill="white"/>
<rect x="294.887" y="283.264" width="326.31" height="27.4711" transform="rotate(-60 294.887 283.264)" fill="white"/>
<path d="M557.333 336C557.333 350.728 569.272 362.667 584 362.667C598.728 362.667 610.667 350.728 610.667 336C610.667 321.272 598.728 309.333 584 309.333C569.272 309.333 557.333 321.272 557.333 336ZM584 341H1728V331H584V341Z" fill="#A6C5E3"/>
</svg>
