<svg width="56" height="56" viewBox="0 0 56 56" fill="none" xmlns="http://www.w3.org/2000/svg">
<path d="M39.3342 8.09928C39.3342 7.79245 39.2124 7.4982 38.9954 7.28124C38.7784 7.06428 38.4842 6.94239 38.1774 6.94239H32.3929C29.4801 6.7973 26.6284 7.81096 24.4606 9.76191C22.2929 11.7129 20.9855 14.4425 20.824 17.3544V23.6016H15.0396C14.7328 23.6016 14.4385 23.7235 14.2215 23.9404C14.0046 24.1574 13.8827 24.4516 13.8827 24.7585V30.7743C13.8827 31.0811 14.0046 31.3754 14.2215 31.5923C14.4385 31.8093 14.7328 31.9312 15.0396 31.9312H20.824V47.4335C20.824 47.7403 20.9459 48.0346 21.1629 48.2515C21.3798 48.4685 21.6741 48.5904 21.9809 48.5904H28.9222C29.2291 48.5904 29.5233 48.4685 29.7403 48.2515C29.9572 48.0346 30.0791 47.7403 30.0791 47.4335V31.9312H36.1412C36.3985 31.9349 36.6497 31.8527 36.855 31.6977C37.0603 31.5426 37.2081 31.3235 37.275 31.0751L38.9409 25.0593C38.9869 24.8883 38.9931 24.7091 38.959 24.5354C38.9249 24.3617 38.8513 24.1981 38.744 24.0573C38.6367 23.9165 38.4986 23.8022 38.3402 23.7232C38.1817 23.6442 38.0073 23.6026 37.8303 23.6016H30.0791V17.3544C30.1367 16.7817 30.4056 16.251 30.8335 15.8659C31.2613 15.4809 31.8173 15.2691 32.3929 15.272H38.1774C38.4842 15.272 38.7784 15.1501 38.9954 14.9331C39.2124 14.7162 39.3342 14.4219 39.3342 14.1151V8.09928Z" fill="#256CB3"/>
</svg>
