<svg width="121" height="57" viewBox="0 0 121 57" fill="none" xmlns="http://www.w3.org/2000/svg">
<circle cx="21.6974" cy="35.2218" r="21.6974" fill="#256CB3"/>
<circle cx="21.6558" cy="35.2633" r="13.1764" fill="#F1F5F8"/>
<rect x="21.6972" y="0.472656" width="51.8742" height="56.4464" fill="#F1F5F8"/>
<rect x="21.6972" y="48.4395" width="21.6974" height="8.47943" fill="#256CB3"/>
<rect x="21.6972" y="13.5244" width="14.3818" height="8.47943" fill="#256CB3"/>
<rect x="36.0792" y="52.7197" width="60.3289" height="8.47943" transform="rotate(-60 36.0792 52.7197)" fill="#256CB3"/>
<path d="M70.3816 42.8H71.7416V54H70.3816V42.8ZM71.1336 44.08V42.8H73.4216C74.1469 42.8 74.7922 42.9387 75.3576 43.216C75.9336 43.4827 76.3869 43.8667 76.7176 44.368C77.0589 44.8693 77.2296 45.4667 77.2296 46.16C77.2296 46.8427 77.0589 47.44 76.7176 47.952C76.3869 48.4533 75.9336 48.8427 75.3576 49.12C74.7922 49.3867 74.1469 49.52 73.4216 49.52H71.1336V48.24H73.4216C74.1469 48.24 74.7336 48.064 75.1816 47.712C75.6402 47.36 75.8696 46.8427 75.8696 46.16C75.8696 45.4667 75.6402 44.9493 75.1816 44.608C74.7336 44.256 74.1469 44.08 73.4216 44.08H71.1336ZM79.9472 48.4C79.9472 49.2427 80.1285 49.9947 80.4912 50.656C80.8645 51.3173 81.3712 51.84 82.0112 52.224C82.6512 52.608 83.3765 52.8 84.1872 52.8C85.0085 52.8 85.7339 52.608 86.3632 52.224C87.0032 51.84 87.5045 51.3173 87.8672 50.656C88.2405 49.9947 88.4272 49.2427 88.4272 48.4C88.4272 47.5573 88.2405 46.8053 87.8672 46.144C87.5045 45.4827 87.0032 44.96 86.3632 44.576C85.7339 44.192 85.0085 44 84.1872 44C83.3765 44 82.6512 44.192 82.0112 44.576C81.3712 44.96 80.8645 45.4827 80.4912 46.144C80.1285 46.8053 79.9472 47.5573 79.9472 48.4ZM78.5072 48.4C78.5072 47.5787 78.6459 46.8213 78.9232 46.128C79.2112 45.424 79.6112 44.816 80.1232 44.304C80.6352 43.7813 81.2379 43.376 81.9312 43.088C82.6245 42.7893 83.3765 42.64 84.1872 42.64C85.0085 42.64 85.7605 42.7893 86.4432 43.088C87.1365 43.376 87.7392 43.7813 88.2512 44.304C88.7632 44.816 89.1579 45.424 89.4352 46.128C89.7232 46.8213 89.8672 47.5787 89.8672 48.4C89.8672 49.2107 89.7232 49.968 89.4352 50.672C89.1579 51.376 88.7632 51.9893 88.2512 52.512C87.7392 53.024 87.1365 53.4293 86.4432 53.728C85.7605 54.016 85.0085 54.16 84.1872 54.16C83.3765 54.16 82.6245 54.016 81.9312 53.728C81.2379 53.4293 80.6352 53.024 80.1232 52.512C79.6112 51.9893 79.2112 51.376 78.9232 50.672C78.6459 49.968 78.5072 49.2107 78.5072 48.4ZM93.7878 48.48H95.3078L99.3078 54H97.6278L93.7878 48.48ZM91.7878 42.8H93.1478V54H91.7878V42.8ZM92.5398 44V42.8H94.8278C95.5531 42.8 96.1985 42.9387 96.7638 43.216C97.3398 43.4827 97.7931 43.8667 98.1238 44.368C98.4651 44.8693 98.6358 45.4667 98.6358 46.16C98.6358 46.8427 98.4651 47.44 98.1238 47.952C97.7931 48.4533 97.3398 48.8427 96.7638 49.12C96.1985 49.3867 95.5531 49.52 94.8278 49.52H92.5398V48.32H94.8278C95.3078 48.32 95.7291 48.2347 96.0918 48.064C96.4651 47.8933 96.7531 47.648 96.9558 47.328C97.1691 47.008 97.2758 46.6187 97.2758 46.16C97.2758 45.7013 97.1691 45.312 96.9558 44.992C96.7531 44.672 96.4651 44.4267 96.0918 44.256C95.7291 44.0853 95.3078 44 94.8278 44H92.5398ZM99.6209 44.08V42.8H106.741V44.08H103.861V54H102.501V44.08H99.6209Z" fill="#A1B9D0"/>
</svg>
