<svg width="62" height="62" viewBox="0 0 62 62" fill="none" xmlns="http://www.w3.org/2000/svg">
<path opacity="0.4" d="M7.10223 48.1792C6.04307 48.1792 5.16473 47.3009 5.16473 46.2417V31.5167C5.03557 24.5159 7.64473 17.9026 12.5014 12.9426C17.3581 8.0084 23.8681 5.2959 30.8689 5.2959C45.1806 5.2959 56.8314 16.9467 56.8314 31.2584V45.9834C56.8314 47.0426 55.9531 47.9209 54.8939 47.9209C53.8347 47.9209 52.9564 47.0426 52.9564 45.9834V31.2584C52.9564 19.0909 43.0622 9.1709 30.8689 9.1709C24.9014 9.1709 19.3731 11.4701 15.2656 15.6551C11.1322 19.8659 8.9364 25.4717 9.03973 31.4651V46.2159C9.03973 47.3009 8.18723 48.1792 7.10223 48.1792Z" fill="#256CB3"/>
<path d="M15.3463 32.1621H15.0105C9.58547 32.1621 5.16797 36.5796 5.16797 42.0046V46.8613C5.16797 52.2863 9.58547 56.7038 15.0105 56.7038H15.3463C20.7713 56.7038 25.1888 52.2863 25.1888 46.8613V42.0046C25.1888 36.5796 20.7713 32.1621 15.3463 32.1621ZM46.9921 32.1621H46.6563C41.2313 32.1621 36.8138 36.5796 36.8138 42.0046V46.8613C36.8138 52.2863 41.2313 56.7038 46.6563 56.7038H46.9921C52.4171 56.7038 56.8346 52.2863 56.8346 46.8613V42.0046C56.8346 36.5796 52.4171 32.1621 46.9921 32.1621Z" fill="#256CB3"/>
</svg>
