<svg width="1290" height="228" viewBox="0 0 1290 228" fill="none" xmlns="http://www.w3.org/2000/svg">
<rect y="42" width="1290" height="186" rx="10" fill="#256CB3"/>
<circle cx="120.779" cy="145.112" r="45.1438" fill="white"/>
<circle cx="120.692" cy="145.199" r="27.4149" fill="#256CB3"/>
<rect x="120.779" y="72.8125" width="107.93" height="117.443" fill="#256CB3"/>
<rect x="120.779" y="172.614" width="45.1438" height="17.6424" fill="white"/>
<rect x="120.779" y="99.9683" width="29.9229" height="17.6424" fill="white"/>
<rect x="150.702" y="181.517" width="209.562" height="17.6424" transform="rotate(-60 150.702 181.517)" fill="white"/>
<path d="M181.87 176.8H184.08V195H181.87V176.8ZM183.092 178.88V176.8H186.81C187.989 176.8 189.037 177.025 189.956 177.476C190.892 177.909 191.629 178.533 192.166 179.348C192.721 180.163 192.998 181.133 192.998 182.26C192.998 183.369 192.721 184.34 192.166 185.172C191.629 185.987 190.892 186.619 189.956 187.07C189.037 187.503 187.989 187.72 186.81 187.72H183.092V185.64H186.81C187.989 185.64 188.942 185.354 189.67 184.782C190.415 184.21 190.788 183.369 190.788 182.26C190.788 181.133 190.415 180.293 189.67 179.738C188.942 179.166 187.989 178.88 186.81 178.88H183.092ZM197.414 185.9C197.414 187.269 197.709 188.491 198.298 189.566C198.905 190.641 199.728 191.49 200.768 192.114C201.808 192.738 202.987 193.05 204.304 193.05C205.639 193.05 206.818 192.738 207.84 192.114C208.88 191.49 209.695 190.641 210.284 189.566C210.891 188.491 211.194 187.269 211.194 185.9C211.194 184.531 210.891 183.309 210.284 182.234C209.695 181.159 208.88 180.31 207.84 179.686C206.818 179.062 205.639 178.75 204.304 178.75C202.987 178.75 201.808 179.062 200.768 179.686C199.728 180.31 198.905 181.159 198.298 182.234C197.709 183.309 197.414 184.531 197.414 185.9ZM195.074 185.9C195.074 184.565 195.3 183.335 195.75 182.208C196.218 181.064 196.868 180.076 197.7 179.244C198.532 178.395 199.512 177.736 200.638 177.268C201.765 176.783 202.987 176.54 204.304 176.54C205.639 176.54 206.861 176.783 207.97 177.268C209.097 177.736 210.076 178.395 210.908 179.244C211.74 180.076 212.382 181.064 212.832 182.208C213.3 183.335 213.534 184.565 213.534 185.9C213.534 187.217 213.3 188.448 212.832 189.592C212.382 190.736 211.74 191.733 210.908 192.582C210.076 193.414 209.097 194.073 207.97 194.558C206.861 195.026 205.639 195.26 204.304 195.26C202.987 195.26 201.765 195.026 200.638 194.558C199.512 194.073 198.532 193.414 197.7 192.582C196.868 191.733 196.218 190.736 195.75 189.592C195.3 188.448 195.074 187.217 195.074 185.9ZM219.905 186.03H222.375L228.875 195H226.145L219.905 186.03ZM216.655 176.8H218.865V195H216.655V176.8ZM217.877 178.75V176.8H221.595C222.774 176.8 223.823 177.025 224.741 177.476C225.677 177.909 226.414 178.533 226.951 179.348C227.506 180.163 227.783 181.133 227.783 182.26C227.783 183.369 227.506 184.34 226.951 185.172C226.414 185.987 225.677 186.619 224.741 187.07C223.823 187.503 222.774 187.72 221.595 187.72H217.877V185.77H221.595C222.375 185.77 223.06 185.631 223.649 185.354C224.256 185.077 224.724 184.678 225.053 184.158C225.4 183.638 225.573 183.005 225.573 182.26C225.573 181.515 225.4 180.882 225.053 180.362C224.724 179.842 224.256 179.443 223.649 179.166C223.06 178.889 222.375 178.75 221.595 178.75H217.877ZM229.384 178.88V176.8H240.954V178.88H236.274V195H234.064V178.88H229.384Z" fill="#A1B9D0"/>
</svg>
