<svg width="42" height="42" viewBox="0 0 42 42" fill="none" xmlns="http://www.w3.org/2000/svg">
<path d="M28.3325 3.5H13.6675C7.2975 3.5 3.5 7.2975 3.5 13.6675V28.315C3.5 34.7025 7.2975 38.5 13.6675 38.5H28.315C34.685 38.5 38.4825 34.7025 38.4825 28.3325V13.6675C38.5 7.2975 34.7025 3.5 28.3325 3.5ZM21 27.79C17.255 27.79 14.21 24.745 14.21 21C14.21 17.255 17.255 14.21 21 14.21C24.745 14.21 27.79 17.255 27.79 21C27.79 24.745 24.745 27.79 21 27.79ZM31.36 12.04C31.2725 12.25 31.15 12.4425 30.9925 12.6175C30.8175 12.775 30.625 12.8975 30.415 12.985C30.0965 13.1202 29.745 13.1574 29.4052 13.092C29.0655 13.0265 28.753 12.8613 28.5075 12.6175C28.35 12.4425 28.2275 12.25 28.14 12.04C28.0501 11.8297 28.0025 11.6037 28 11.375C28 11.1475 28.0525 10.92 28.14 10.71C28.2275 10.4825 28.35 10.3075 28.5075 10.1325C28.91 9.73 29.5225 9.5375 30.0825 9.66C30.205 9.6775 30.31 9.7125 30.415 9.765C30.52 9.8 30.625 9.8525 30.73 9.9225C30.8175 9.975 30.905 10.0625 30.9925 10.1325C31.15 10.3075 31.2725 10.4825 31.36 10.71C31.4475 10.92 31.5 11.1475 31.5 11.375C31.5 11.6025 31.4475 11.83 31.36 12.04Z" fill="#256CB3"/>
</svg>
