<svg width="52" height="52" viewBox="0 0 52 52" fill="none" xmlns="http://www.w3.org/2000/svg">
<path d="M32.7456 18.1563C31.089 18.1506 29.4475 18.4717 27.9151 19.101C26.3827 19.7304 24.9894 20.6558 23.815 21.8242C22.6405 22.9926 21.708 24.3811 21.0708 25.9102C20.4336 27.4394 20.1041 29.0792 20.1013 30.7358V43.445C20.1013 43.961 20.3062 44.4558 20.671 44.8206C21.0358 45.1854 21.5306 45.3903 22.0465 45.3903H26.5855C27.1015 45.3903 27.5963 45.1854 27.9611 44.8206C28.3259 44.4558 28.5308 43.961 28.5308 43.445V30.7358C28.5304 30.1466 28.6542 29.564 28.894 29.0258C29.1339 28.4876 29.4845 28.006 29.9229 27.6125C30.3614 27.2189 30.8779 26.9221 31.4387 26.7415C31.9996 26.5609 32.5922 26.5005 33.1779 26.5643C34.2284 26.6966 35.1938 27.2098 35.891 28.0066C36.5882 28.8034 36.9687 29.8284 36.9604 30.8871V43.445C36.9604 43.961 37.1653 44.4558 37.5302 44.8206C37.895 45.1854 38.3898 45.3903 38.9057 45.3903H43.4447C43.9606 45.3903 44.4554 45.1854 44.8202 44.8206C45.185 44.4558 45.39 43.961 45.39 43.445V30.7358C45.3871 29.0792 45.0577 27.4394 44.4204 25.9102C43.7832 24.3811 42.8507 22.9926 41.6763 21.8242C40.5018 20.6558 39.1086 19.7304 37.5761 19.101C36.0437 18.4717 34.4022 18.1506 32.7456 18.1563Z" fill="#256CB3"/>
<path d="M14.2654 20.1006H8.42957C7.35522 20.1006 6.48428 20.9715 6.48428 22.0459V43.444C6.48428 44.5184 7.35522 45.3893 8.42957 45.3893H14.2654C15.3398 45.3893 16.2107 44.5184 16.2107 43.444V22.0459C16.2107 20.9715 15.3398 20.1006 14.2654 20.1006Z" fill="#256CB3"/>
<path d="M11.3475 16.2108C14.0334 16.2108 16.2107 14.0335 16.2107 11.3476C16.2107 8.66171 14.0334 6.48438 11.3475 6.48438C8.66162 6.48438 6.48428 8.66171 6.48428 11.3476C6.48428 14.0335 8.66162 16.2108 11.3475 16.2108Z" fill="#256CB3"/>
</svg>
