<svg width="132" height="91" viewBox="0 0 132 91" fill="none" xmlns="http://www.w3.org/2000/svg">
<circle cx="31.8818" cy="51.0596" r="31.8818" fill="#256CB3"/>
<circle cx="31.8208" cy="51.121" r="19.3612" fill="white"/>
<rect x="31.8816" width="76.2232" height="82.9416" fill="white"/>
<rect x="31.8816" y="70.4819" width="31.8818" height="12.4596" fill="#256CB3"/>
<rect x="31.8816" y="19.1777" width="21.1324" height="12.4596" fill="#256CB3"/>
<rect x="53.0144" y="76.77" width="88.6466" height="12.4596" transform="rotate(-60 53.0144 76.77)" fill="#256CB3"/>
<path d="M81.7746 67.6H83.6446V83H81.7746V67.6ZM82.8086 69.36V67.6H85.9546C86.952 67.6 87.8393 67.7907 88.6166 68.172C89.4086 68.5387 90.032 69.0667 90.4866 69.756C90.956 70.4453 91.1906 71.2667 91.1906 72.22C91.1906 73.1587 90.956 73.98 90.4866 74.684C90.032 75.3733 89.4086 75.9087 88.6166 76.29C87.8393 76.6567 86.952 76.84 85.9546 76.84H82.8086V75.08H85.9546C86.952 75.08 87.7586 74.838 88.3746 74.354C89.0053 73.87 89.3206 73.1587 89.3206 72.22C89.3206 71.2667 89.0053 70.5553 88.3746 70.086C87.7586 69.602 86.952 69.36 85.9546 69.36H82.8086ZM94.9274 75.3C94.9274 76.4587 95.1767 77.4927 95.6754 78.402C96.1887 79.3113 96.8854 80.03 97.7654 80.558C98.6454 81.086 99.6427 81.35 100.757 81.35C101.887 81.35 102.884 81.086 103.749 80.558C104.629 80.03 105.319 79.3113 105.817 78.402C106.331 77.4927 106.587 76.4587 106.587 75.3C106.587 74.1413 106.331 73.1073 105.817 72.198C105.319 71.2887 104.629 70.57 103.749 70.042C102.884 69.514 101.887 69.25 100.757 69.25C99.6427 69.25 98.6454 69.514 97.7654 70.042C96.8854 70.57 96.1887 71.2887 95.6754 72.198C95.1767 73.1073 94.9274 74.1413 94.9274 75.3ZM92.9474 75.3C92.9474 74.1707 93.138 73.1293 93.5194 72.176C93.9154 71.208 94.4654 70.372 95.1694 69.668C95.8734 68.9493 96.702 68.392 97.6554 67.996C98.6087 67.5853 99.6427 67.38 100.757 67.38C101.887 67.38 102.921 67.5853 103.859 67.996C104.813 68.392 105.641 68.9493 106.345 69.668C107.049 70.372 107.592 71.208 107.973 72.176C108.369 73.1293 108.567 74.1707 108.567 75.3C108.567 76.4147 108.369 77.456 107.973 78.424C107.592 79.392 107.049 80.2353 106.345 80.954C105.641 81.658 104.813 82.2153 103.859 82.626C102.921 83.022 101.887 83.22 100.757 83.22C99.6427 83.22 98.6087 83.022 97.6554 82.626C96.702 82.2153 95.8734 81.658 95.1694 80.954C94.4654 80.2353 93.9154 79.392 93.5194 78.424C93.138 77.456 92.9474 76.4147 92.9474 75.3ZM113.958 75.41H116.048L121.548 83H119.238L113.958 75.41ZM111.208 67.6H113.078V83H111.208V67.6ZM112.242 69.25V67.6H115.388C116.386 67.6 117.273 67.7907 118.05 68.172C118.842 68.5387 119.466 69.0667 119.92 69.756C120.39 70.4453 120.624 71.2667 120.624 72.22C120.624 73.1587 120.39 73.98 119.92 74.684C119.466 75.3733 118.842 75.9087 118.05 76.29C117.273 76.6567 116.386 76.84 115.388 76.84H112.242V75.19H115.388C116.048 75.19 116.628 75.0727 117.126 74.838C117.64 74.6033 118.036 74.266 118.314 73.826C118.608 73.386 118.754 72.8507 118.754 72.22C118.754 71.5893 118.608 71.054 118.314 70.614C118.036 70.174 117.64 69.8367 117.126 69.602C116.628 69.3673 116.048 69.25 115.388 69.25H112.242ZM121.979 69.36V67.6H131.769V69.36H127.809V83H125.939V69.36H121.979Z" fill="#A1B9D0"/>
</svg>
