<svg width="1903" height="905" viewBox="0 0 1903 905" fill="none" xmlns="http://www.w3.org/2000/svg">
<rect x="143" y="212" width="315" height="104" rx="10" fill="#CDDBE9"/>
<path d="M186.841 258.6H189.987V274H186.841V258.6ZM188.755 261.262V258.6H191.813C193.03 258.6 194.064 258.798 194.915 259.194C195.78 259.59 196.44 260.155 196.895 260.888C197.35 261.621 197.577 262.494 197.577 263.506C197.577 264.503 197.35 265.376 196.895 266.124C196.44 266.857 195.78 267.422 194.915 267.818C194.064 268.214 193.03 268.412 191.813 268.412H188.755V265.75H191.813C192.649 265.75 193.309 265.559 193.793 265.178C194.277 264.797 194.519 264.239 194.519 263.506C194.519 262.758 194.277 262.201 193.793 261.834C193.309 261.453 192.649 261.262 191.813 261.262H188.755ZM203.509 266.828H206.831L211.847 274H208.129L203.509 266.828ZM200.011 258.6H203.157V274H200.011V258.6ZM201.925 261.284V258.6H205.181C206.398 258.6 207.432 258.805 208.283 259.216C209.134 259.627 209.786 260.199 210.241 260.932C210.696 261.665 210.923 262.523 210.923 263.506C210.923 264.474 210.696 265.332 210.241 266.08C209.786 266.813 209.134 267.385 208.283 267.796C207.432 268.207 206.398 268.412 205.181 268.412H201.925V265.904H204.983C205.54 265.904 206.017 265.816 206.413 265.64C206.824 265.449 207.139 265.185 207.359 264.848C207.579 264.496 207.689 264.078 207.689 263.594C207.689 263.11 207.579 262.699 207.359 262.362C207.139 262.01 206.824 261.746 206.413 261.57C206.017 261.379 205.54 261.284 204.983 261.284H201.925ZM216.095 266.3C216.095 267.283 216.301 268.155 216.711 268.918C217.122 269.681 217.687 270.282 218.405 270.722C219.124 271.162 219.96 271.382 220.913 271.382C221.867 271.382 222.703 271.162 223.421 270.722C224.14 270.282 224.697 269.681 225.093 268.918C225.504 268.155 225.709 267.283 225.709 266.3C225.709 265.317 225.511 264.445 225.115 263.682C224.719 262.919 224.162 262.318 223.443 261.878C222.725 261.438 221.881 261.218 220.913 261.218C219.96 261.218 219.124 261.438 218.405 261.878C217.687 262.318 217.122 262.919 216.711 263.682C216.301 264.445 216.095 265.317 216.095 266.3ZM212.773 266.3C212.773 265.127 212.979 264.056 213.389 263.088C213.8 262.105 214.372 261.255 215.105 260.536C215.839 259.817 216.697 259.267 217.679 258.886C218.677 258.49 219.755 258.292 220.913 258.292C222.087 258.292 223.165 258.49 224.147 258.886C225.13 259.267 225.988 259.817 226.721 260.536C227.469 261.255 228.041 262.105 228.437 263.088C228.848 264.056 229.053 265.127 229.053 266.3C229.053 267.459 228.848 268.537 228.437 269.534C228.041 270.517 227.477 271.375 226.743 272.108C226.025 272.841 225.167 273.413 224.169 273.824C223.187 274.22 222.101 274.418 220.913 274.418C219.725 274.418 218.633 274.22 217.635 273.824C216.653 273.413 215.795 272.841 215.061 272.108C214.328 271.375 213.763 270.517 213.367 269.534C212.971 268.537 212.773 267.459 212.773 266.3ZM233.509 261.35V258.6H240.395V261.35H233.509ZM233.509 267.422V264.804H240.175V267.422H233.509ZM231.485 258.6H234.521V274H231.485V258.6ZM245.304 274V271.338H253.07V274H245.304ZM245.304 261.262V258.6H253.07V261.262H245.304ZM245.304 267.136V264.518H252.63V267.136H245.304ZM243.28 258.6H246.316V274H243.28V258.6ZM257.513 268.83C257.836 269.402 258.188 269.901 258.569 270.326C258.965 270.751 259.398 271.081 259.867 271.316C260.336 271.551 260.842 271.668 261.385 271.668C262.016 271.668 262.529 271.507 262.925 271.184C263.321 270.861 263.519 270.421 263.519 269.864C263.519 269.38 263.394 268.991 263.145 268.698C262.91 268.405 262.551 268.148 262.067 267.928C261.598 267.693 261.018 267.444 260.329 267.18C259.962 267.048 259.537 266.872 259.053 266.652C258.584 266.417 258.136 266.124 257.711 265.772C257.286 265.405 256.934 264.965 256.655 264.452C256.376 263.924 256.237 263.293 256.237 262.56C256.237 261.68 256.457 260.925 256.897 260.294C257.352 259.649 257.96 259.157 258.723 258.82C259.5 258.468 260.366 258.292 261.319 258.292C262.302 258.292 263.145 258.461 263.849 258.798C264.568 259.121 265.162 259.539 265.631 260.052C266.115 260.551 266.489 261.071 266.753 261.614L264.289 262.978C264.084 262.611 263.834 262.281 263.541 261.988C263.262 261.68 262.94 261.438 262.573 261.262C262.206 261.071 261.788 260.976 261.319 260.976C260.703 260.976 260.241 261.123 259.933 261.416C259.625 261.695 259.471 262.025 259.471 262.406C259.471 262.787 259.596 263.125 259.845 263.418C260.094 263.697 260.476 263.968 260.989 264.232C261.502 264.481 262.148 264.738 262.925 265.002C263.424 265.178 263.9 265.398 264.355 265.662C264.824 265.926 265.242 266.249 265.609 266.63C265.99 266.997 266.284 267.437 266.489 267.95C266.709 268.449 266.819 269.028 266.819 269.688C266.819 270.436 266.672 271.103 266.379 271.69C266.086 272.277 265.682 272.775 265.169 273.186C264.656 273.582 264.076 273.883 263.431 274.088C262.8 274.308 262.133 274.418 261.429 274.418C260.49 274.418 259.61 274.242 258.789 273.89C257.982 273.523 257.278 273.032 256.677 272.416C256.076 271.8 255.606 271.133 255.269 270.414L257.513 268.83ZM277.942 258.6H281.528L276.226 267.62V274H273.036V267.642L267.734 258.6H271.32L274.62 264.804L277.942 258.6ZM284.566 266.3C284.566 267.283 284.771 268.155 285.182 268.918C285.593 269.681 286.157 270.282 286.876 270.722C287.595 271.162 288.431 271.382 289.384 271.382C290.337 271.382 291.173 271.162 291.892 270.722C292.611 270.282 293.168 269.681 293.564 268.918C293.975 268.155 294.18 267.283 294.18 266.3C294.18 265.317 293.982 264.445 293.586 263.682C293.19 262.919 292.633 262.318 291.914 261.878C291.195 261.438 290.352 261.218 289.384 261.218C288.431 261.218 287.595 261.438 286.876 261.878C286.157 262.318 285.593 262.919 285.182 263.682C284.771 264.445 284.566 265.317 284.566 266.3ZM281.244 266.3C281.244 265.127 281.449 264.056 281.86 263.088C282.271 262.105 282.843 261.255 283.576 260.536C284.309 259.817 285.167 259.267 286.15 258.886C287.147 258.49 288.225 258.292 289.384 258.292C290.557 258.292 291.635 258.49 292.618 258.886C293.601 259.267 294.459 259.817 295.192 260.536C295.94 261.255 296.512 262.105 296.908 263.088C297.319 264.056 297.524 265.127 297.524 266.3C297.524 267.459 297.319 268.537 296.908 269.534C296.512 270.517 295.947 271.375 295.214 272.108C294.495 272.841 293.637 273.413 292.64 273.824C291.657 274.22 290.572 274.418 289.384 274.418C288.196 274.418 287.103 274.22 286.106 273.824C285.123 273.413 284.265 272.841 283.532 272.108C282.799 271.375 282.234 270.517 281.838 269.534C281.442 268.537 281.244 267.459 281.244 266.3ZM310.912 258.6H313.948V274.77L302.992 264.452V274H299.956V257.83L310.912 268.148V258.6ZM319.318 274V271.338H327.084V274H319.318ZM319.318 261.262V258.6H327.084V261.262H319.318ZM319.318 267.136V264.518H326.644V267.136H319.318ZM317.294 258.6H320.33V274H317.294V258.6ZM330.185 258.6H333.331V271.25H339.469V274H330.185V258.6ZM350.396 266.3C350.396 267.312 350.624 268.199 351.078 268.962C351.548 269.71 352.156 270.289 352.904 270.7C353.652 271.096 354.466 271.294 355.346 271.294C356.08 271.294 356.732 271.199 357.304 271.008C357.876 270.817 358.39 270.561 358.844 270.238C359.314 269.915 359.717 269.563 360.054 269.182V272.724C359.424 273.223 358.734 273.611 357.986 273.89C357.253 274.169 356.322 274.308 355.192 274.308C354.019 274.308 352.926 274.117 351.914 273.736C350.917 273.355 350.044 272.805 349.296 272.086C348.563 271.367 347.991 270.524 347.58 269.556C347.184 268.573 346.986 267.488 346.986 266.3C346.986 265.112 347.184 264.034 347.58 263.066C347.991 262.083 348.563 261.233 349.296 260.514C350.044 259.795 350.917 259.245 351.914 258.864C352.926 258.483 354.019 258.292 355.192 258.292C356.322 258.292 357.253 258.431 357.986 258.71C358.734 258.989 359.424 259.377 360.054 259.876V263.418C359.717 263.037 359.314 262.685 358.844 262.362C358.39 262.039 357.876 261.783 357.304 261.592C356.732 261.401 356.08 261.306 355.346 261.306C354.466 261.306 353.652 261.511 352.904 261.922C352.156 262.318 351.548 262.89 351.078 263.638C350.624 264.386 350.396 265.273 350.396 266.3ZM369.022 268.632L373.18 258.6H376.832L369.022 274.902L361.212 258.6H364.842L369.022 268.632Z" fill="#194979"/>
<rect x="143" y="590" width="315" height="104" rx="10" fill="#CDDBE9"/>
<path d="M186.841 636.6H189.987V652H186.841V636.6ZM188.755 639.262V636.6H191.813C193.03 636.6 194.064 636.798 194.915 637.194C195.78 637.59 196.44 638.155 196.895 638.888C197.35 639.621 197.577 640.494 197.577 641.506C197.577 642.503 197.35 643.376 196.895 644.124C196.44 644.857 195.78 645.422 194.915 645.818C194.064 646.214 193.03 646.412 191.813 646.412H188.755V643.75H191.813C192.649 643.75 193.309 643.559 193.793 643.178C194.277 642.797 194.519 642.239 194.519 641.506C194.519 640.758 194.277 640.201 193.793 639.834C193.309 639.453 192.649 639.262 191.813 639.262H188.755ZM203.509 644.828H206.831L211.847 652H208.129L203.509 644.828ZM200.011 636.6H203.157V652H200.011V636.6ZM201.925 639.284V636.6H205.181C206.398 636.6 207.432 636.805 208.283 637.216C209.134 637.627 209.786 638.199 210.241 638.932C210.696 639.665 210.923 640.523 210.923 641.506C210.923 642.474 210.696 643.332 210.241 644.08C209.786 644.813 209.134 645.385 208.283 645.796C207.432 646.207 206.398 646.412 205.181 646.412H201.925V643.904H204.983C205.54 643.904 206.017 643.816 206.413 643.64C206.824 643.449 207.139 643.185 207.359 642.848C207.579 642.496 207.689 642.078 207.689 641.594C207.689 641.11 207.579 640.699 207.359 640.362C207.139 640.01 206.824 639.746 206.413 639.57C206.017 639.379 205.54 639.284 204.983 639.284H201.925ZM216.095 644.3C216.095 645.283 216.301 646.155 216.711 646.918C217.122 647.681 217.687 648.282 218.405 648.722C219.124 649.162 219.96 649.382 220.913 649.382C221.867 649.382 222.703 649.162 223.421 648.722C224.14 648.282 224.697 647.681 225.093 646.918C225.504 646.155 225.709 645.283 225.709 644.3C225.709 643.317 225.511 642.445 225.115 641.682C224.719 640.919 224.162 640.318 223.443 639.878C222.725 639.438 221.881 639.218 220.913 639.218C219.96 639.218 219.124 639.438 218.405 639.878C217.687 640.318 217.122 640.919 216.711 641.682C216.301 642.445 216.095 643.317 216.095 644.3ZM212.773 644.3C212.773 643.127 212.979 642.056 213.389 641.088C213.8 640.105 214.372 639.255 215.105 638.536C215.839 637.817 216.697 637.267 217.679 636.886C218.677 636.49 219.755 636.292 220.913 636.292C222.087 636.292 223.165 636.49 224.147 636.886C225.13 637.267 225.988 637.817 226.721 638.536C227.469 639.255 228.041 640.105 228.437 641.088C228.848 642.056 229.053 643.127 229.053 644.3C229.053 645.459 228.848 646.537 228.437 647.534C228.041 648.517 227.477 649.375 226.743 650.108C226.025 650.841 225.167 651.413 224.169 651.824C223.187 652.22 222.101 652.418 220.913 652.418C219.725 652.418 218.633 652.22 217.635 651.824C216.653 651.413 215.795 650.841 215.061 650.108C214.328 649.375 213.763 648.517 213.367 647.534C212.971 646.537 212.773 645.459 212.773 644.3ZM233.509 639.35V636.6H240.395V639.35H233.509ZM233.509 645.422V642.804H240.175V645.422H233.509ZM231.485 636.6H234.521V652H231.485V636.6ZM245.304 652V649.338H253.07V652H245.304ZM245.304 639.262V636.6H253.07V639.262H245.304ZM245.304 645.136V642.518H252.63V645.136H245.304ZM243.28 636.6H246.316V652H243.28V636.6ZM257.513 646.83C257.836 647.402 258.188 647.901 258.569 648.326C258.965 648.751 259.398 649.081 259.867 649.316C260.336 649.551 260.842 649.668 261.385 649.668C262.016 649.668 262.529 649.507 262.925 649.184C263.321 648.861 263.519 648.421 263.519 647.864C263.519 647.38 263.394 646.991 263.145 646.698C262.91 646.405 262.551 646.148 262.067 645.928C261.598 645.693 261.018 645.444 260.329 645.18C259.962 645.048 259.537 644.872 259.053 644.652C258.584 644.417 258.136 644.124 257.711 643.772C257.286 643.405 256.934 642.965 256.655 642.452C256.376 641.924 256.237 641.293 256.237 640.56C256.237 639.68 256.457 638.925 256.897 638.294C257.352 637.649 257.96 637.157 258.723 636.82C259.5 636.468 260.366 636.292 261.319 636.292C262.302 636.292 263.145 636.461 263.849 636.798C264.568 637.121 265.162 637.539 265.631 638.052C266.115 638.551 266.489 639.071 266.753 639.614L264.289 640.978C264.084 640.611 263.834 640.281 263.541 639.988C263.262 639.68 262.94 639.438 262.573 639.262C262.206 639.071 261.788 638.976 261.319 638.976C260.703 638.976 260.241 639.123 259.933 639.416C259.625 639.695 259.471 640.025 259.471 640.406C259.471 640.787 259.596 641.125 259.845 641.418C260.094 641.697 260.476 641.968 260.989 642.232C261.502 642.481 262.148 642.738 262.925 643.002C263.424 643.178 263.9 643.398 264.355 643.662C264.824 643.926 265.242 644.249 265.609 644.63C265.99 644.997 266.284 645.437 266.489 645.95C266.709 646.449 266.819 647.028 266.819 647.688C266.819 648.436 266.672 649.103 266.379 649.69C266.086 650.277 265.682 650.775 265.169 651.186C264.656 651.582 264.076 651.883 263.431 652.088C262.8 652.308 262.133 652.418 261.429 652.418C260.49 652.418 259.61 652.242 258.789 651.89C257.982 651.523 257.278 651.032 256.677 650.416C256.076 649.8 255.606 649.133 255.269 648.414L257.513 646.83ZM277.942 636.6H281.528L276.226 645.62V652H273.036V645.642L267.734 636.6H271.32L274.62 642.804L277.942 636.6ZM284.566 644.3C284.566 645.283 284.771 646.155 285.182 646.918C285.593 647.681 286.157 648.282 286.876 648.722C287.595 649.162 288.431 649.382 289.384 649.382C290.337 649.382 291.173 649.162 291.892 648.722C292.611 648.282 293.168 647.681 293.564 646.918C293.975 646.155 294.18 645.283 294.18 644.3C294.18 643.317 293.982 642.445 293.586 641.682C293.19 640.919 292.633 640.318 291.914 639.878C291.195 639.438 290.352 639.218 289.384 639.218C288.431 639.218 287.595 639.438 286.876 639.878C286.157 640.318 285.593 640.919 285.182 641.682C284.771 642.445 284.566 643.317 284.566 644.3ZM281.244 644.3C281.244 643.127 281.449 642.056 281.86 641.088C282.271 640.105 282.843 639.255 283.576 638.536C284.309 637.817 285.167 637.267 286.15 636.886C287.147 636.49 288.225 636.292 289.384 636.292C290.557 636.292 291.635 636.49 292.618 636.886C293.601 637.267 294.459 637.817 295.192 638.536C295.94 639.255 296.512 640.105 296.908 641.088C297.319 642.056 297.524 643.127 297.524 644.3C297.524 645.459 297.319 646.537 296.908 647.534C296.512 648.517 295.947 649.375 295.214 650.108C294.495 650.841 293.637 651.413 292.64 651.824C291.657 652.22 290.572 652.418 289.384 652.418C288.196 652.418 287.103 652.22 286.106 651.824C285.123 651.413 284.265 650.841 283.532 650.108C282.799 649.375 282.234 648.517 281.838 647.534C281.442 646.537 281.244 645.459 281.244 644.3ZM310.912 636.6H313.948V652.77L302.992 642.452V652H299.956V635.83L310.912 646.148V636.6ZM319.318 652V649.338H327.084V652H319.318ZM319.318 639.262V636.6H327.084V639.262H319.318ZM319.318 645.136V642.518H326.644V645.136H319.318ZM317.294 636.6H320.33V652H317.294V636.6ZM330.185 636.6H333.331V649.25H339.469V652H330.185V636.6ZM350.396 644.3C350.396 645.312 350.624 646.199 351.078 646.962C351.548 647.71 352.156 648.289 352.904 648.7C353.652 649.096 354.466 649.294 355.346 649.294C356.08 649.294 356.732 649.199 357.304 649.008C357.876 648.817 358.39 648.561 358.844 648.238C359.314 647.915 359.717 647.563 360.054 647.182V650.724C359.424 651.223 358.734 651.611 357.986 651.89C357.253 652.169 356.322 652.308 355.192 652.308C354.019 652.308 352.926 652.117 351.914 651.736C350.917 651.355 350.044 650.805 349.296 650.086C348.563 649.367 347.991 648.524 347.58 647.556C347.184 646.573 346.986 645.488 346.986 644.3C346.986 643.112 347.184 642.034 347.58 641.066C347.991 640.083 348.563 639.233 349.296 638.514C350.044 637.795 350.917 637.245 351.914 636.864C352.926 636.483 354.019 636.292 355.192 636.292C356.322 636.292 357.253 636.431 357.986 636.71C358.734 636.989 359.424 637.377 360.054 637.876V641.418C359.717 641.037 359.314 640.685 358.844 640.362C358.39 640.039 357.876 639.783 357.304 639.592C356.732 639.401 356.08 639.306 355.346 639.306C354.466 639.306 353.652 639.511 352.904 639.922C352.156 640.318 351.548 640.89 351.078 641.638C350.624 642.386 350.396 643.273 350.396 644.3ZM369.022 646.632L373.18 636.6H376.832L369.022 652.902L361.212 636.6H364.842L369.022 646.632Z" fill="#194979"/>
<rect x="143" y="338" width="315" height="104" rx="10" fill="#CDDBE9"/>
<path d="M186.841 384.6H189.987V400H186.841V384.6ZM188.755 387.262V384.6H191.813C193.03 384.6 194.064 384.798 194.915 385.194C195.78 385.59 196.44 386.155 196.895 386.888C197.35 387.621 197.577 388.494 197.577 389.506C197.577 390.503 197.35 391.376 196.895 392.124C196.44 392.857 195.78 393.422 194.915 393.818C194.064 394.214 193.03 394.412 191.813 394.412H188.755V391.75H191.813C192.649 391.75 193.309 391.559 193.793 391.178C194.277 390.797 194.519 390.239 194.519 389.506C194.519 388.758 194.277 388.201 193.793 387.834C193.309 387.453 192.649 387.262 191.813 387.262H188.755ZM203.509 392.828H206.831L211.847 400H208.129L203.509 392.828ZM200.011 384.6H203.157V400H200.011V384.6ZM201.925 387.284V384.6H205.181C206.398 384.6 207.432 384.805 208.283 385.216C209.134 385.627 209.786 386.199 210.241 386.932C210.696 387.665 210.923 388.523 210.923 389.506C210.923 390.474 210.696 391.332 210.241 392.08C209.786 392.813 209.134 393.385 208.283 393.796C207.432 394.207 206.398 394.412 205.181 394.412H201.925V391.904H204.983C205.54 391.904 206.017 391.816 206.413 391.64C206.824 391.449 207.139 391.185 207.359 390.848C207.579 390.496 207.689 390.078 207.689 389.594C207.689 389.11 207.579 388.699 207.359 388.362C207.139 388.01 206.824 387.746 206.413 387.57C206.017 387.379 205.54 387.284 204.983 387.284H201.925ZM216.095 392.3C216.095 393.283 216.301 394.155 216.711 394.918C217.122 395.681 217.687 396.282 218.405 396.722C219.124 397.162 219.96 397.382 220.913 397.382C221.867 397.382 222.703 397.162 223.421 396.722C224.14 396.282 224.697 395.681 225.093 394.918C225.504 394.155 225.709 393.283 225.709 392.3C225.709 391.317 225.511 390.445 225.115 389.682C224.719 388.919 224.162 388.318 223.443 387.878C222.725 387.438 221.881 387.218 220.913 387.218C219.96 387.218 219.124 387.438 218.405 387.878C217.687 388.318 217.122 388.919 216.711 389.682C216.301 390.445 216.095 391.317 216.095 392.3ZM212.773 392.3C212.773 391.127 212.979 390.056 213.389 389.088C213.8 388.105 214.372 387.255 215.105 386.536C215.839 385.817 216.697 385.267 217.679 384.886C218.677 384.49 219.755 384.292 220.913 384.292C222.087 384.292 223.165 384.49 224.147 384.886C225.13 385.267 225.988 385.817 226.721 386.536C227.469 387.255 228.041 388.105 228.437 389.088C228.848 390.056 229.053 391.127 229.053 392.3C229.053 393.459 228.848 394.537 228.437 395.534C228.041 396.517 227.477 397.375 226.743 398.108C226.025 398.841 225.167 399.413 224.169 399.824C223.187 400.22 222.101 400.418 220.913 400.418C219.725 400.418 218.633 400.22 217.635 399.824C216.653 399.413 215.795 398.841 215.061 398.108C214.328 397.375 213.763 396.517 213.367 395.534C212.971 394.537 212.773 393.459 212.773 392.3ZM233.509 387.35V384.6H240.395V387.35H233.509ZM233.509 393.422V390.804H240.175V393.422H233.509ZM231.485 384.6H234.521V400H231.485V384.6ZM245.304 400V397.338H253.07V400H245.304ZM245.304 387.262V384.6H253.07V387.262H245.304ZM245.304 393.136V390.518H252.63V393.136H245.304ZM243.28 384.6H246.316V400H243.28V384.6ZM257.513 394.83C257.836 395.402 258.188 395.901 258.569 396.326C258.965 396.751 259.398 397.081 259.867 397.316C260.336 397.551 260.842 397.668 261.385 397.668C262.016 397.668 262.529 397.507 262.925 397.184C263.321 396.861 263.519 396.421 263.519 395.864C263.519 395.38 263.394 394.991 263.145 394.698C262.91 394.405 262.551 394.148 262.067 393.928C261.598 393.693 261.018 393.444 260.329 393.18C259.962 393.048 259.537 392.872 259.053 392.652C258.584 392.417 258.136 392.124 257.711 391.772C257.286 391.405 256.934 390.965 256.655 390.452C256.376 389.924 256.237 389.293 256.237 388.56C256.237 387.68 256.457 386.925 256.897 386.294C257.352 385.649 257.96 385.157 258.723 384.82C259.5 384.468 260.366 384.292 261.319 384.292C262.302 384.292 263.145 384.461 263.849 384.798C264.568 385.121 265.162 385.539 265.631 386.052C266.115 386.551 266.489 387.071 266.753 387.614L264.289 388.978C264.084 388.611 263.834 388.281 263.541 387.988C263.262 387.68 262.94 387.438 262.573 387.262C262.206 387.071 261.788 386.976 261.319 386.976C260.703 386.976 260.241 387.123 259.933 387.416C259.625 387.695 259.471 388.025 259.471 388.406C259.471 388.787 259.596 389.125 259.845 389.418C260.094 389.697 260.476 389.968 260.989 390.232C261.502 390.481 262.148 390.738 262.925 391.002C263.424 391.178 263.9 391.398 264.355 391.662C264.824 391.926 265.242 392.249 265.609 392.63C265.99 392.997 266.284 393.437 266.489 393.95C266.709 394.449 266.819 395.028 266.819 395.688C266.819 396.436 266.672 397.103 266.379 397.69C266.086 398.277 265.682 398.775 265.169 399.186C264.656 399.582 264.076 399.883 263.431 400.088C262.8 400.308 262.133 400.418 261.429 400.418C260.49 400.418 259.61 400.242 258.789 399.89C257.982 399.523 257.278 399.032 256.677 398.416C256.076 397.8 255.606 397.133 255.269 396.414L257.513 394.83ZM277.942 384.6H281.528L276.226 393.62V400H273.036V393.642L267.734 384.6H271.32L274.62 390.804L277.942 384.6ZM284.566 392.3C284.566 393.283 284.771 394.155 285.182 394.918C285.593 395.681 286.157 396.282 286.876 396.722C287.595 397.162 288.431 397.382 289.384 397.382C290.337 397.382 291.173 397.162 291.892 396.722C292.611 396.282 293.168 395.681 293.564 394.918C293.975 394.155 294.18 393.283 294.18 392.3C294.18 391.317 293.982 390.445 293.586 389.682C293.19 388.919 292.633 388.318 291.914 387.878C291.195 387.438 290.352 387.218 289.384 387.218C288.431 387.218 287.595 387.438 286.876 387.878C286.157 388.318 285.593 388.919 285.182 389.682C284.771 390.445 284.566 391.317 284.566 392.3ZM281.244 392.3C281.244 391.127 281.449 390.056 281.86 389.088C282.271 388.105 282.843 387.255 283.576 386.536C284.309 385.817 285.167 385.267 286.15 384.886C287.147 384.49 288.225 384.292 289.384 384.292C290.557 384.292 291.635 384.49 292.618 384.886C293.601 385.267 294.459 385.817 295.192 386.536C295.94 387.255 296.512 388.105 296.908 389.088C297.319 390.056 297.524 391.127 297.524 392.3C297.524 393.459 297.319 394.537 296.908 395.534C296.512 396.517 295.947 397.375 295.214 398.108C294.495 398.841 293.637 399.413 292.64 399.824C291.657 400.22 290.572 400.418 289.384 400.418C288.196 400.418 287.103 400.22 286.106 399.824C285.123 399.413 284.265 398.841 283.532 398.108C282.799 397.375 282.234 396.517 281.838 395.534C281.442 394.537 281.244 393.459 281.244 392.3ZM310.912 384.6H313.948V400.77L302.992 390.452V400H299.956V383.83L310.912 394.148V384.6ZM319.318 400V397.338H327.084V400H319.318ZM319.318 387.262V384.6H327.084V387.262H319.318ZM319.318 393.136V390.518H326.644V393.136H319.318ZM317.294 384.6H320.33V400H317.294V384.6ZM330.185 384.6H333.331V397.25H339.469V400H330.185V384.6ZM350.396 392.3C350.396 393.312 350.624 394.199 351.078 394.962C351.548 395.71 352.156 396.289 352.904 396.7C353.652 397.096 354.466 397.294 355.346 397.294C356.08 397.294 356.732 397.199 357.304 397.008C357.876 396.817 358.39 396.561 358.844 396.238C359.314 395.915 359.717 395.563 360.054 395.182V398.724C359.424 399.223 358.734 399.611 357.986 399.89C357.253 400.169 356.322 400.308 355.192 400.308C354.019 400.308 352.926 400.117 351.914 399.736C350.917 399.355 350.044 398.805 349.296 398.086C348.563 397.367 347.991 396.524 347.58 395.556C347.184 394.573 346.986 393.488 346.986 392.3C346.986 391.112 347.184 390.034 347.58 389.066C347.991 388.083 348.563 387.233 349.296 386.514C350.044 385.795 350.917 385.245 351.914 384.864C352.926 384.483 354.019 384.292 355.192 384.292C356.322 384.292 357.253 384.431 357.986 384.71C358.734 384.989 359.424 385.377 360.054 385.876V389.418C359.717 389.037 359.314 388.685 358.844 388.362C358.39 388.039 357.876 387.783 357.304 387.592C356.732 387.401 356.08 387.306 355.346 387.306C354.466 387.306 353.652 387.511 352.904 387.922C352.156 388.318 351.548 388.89 351.078 389.638C350.624 390.386 350.396 391.273 350.396 392.3ZM369.022 394.632L373.18 384.6H376.832L369.022 400.902L361.212 384.6H364.842L369.022 394.632Z" fill="#194979"/>
<rect x="143" y="464" width="315" height="104" rx="10" fill="#CDDBE9"/>
<path d="M186.841 510.6H189.987V526H186.841V510.6ZM188.755 513.262V510.6H191.813C193.03 510.6 194.064 510.798 194.915 511.194C195.78 511.59 196.44 512.155 196.895 512.888C197.35 513.621 197.577 514.494 197.577 515.506C197.577 516.503 197.35 517.376 196.895 518.124C196.44 518.857 195.78 519.422 194.915 519.818C194.064 520.214 193.03 520.412 191.813 520.412H188.755V517.75H191.813C192.649 517.75 193.309 517.559 193.793 517.178C194.277 516.797 194.519 516.239 194.519 515.506C194.519 514.758 194.277 514.201 193.793 513.834C193.309 513.453 192.649 513.262 191.813 513.262H188.755ZM203.509 518.828H206.831L211.847 526H208.129L203.509 518.828ZM200.011 510.6H203.157V526H200.011V510.6ZM201.925 513.284V510.6H205.181C206.398 510.6 207.432 510.805 208.283 511.216C209.134 511.627 209.786 512.199 210.241 512.932C210.696 513.665 210.923 514.523 210.923 515.506C210.923 516.474 210.696 517.332 210.241 518.08C209.786 518.813 209.134 519.385 208.283 519.796C207.432 520.207 206.398 520.412 205.181 520.412H201.925V517.904H204.983C205.54 517.904 206.017 517.816 206.413 517.64C206.824 517.449 207.139 517.185 207.359 516.848C207.579 516.496 207.689 516.078 207.689 515.594C207.689 515.11 207.579 514.699 207.359 514.362C207.139 514.01 206.824 513.746 206.413 513.57C206.017 513.379 205.54 513.284 204.983 513.284H201.925ZM216.095 518.3C216.095 519.283 216.301 520.155 216.711 520.918C217.122 521.681 217.687 522.282 218.405 522.722C219.124 523.162 219.96 523.382 220.913 523.382C221.867 523.382 222.703 523.162 223.421 522.722C224.14 522.282 224.697 521.681 225.093 520.918C225.504 520.155 225.709 519.283 225.709 518.3C225.709 517.317 225.511 516.445 225.115 515.682C224.719 514.919 224.162 514.318 223.443 513.878C222.725 513.438 221.881 513.218 220.913 513.218C219.96 513.218 219.124 513.438 218.405 513.878C217.687 514.318 217.122 514.919 216.711 515.682C216.301 516.445 216.095 517.317 216.095 518.3ZM212.773 518.3C212.773 517.127 212.979 516.056 213.389 515.088C213.8 514.105 214.372 513.255 215.105 512.536C215.839 511.817 216.697 511.267 217.679 510.886C218.677 510.49 219.755 510.292 220.913 510.292C222.087 510.292 223.165 510.49 224.147 510.886C225.13 511.267 225.988 511.817 226.721 512.536C227.469 513.255 228.041 514.105 228.437 515.088C228.848 516.056 229.053 517.127 229.053 518.3C229.053 519.459 228.848 520.537 228.437 521.534C228.041 522.517 227.477 523.375 226.743 524.108C226.025 524.841 225.167 525.413 224.169 525.824C223.187 526.22 222.101 526.418 220.913 526.418C219.725 526.418 218.633 526.22 217.635 525.824C216.653 525.413 215.795 524.841 215.061 524.108C214.328 523.375 213.763 522.517 213.367 521.534C212.971 520.537 212.773 519.459 212.773 518.3ZM233.509 513.35V510.6H240.395V513.35H233.509ZM233.509 519.422V516.804H240.175V519.422H233.509ZM231.485 510.6H234.521V526H231.485V510.6ZM245.304 526V523.338H253.07V526H245.304ZM245.304 513.262V510.6H253.07V513.262H245.304ZM245.304 519.136V516.518H252.63V519.136H245.304ZM243.28 510.6H246.316V526H243.28V510.6ZM257.513 520.83C257.836 521.402 258.188 521.901 258.569 522.326C258.965 522.751 259.398 523.081 259.867 523.316C260.336 523.551 260.842 523.668 261.385 523.668C262.016 523.668 262.529 523.507 262.925 523.184C263.321 522.861 263.519 522.421 263.519 521.864C263.519 521.38 263.394 520.991 263.145 520.698C262.91 520.405 262.551 520.148 262.067 519.928C261.598 519.693 261.018 519.444 260.329 519.18C259.962 519.048 259.537 518.872 259.053 518.652C258.584 518.417 258.136 518.124 257.711 517.772C257.286 517.405 256.934 516.965 256.655 516.452C256.376 515.924 256.237 515.293 256.237 514.56C256.237 513.68 256.457 512.925 256.897 512.294C257.352 511.649 257.96 511.157 258.723 510.82C259.5 510.468 260.366 510.292 261.319 510.292C262.302 510.292 263.145 510.461 263.849 510.798C264.568 511.121 265.162 511.539 265.631 512.052C266.115 512.551 266.489 513.071 266.753 513.614L264.289 514.978C264.084 514.611 263.834 514.281 263.541 513.988C263.262 513.68 262.94 513.438 262.573 513.262C262.206 513.071 261.788 512.976 261.319 512.976C260.703 512.976 260.241 513.123 259.933 513.416C259.625 513.695 259.471 514.025 259.471 514.406C259.471 514.787 259.596 515.125 259.845 515.418C260.094 515.697 260.476 515.968 260.989 516.232C261.502 516.481 262.148 516.738 262.925 517.002C263.424 517.178 263.9 517.398 264.355 517.662C264.824 517.926 265.242 518.249 265.609 518.63C265.99 518.997 266.284 519.437 266.489 519.95C266.709 520.449 266.819 521.028 266.819 521.688C266.819 522.436 266.672 523.103 266.379 523.69C266.086 524.277 265.682 524.775 265.169 525.186C264.656 525.582 264.076 525.883 263.431 526.088C262.8 526.308 262.133 526.418 261.429 526.418C260.49 526.418 259.61 526.242 258.789 525.89C257.982 525.523 257.278 525.032 256.677 524.416C256.076 523.8 255.606 523.133 255.269 522.414L257.513 520.83ZM277.942 510.6H281.528L276.226 519.62V526H273.036V519.642L267.734 510.6H271.32L274.62 516.804L277.942 510.6ZM284.566 518.3C284.566 519.283 284.771 520.155 285.182 520.918C285.593 521.681 286.157 522.282 286.876 522.722C287.595 523.162 288.431 523.382 289.384 523.382C290.337 523.382 291.173 523.162 291.892 522.722C292.611 522.282 293.168 521.681 293.564 520.918C293.975 520.155 294.18 519.283 294.18 518.3C294.18 517.317 293.982 516.445 293.586 515.682C293.19 514.919 292.633 514.318 291.914 513.878C291.195 513.438 290.352 513.218 289.384 513.218C288.431 513.218 287.595 513.438 286.876 513.878C286.157 514.318 285.593 514.919 285.182 515.682C284.771 516.445 284.566 517.317 284.566 518.3ZM281.244 518.3C281.244 517.127 281.449 516.056 281.86 515.088C282.271 514.105 282.843 513.255 283.576 512.536C284.309 511.817 285.167 511.267 286.15 510.886C287.147 510.49 288.225 510.292 289.384 510.292C290.557 510.292 291.635 510.49 292.618 510.886C293.601 511.267 294.459 511.817 295.192 512.536C295.94 513.255 296.512 514.105 296.908 515.088C297.319 516.056 297.524 517.127 297.524 518.3C297.524 519.459 297.319 520.537 296.908 521.534C296.512 522.517 295.947 523.375 295.214 524.108C294.495 524.841 293.637 525.413 292.64 525.824C291.657 526.22 290.572 526.418 289.384 526.418C288.196 526.418 287.103 526.22 286.106 525.824C285.123 525.413 284.265 524.841 283.532 524.108C282.799 523.375 282.234 522.517 281.838 521.534C281.442 520.537 281.244 519.459 281.244 518.3ZM310.912 510.6H313.948V526.77L302.992 516.452V526H299.956V509.83L310.912 520.148V510.6ZM319.318 526V523.338H327.084V526H319.318ZM319.318 513.262V510.6H327.084V513.262H319.318ZM319.318 519.136V516.518H326.644V519.136H319.318ZM317.294 510.6H320.33V526H317.294V510.6ZM330.185 510.6H333.331V523.25H339.469V526H330.185V510.6ZM350.396 518.3C350.396 519.312 350.624 520.199 351.078 520.962C351.548 521.71 352.156 522.289 352.904 522.7C353.652 523.096 354.466 523.294 355.346 523.294C356.08 523.294 356.732 523.199 357.304 523.008C357.876 522.817 358.39 522.561 358.844 522.238C359.314 521.915 359.717 521.563 360.054 521.182V524.724C359.424 525.223 358.734 525.611 357.986 525.89C357.253 526.169 356.322 526.308 355.192 526.308C354.019 526.308 352.926 526.117 351.914 525.736C350.917 525.355 350.044 524.805 349.296 524.086C348.563 523.367 347.991 522.524 347.58 521.556C347.184 520.573 346.986 519.488 346.986 518.3C346.986 517.112 347.184 516.034 347.58 515.066C347.991 514.083 348.563 513.233 349.296 512.514C350.044 511.795 350.917 511.245 351.914 510.864C352.926 510.483 354.019 510.292 355.192 510.292C356.322 510.292 357.253 510.431 357.986 510.71C358.734 510.989 359.424 511.377 360.054 511.876V515.418C359.717 515.037 359.314 514.685 358.844 514.362C358.39 514.039 357.876 513.783 357.304 513.592C356.732 513.401 356.08 513.306 355.346 513.306C354.466 513.306 353.652 513.511 352.904 513.922C352.156 514.318 351.548 514.89 351.078 515.638C350.624 516.386 350.396 517.273 350.396 518.3ZM369.022 520.632L373.18 510.6H376.832L369.022 526.902L361.212 510.6H364.842L369.022 520.632Z" fill="#194979"/>
<rect x="577" y="274" width="315" height="104" rx="10" fill="#CDDBE9"/>
<path d="M620.841 320.6H623.987V336H620.841V320.6ZM622.755 323.262V320.6H625.813C627.03 320.6 628.064 320.798 628.915 321.194C629.78 321.59 630.44 322.155 630.895 322.888C631.35 323.621 631.577 324.494 631.577 325.506C631.577 326.503 631.35 327.376 630.895 328.124C630.44 328.857 629.78 329.422 628.915 329.818C628.064 330.214 627.03 330.412 625.813 330.412H622.755V327.75H625.813C626.649 327.75 627.309 327.559 627.793 327.178C628.277 326.797 628.519 326.239 628.519 325.506C628.519 324.758 628.277 324.201 627.793 323.834C627.309 323.453 626.649 323.262 625.813 323.262H622.755ZM637.509 328.828H640.831L645.847 336H642.129L637.509 328.828ZM634.011 320.6H637.157V336H634.011V320.6ZM635.925 323.284V320.6H639.181C640.398 320.6 641.432 320.805 642.283 321.216C643.134 321.627 643.786 322.199 644.241 322.932C644.696 323.665 644.923 324.523 644.923 325.506C644.923 326.474 644.696 327.332 644.241 328.08C643.786 328.813 643.134 329.385 642.283 329.796C641.432 330.207 640.398 330.412 639.181 330.412H635.925V327.904H638.983C639.54 327.904 640.017 327.816 640.413 327.64C640.824 327.449 641.139 327.185 641.359 326.848C641.579 326.496 641.689 326.078 641.689 325.594C641.689 325.11 641.579 324.699 641.359 324.362C641.139 324.01 640.824 323.746 640.413 323.57C640.017 323.379 639.54 323.284 638.983 323.284H635.925ZM650.095 328.3C650.095 329.283 650.301 330.155 650.711 330.918C651.122 331.681 651.687 332.282 652.405 332.722C653.124 333.162 653.96 333.382 654.913 333.382C655.867 333.382 656.703 333.162 657.421 332.722C658.14 332.282 658.697 331.681 659.093 330.918C659.504 330.155 659.709 329.283 659.709 328.3C659.709 327.317 659.511 326.445 659.115 325.682C658.719 324.919 658.162 324.318 657.443 323.878C656.725 323.438 655.881 323.218 654.913 323.218C653.96 323.218 653.124 323.438 652.405 323.878C651.687 324.318 651.122 324.919 650.711 325.682C650.301 326.445 650.095 327.317 650.095 328.3ZM646.773 328.3C646.773 327.127 646.979 326.056 647.389 325.088C647.8 324.105 648.372 323.255 649.105 322.536C649.839 321.817 650.697 321.267 651.679 320.886C652.677 320.49 653.755 320.292 654.913 320.292C656.087 320.292 657.165 320.49 658.147 320.886C659.13 321.267 659.988 321.817 660.721 322.536C661.469 323.255 662.041 324.105 662.437 325.088C662.848 326.056 663.053 327.127 663.053 328.3C663.053 329.459 662.848 330.537 662.437 331.534C662.041 332.517 661.477 333.375 660.743 334.108C660.025 334.841 659.167 335.413 658.169 335.824C657.187 336.22 656.101 336.418 654.913 336.418C653.725 336.418 652.633 336.22 651.635 335.824C650.653 335.413 649.795 334.841 649.061 334.108C648.328 333.375 647.763 332.517 647.367 331.534C646.971 330.537 646.773 329.459 646.773 328.3ZM667.509 323.35V320.6H674.395V323.35H667.509ZM667.509 329.422V326.804H674.175V329.422H667.509ZM665.485 320.6H668.521V336H665.485V320.6ZM679.304 336V333.338H687.07V336H679.304ZM679.304 323.262V320.6H687.07V323.262H679.304ZM679.304 329.136V326.518H686.63V329.136H679.304ZM677.28 320.6H680.316V336H677.28V320.6ZM691.513 330.83C691.836 331.402 692.188 331.901 692.569 332.326C692.965 332.751 693.398 333.081 693.867 333.316C694.336 333.551 694.842 333.668 695.385 333.668C696.016 333.668 696.529 333.507 696.925 333.184C697.321 332.861 697.519 332.421 697.519 331.864C697.519 331.38 697.394 330.991 697.145 330.698C696.91 330.405 696.551 330.148 696.067 329.928C695.598 329.693 695.018 329.444 694.329 329.18C693.962 329.048 693.537 328.872 693.053 328.652C692.584 328.417 692.136 328.124 691.711 327.772C691.286 327.405 690.934 326.965 690.655 326.452C690.376 325.924 690.237 325.293 690.237 324.56C690.237 323.68 690.457 322.925 690.897 322.294C691.352 321.649 691.96 321.157 692.723 320.82C693.5 320.468 694.366 320.292 695.319 320.292C696.302 320.292 697.145 320.461 697.849 320.798C698.568 321.121 699.162 321.539 699.631 322.052C700.115 322.551 700.489 323.071 700.753 323.614L698.289 324.978C698.084 324.611 697.834 324.281 697.541 323.988C697.262 323.68 696.94 323.438 696.573 323.262C696.206 323.071 695.788 322.976 695.319 322.976C694.703 322.976 694.241 323.123 693.933 323.416C693.625 323.695 693.471 324.025 693.471 324.406C693.471 324.787 693.596 325.125 693.845 325.418C694.094 325.697 694.476 325.968 694.989 326.232C695.502 326.481 696.148 326.738 696.925 327.002C697.424 327.178 697.9 327.398 698.355 327.662C698.824 327.926 699.242 328.249 699.609 328.63C699.99 328.997 700.284 329.437 700.489 329.95C700.709 330.449 700.819 331.028 700.819 331.688C700.819 332.436 700.672 333.103 700.379 333.69C700.086 334.277 699.682 334.775 699.169 335.186C698.656 335.582 698.076 335.883 697.431 336.088C696.8 336.308 696.133 336.418 695.429 336.418C694.49 336.418 693.61 336.242 692.789 335.89C691.982 335.523 691.278 335.032 690.677 334.416C690.076 333.8 689.606 333.133 689.269 332.414L691.513 330.83ZM711.942 320.6H715.528L710.226 329.62V336H707.036V329.642L701.734 320.6H705.32L708.62 326.804L711.942 320.6ZM718.566 328.3C718.566 329.283 718.771 330.155 719.182 330.918C719.593 331.681 720.157 332.282 720.876 332.722C721.595 333.162 722.431 333.382 723.384 333.382C724.337 333.382 725.173 333.162 725.892 332.722C726.611 332.282 727.168 331.681 727.564 330.918C727.975 330.155 728.18 329.283 728.18 328.3C728.18 327.317 727.982 326.445 727.586 325.682C727.19 324.919 726.633 324.318 725.914 323.878C725.195 323.438 724.352 323.218 723.384 323.218C722.431 323.218 721.595 323.438 720.876 323.878C720.157 324.318 719.593 324.919 719.182 325.682C718.771 326.445 718.566 327.317 718.566 328.3ZM715.244 328.3C715.244 327.127 715.449 326.056 715.86 325.088C716.271 324.105 716.843 323.255 717.576 322.536C718.309 321.817 719.167 321.267 720.15 320.886C721.147 320.49 722.225 320.292 723.384 320.292C724.557 320.292 725.635 320.49 726.618 320.886C727.601 321.267 728.459 321.817 729.192 322.536C729.94 323.255 730.512 324.105 730.908 325.088C731.319 326.056 731.524 327.127 731.524 328.3C731.524 329.459 731.319 330.537 730.908 331.534C730.512 332.517 729.947 333.375 729.214 334.108C728.495 334.841 727.637 335.413 726.64 335.824C725.657 336.22 724.572 336.418 723.384 336.418C722.196 336.418 721.103 336.22 720.106 335.824C719.123 335.413 718.265 334.841 717.532 334.108C716.799 333.375 716.234 332.517 715.838 331.534C715.442 330.537 715.244 329.459 715.244 328.3ZM744.912 320.6H747.948V336.77L736.992 326.452V336H733.956V319.83L744.912 330.148V320.6ZM753.318 336V333.338H761.084V336H753.318ZM753.318 323.262V320.6H761.084V323.262H753.318ZM753.318 329.136V326.518H760.644V329.136H753.318ZM751.294 320.6H754.33V336H751.294V320.6ZM764.185 320.6H767.331V333.25H773.469V336H764.185V320.6ZM784.396 328.3C784.396 329.312 784.624 330.199 785.078 330.962C785.548 331.71 786.156 332.289 786.904 332.7C787.652 333.096 788.466 333.294 789.346 333.294C790.08 333.294 790.732 333.199 791.304 333.008C791.876 332.817 792.39 332.561 792.844 332.238C793.314 331.915 793.717 331.563 794.054 331.182V334.724C793.424 335.223 792.734 335.611 791.986 335.89C791.253 336.169 790.322 336.308 789.192 336.308C788.019 336.308 786.926 336.117 785.914 335.736C784.917 335.355 784.044 334.805 783.296 334.086C782.563 333.367 781.991 332.524 781.58 331.556C781.184 330.573 780.986 329.488 780.986 328.3C780.986 327.112 781.184 326.034 781.58 325.066C781.991 324.083 782.563 323.233 783.296 322.514C784.044 321.795 784.917 321.245 785.914 320.864C786.926 320.483 788.019 320.292 789.192 320.292C790.322 320.292 791.253 320.431 791.986 320.71C792.734 320.989 793.424 321.377 794.054 321.876V325.418C793.717 325.037 793.314 324.685 792.844 324.362C792.39 324.039 791.876 323.783 791.304 323.592C790.732 323.401 790.08 323.306 789.346 323.306C788.466 323.306 787.652 323.511 786.904 323.922C786.156 324.318 785.548 324.89 785.078 325.638C784.624 326.386 784.396 327.273 784.396 328.3ZM803.022 330.632L807.18 320.6H810.832L803.022 336.902L795.212 320.6H798.842L803.022 330.632Z" fill="#194979"/>
<rect x="577" y="400" width="315" height="104" rx="10" fill="#CDDBE9"/>
<path d="M620.841 446.6H623.987V462H620.841V446.6ZM622.755 449.262V446.6H625.813C627.03 446.6 628.064 446.798 628.915 447.194C629.78 447.59 630.44 448.155 630.895 448.888C631.35 449.621 631.577 450.494 631.577 451.506C631.577 452.503 631.35 453.376 630.895 454.124C630.44 454.857 629.78 455.422 628.915 455.818C628.064 456.214 627.03 456.412 625.813 456.412H622.755V453.75H625.813C626.649 453.75 627.309 453.559 627.793 453.178C628.277 452.797 628.519 452.239 628.519 451.506C628.519 450.758 628.277 450.201 627.793 449.834C627.309 449.453 626.649 449.262 625.813 449.262H622.755ZM637.509 454.828H640.831L645.847 462H642.129L637.509 454.828ZM634.011 446.6H637.157V462H634.011V446.6ZM635.925 449.284V446.6H639.181C640.398 446.6 641.432 446.805 642.283 447.216C643.134 447.627 643.786 448.199 644.241 448.932C644.696 449.665 644.923 450.523 644.923 451.506C644.923 452.474 644.696 453.332 644.241 454.08C643.786 454.813 643.134 455.385 642.283 455.796C641.432 456.207 640.398 456.412 639.181 456.412H635.925V453.904H638.983C639.54 453.904 640.017 453.816 640.413 453.64C640.824 453.449 641.139 453.185 641.359 452.848C641.579 452.496 641.689 452.078 641.689 451.594C641.689 451.11 641.579 450.699 641.359 450.362C641.139 450.01 640.824 449.746 640.413 449.57C640.017 449.379 639.54 449.284 638.983 449.284H635.925ZM650.095 454.3C650.095 455.283 650.301 456.155 650.711 456.918C651.122 457.681 651.687 458.282 652.405 458.722C653.124 459.162 653.96 459.382 654.913 459.382C655.867 459.382 656.703 459.162 657.421 458.722C658.14 458.282 658.697 457.681 659.093 456.918C659.504 456.155 659.709 455.283 659.709 454.3C659.709 453.317 659.511 452.445 659.115 451.682C658.719 450.919 658.162 450.318 657.443 449.878C656.725 449.438 655.881 449.218 654.913 449.218C653.96 449.218 653.124 449.438 652.405 449.878C651.687 450.318 651.122 450.919 650.711 451.682C650.301 452.445 650.095 453.317 650.095 454.3ZM646.773 454.3C646.773 453.127 646.979 452.056 647.389 451.088C647.8 450.105 648.372 449.255 649.105 448.536C649.839 447.817 650.697 447.267 651.679 446.886C652.677 446.49 653.755 446.292 654.913 446.292C656.087 446.292 657.165 446.49 658.147 446.886C659.13 447.267 659.988 447.817 660.721 448.536C661.469 449.255 662.041 450.105 662.437 451.088C662.848 452.056 663.053 453.127 663.053 454.3C663.053 455.459 662.848 456.537 662.437 457.534C662.041 458.517 661.477 459.375 660.743 460.108C660.025 460.841 659.167 461.413 658.169 461.824C657.187 462.22 656.101 462.418 654.913 462.418C653.725 462.418 652.633 462.22 651.635 461.824C650.653 461.413 649.795 460.841 649.061 460.108C648.328 459.375 647.763 458.517 647.367 457.534C646.971 456.537 646.773 455.459 646.773 454.3ZM667.509 449.35V446.6H674.395V449.35H667.509ZM667.509 455.422V452.804H674.175V455.422H667.509ZM665.485 446.6H668.521V462H665.485V446.6ZM679.304 462V459.338H687.07V462H679.304ZM679.304 449.262V446.6H687.07V449.262H679.304ZM679.304 455.136V452.518H686.63V455.136H679.304ZM677.28 446.6H680.316V462H677.28V446.6ZM691.513 456.83C691.836 457.402 692.188 457.901 692.569 458.326C692.965 458.751 693.398 459.081 693.867 459.316C694.336 459.551 694.842 459.668 695.385 459.668C696.016 459.668 696.529 459.507 696.925 459.184C697.321 458.861 697.519 458.421 697.519 457.864C697.519 457.38 697.394 456.991 697.145 456.698C696.91 456.405 696.551 456.148 696.067 455.928C695.598 455.693 695.018 455.444 694.329 455.18C693.962 455.048 693.537 454.872 693.053 454.652C692.584 454.417 692.136 454.124 691.711 453.772C691.286 453.405 690.934 452.965 690.655 452.452C690.376 451.924 690.237 451.293 690.237 450.56C690.237 449.68 690.457 448.925 690.897 448.294C691.352 447.649 691.96 447.157 692.723 446.82C693.5 446.468 694.366 446.292 695.319 446.292C696.302 446.292 697.145 446.461 697.849 446.798C698.568 447.121 699.162 447.539 699.631 448.052C700.115 448.551 700.489 449.071 700.753 449.614L698.289 450.978C698.084 450.611 697.834 450.281 697.541 449.988C697.262 449.68 696.94 449.438 696.573 449.262C696.206 449.071 695.788 448.976 695.319 448.976C694.703 448.976 694.241 449.123 693.933 449.416C693.625 449.695 693.471 450.025 693.471 450.406C693.471 450.787 693.596 451.125 693.845 451.418C694.094 451.697 694.476 451.968 694.989 452.232C695.502 452.481 696.148 452.738 696.925 453.002C697.424 453.178 697.9 453.398 698.355 453.662C698.824 453.926 699.242 454.249 699.609 454.63C699.99 454.997 700.284 455.437 700.489 455.95C700.709 456.449 700.819 457.028 700.819 457.688C700.819 458.436 700.672 459.103 700.379 459.69C700.086 460.277 699.682 460.775 699.169 461.186C698.656 461.582 698.076 461.883 697.431 462.088C696.8 462.308 696.133 462.418 695.429 462.418C694.49 462.418 693.61 462.242 692.789 461.89C691.982 461.523 691.278 461.032 690.677 460.416C690.076 459.8 689.606 459.133 689.269 458.414L691.513 456.83ZM711.942 446.6H715.528L710.226 455.62V462H707.036V455.642L701.734 446.6H705.32L708.62 452.804L711.942 446.6ZM718.566 454.3C718.566 455.283 718.771 456.155 719.182 456.918C719.593 457.681 720.157 458.282 720.876 458.722C721.595 459.162 722.431 459.382 723.384 459.382C724.337 459.382 725.173 459.162 725.892 458.722C726.611 458.282 727.168 457.681 727.564 456.918C727.975 456.155 728.18 455.283 728.18 454.3C728.18 453.317 727.982 452.445 727.586 451.682C727.19 450.919 726.633 450.318 725.914 449.878C725.195 449.438 724.352 449.218 723.384 449.218C722.431 449.218 721.595 449.438 720.876 449.878C720.157 450.318 719.593 450.919 719.182 451.682C718.771 452.445 718.566 453.317 718.566 454.3ZM715.244 454.3C715.244 453.127 715.449 452.056 715.86 451.088C716.271 450.105 716.843 449.255 717.576 448.536C718.309 447.817 719.167 447.267 720.15 446.886C721.147 446.49 722.225 446.292 723.384 446.292C724.557 446.292 725.635 446.49 726.618 446.886C727.601 447.267 728.459 447.817 729.192 448.536C729.94 449.255 730.512 450.105 730.908 451.088C731.319 452.056 731.524 453.127 731.524 454.3C731.524 455.459 731.319 456.537 730.908 457.534C730.512 458.517 729.947 459.375 729.214 460.108C728.495 460.841 727.637 461.413 726.64 461.824C725.657 462.22 724.572 462.418 723.384 462.418C722.196 462.418 721.103 462.22 720.106 461.824C719.123 461.413 718.265 460.841 717.532 460.108C716.799 459.375 716.234 458.517 715.838 457.534C715.442 456.537 715.244 455.459 715.244 454.3ZM744.912 446.6H747.948V462.77L736.992 452.452V462H733.956V445.83L744.912 456.148V446.6ZM753.318 462V459.338H761.084V462H753.318ZM753.318 449.262V446.6H761.084V449.262H753.318ZM753.318 455.136V452.518H760.644V455.136H753.318ZM751.294 446.6H754.33V462H751.294V446.6ZM764.185 446.6H767.331V459.25H773.469V462H764.185V446.6ZM784.396 454.3C784.396 455.312 784.624 456.199 785.078 456.962C785.548 457.71 786.156 458.289 786.904 458.7C787.652 459.096 788.466 459.294 789.346 459.294C790.08 459.294 790.732 459.199 791.304 459.008C791.876 458.817 792.39 458.561 792.844 458.238C793.314 457.915 793.717 457.563 794.054 457.182V460.724C793.424 461.223 792.734 461.611 791.986 461.89C791.253 462.169 790.322 462.308 789.192 462.308C788.019 462.308 786.926 462.117 785.914 461.736C784.917 461.355 784.044 460.805 783.296 460.086C782.563 459.367 781.991 458.524 781.58 457.556C781.184 456.573 780.986 455.488 780.986 454.3C780.986 453.112 781.184 452.034 781.58 451.066C781.991 450.083 782.563 449.233 783.296 448.514C784.044 447.795 784.917 447.245 785.914 446.864C786.926 446.483 788.019 446.292 789.192 446.292C790.322 446.292 791.253 446.431 791.986 446.71C792.734 446.989 793.424 447.377 794.054 447.876V451.418C793.717 451.037 793.314 450.685 792.844 450.362C792.39 450.039 791.876 449.783 791.304 449.592C790.732 449.401 790.08 449.306 789.346 449.306C788.466 449.306 787.652 449.511 786.904 449.922C786.156 450.318 785.548 450.89 785.078 451.638C784.624 452.386 784.396 453.273 784.396 454.3ZM803.022 456.632L807.18 446.6H810.832L803.022 462.902L795.212 446.6H798.842L803.022 456.632Z" fill="#194979"/>
<rect x="1011" y="338" width="315" height="104" rx="10" fill="#CDDBE9"/>
<path d="M1054.84 384.6H1057.99V400H1054.84V384.6ZM1056.75 387.262V384.6H1059.81C1061.03 384.6 1062.06 384.798 1062.91 385.194C1063.78 385.59 1064.44 386.155 1064.89 386.888C1065.35 387.621 1065.58 388.494 1065.58 389.506C1065.58 390.503 1065.35 391.376 1064.89 392.124C1064.44 392.857 1063.78 393.422 1062.91 393.818C1062.06 394.214 1061.03 394.412 1059.81 394.412H1056.75V391.75H1059.81C1060.65 391.75 1061.31 391.559 1061.79 391.178C1062.28 390.797 1062.52 390.239 1062.52 389.506C1062.52 388.758 1062.28 388.201 1061.79 387.834C1061.31 387.453 1060.65 387.262 1059.81 387.262H1056.75ZM1071.51 392.828H1074.83L1079.85 400H1076.13L1071.51 392.828ZM1068.01 384.6H1071.16V400H1068.01V384.6ZM1069.92 387.284V384.6H1073.18C1074.4 384.6 1075.43 384.805 1076.28 385.216C1077.13 385.627 1077.79 386.199 1078.24 386.932C1078.7 387.665 1078.92 388.523 1078.92 389.506C1078.92 390.474 1078.7 391.332 1078.24 392.08C1077.79 392.813 1077.13 393.385 1076.28 393.796C1075.43 394.207 1074.4 394.412 1073.18 394.412H1069.92V391.904H1072.98C1073.54 391.904 1074.02 391.816 1074.41 391.64C1074.82 391.449 1075.14 391.185 1075.36 390.848C1075.58 390.496 1075.69 390.078 1075.69 389.594C1075.69 389.11 1075.58 388.699 1075.36 388.362C1075.14 388.01 1074.82 387.746 1074.41 387.57C1074.02 387.379 1073.54 387.284 1072.98 387.284H1069.92ZM1084.1 392.3C1084.1 393.283 1084.3 394.155 1084.71 394.918C1085.12 395.681 1085.69 396.282 1086.41 396.722C1087.12 397.162 1087.96 397.382 1088.91 397.382C1089.87 397.382 1090.7 397.162 1091.42 396.722C1092.14 396.282 1092.7 395.681 1093.09 394.918C1093.5 394.155 1093.71 393.283 1093.71 392.3C1093.71 391.317 1093.51 390.445 1093.12 389.682C1092.72 388.919 1092.16 388.318 1091.44 387.878C1090.72 387.438 1089.88 387.218 1088.91 387.218C1087.96 387.218 1087.12 387.438 1086.41 387.878C1085.69 388.318 1085.12 388.919 1084.71 389.682C1084.3 390.445 1084.1 391.317 1084.1 392.3ZM1080.77 392.3C1080.77 391.127 1080.98 390.056 1081.39 389.088C1081.8 388.105 1082.37 387.255 1083.11 386.536C1083.84 385.817 1084.7 385.267 1085.68 384.886C1086.68 384.49 1087.75 384.292 1088.91 384.292C1090.09 384.292 1091.16 384.49 1092.15 384.886C1093.13 385.267 1093.99 385.817 1094.72 386.536C1095.47 387.255 1096.04 388.105 1096.44 389.088C1096.85 390.056 1097.05 391.127 1097.05 392.3C1097.05 393.459 1096.85 394.537 1096.44 395.534C1096.04 396.517 1095.48 397.375 1094.74 398.108C1094.02 398.841 1093.17 399.413 1092.17 399.824C1091.19 400.22 1090.1 400.418 1088.91 400.418C1087.73 400.418 1086.63 400.22 1085.64 399.824C1084.65 399.413 1083.79 398.841 1083.06 398.108C1082.33 397.375 1081.76 396.517 1081.37 395.534C1080.97 394.537 1080.77 393.459 1080.77 392.3ZM1101.51 387.35V384.6H1108.4V387.35H1101.51ZM1101.51 393.422V390.804H1108.18V393.422H1101.51ZM1099.49 384.6H1102.52V400H1099.49V384.6ZM1113.3 400V397.338H1121.07V400H1113.3ZM1113.3 387.262V384.6H1121.07V387.262H1113.3ZM1113.3 393.136V390.518H1120.63V393.136H1113.3ZM1111.28 384.6H1114.32V400H1111.28V384.6ZM1125.51 394.83C1125.84 395.402 1126.19 395.901 1126.57 396.326C1126.97 396.751 1127.4 397.081 1127.87 397.316C1128.34 397.551 1128.84 397.668 1129.39 397.668C1130.02 397.668 1130.53 397.507 1130.93 397.184C1131.32 396.861 1131.52 396.421 1131.52 395.864C1131.52 395.38 1131.39 394.991 1131.15 394.698C1130.91 394.405 1130.55 394.148 1130.07 393.928C1129.6 393.693 1129.02 393.444 1128.33 393.18C1127.96 393.048 1127.54 392.872 1127.05 392.652C1126.58 392.417 1126.14 392.124 1125.71 391.772C1125.29 391.405 1124.93 390.965 1124.66 390.452C1124.38 389.924 1124.24 389.293 1124.24 388.56C1124.24 387.68 1124.46 386.925 1124.9 386.294C1125.35 385.649 1125.96 385.157 1126.72 384.82C1127.5 384.468 1128.37 384.292 1129.32 384.292C1130.3 384.292 1131.15 384.461 1131.85 384.798C1132.57 385.121 1133.16 385.539 1133.63 386.052C1134.12 386.551 1134.49 387.071 1134.75 387.614L1132.29 388.978C1132.08 388.611 1131.83 388.281 1131.54 387.988C1131.26 387.68 1130.94 387.438 1130.57 387.262C1130.21 387.071 1129.79 386.976 1129.32 386.976C1128.7 386.976 1128.24 387.123 1127.93 387.416C1127.63 387.695 1127.47 388.025 1127.47 388.406C1127.47 388.787 1127.6 389.125 1127.85 389.418C1128.09 389.697 1128.48 389.968 1128.99 390.232C1129.5 390.481 1130.15 390.738 1130.93 391.002C1131.42 391.178 1131.9 391.398 1132.36 391.662C1132.82 391.926 1133.24 392.249 1133.61 392.63C1133.99 392.997 1134.28 393.437 1134.49 393.95C1134.71 394.449 1134.82 395.028 1134.82 395.688C1134.82 396.436 1134.67 397.103 1134.38 397.69C1134.09 398.277 1133.68 398.775 1133.17 399.186C1132.66 399.582 1132.08 399.883 1131.43 400.088C1130.8 400.308 1130.13 400.418 1129.43 400.418C1128.49 400.418 1127.61 400.242 1126.79 399.89C1125.98 399.523 1125.28 399.032 1124.68 398.416C1124.08 397.8 1123.61 397.133 1123.27 396.414L1125.51 394.83ZM1145.94 384.6H1149.53L1144.23 393.62V400H1141.04V393.642L1135.73 384.6H1139.32L1142.62 390.804L1145.94 384.6ZM1152.57 392.3C1152.57 393.283 1152.77 394.155 1153.18 394.918C1153.59 395.681 1154.16 396.282 1154.88 396.722C1155.59 397.162 1156.43 397.382 1157.38 397.382C1158.34 397.382 1159.17 397.162 1159.89 396.722C1160.61 396.282 1161.17 395.681 1161.56 394.918C1161.97 394.155 1162.18 393.283 1162.18 392.3C1162.18 391.317 1161.98 390.445 1161.59 389.682C1161.19 388.919 1160.63 388.318 1159.91 387.878C1159.2 387.438 1158.35 387.218 1157.38 387.218C1156.43 387.218 1155.59 387.438 1154.88 387.878C1154.16 388.318 1153.59 388.919 1153.18 389.682C1152.77 390.445 1152.57 391.317 1152.57 392.3ZM1149.24 392.3C1149.24 391.127 1149.45 390.056 1149.86 389.088C1150.27 388.105 1150.84 387.255 1151.58 386.536C1152.31 385.817 1153.17 385.267 1154.15 384.886C1155.15 384.49 1156.23 384.292 1157.38 384.292C1158.56 384.292 1159.64 384.49 1160.62 384.886C1161.6 385.267 1162.46 385.817 1163.19 386.536C1163.94 387.255 1164.51 388.105 1164.91 389.088C1165.32 390.056 1165.52 391.127 1165.52 392.3C1165.52 393.459 1165.32 394.537 1164.91 395.534C1164.51 396.517 1163.95 397.375 1163.21 398.108C1162.5 398.841 1161.64 399.413 1160.64 399.824C1159.66 400.22 1158.57 400.418 1157.38 400.418C1156.2 400.418 1155.1 400.22 1154.11 399.824C1153.12 399.413 1152.27 398.841 1151.53 398.108C1150.8 397.375 1150.23 396.517 1149.84 395.534C1149.44 394.537 1149.24 393.459 1149.24 392.3ZM1178.91 384.6H1181.95V400.77L1170.99 390.452V400H1167.96V383.83L1178.91 394.148V384.6ZM1187.32 400V397.338H1195.08V400H1187.32ZM1187.32 387.262V384.6H1195.08V387.262H1187.32ZM1187.32 393.136V390.518H1194.64V393.136H1187.32ZM1185.29 384.6H1188.33V400H1185.29V384.6ZM1198.18 384.6H1201.33V397.25H1207.47V400H1198.18V384.6ZM1218.4 392.3C1218.4 393.312 1218.62 394.199 1219.08 394.962C1219.55 395.71 1220.16 396.289 1220.9 396.7C1221.65 397.096 1222.47 397.294 1223.35 397.294C1224.08 397.294 1224.73 397.199 1225.3 397.008C1225.88 396.817 1226.39 396.561 1226.84 396.238C1227.31 395.915 1227.72 395.563 1228.05 395.182V398.724C1227.42 399.223 1226.73 399.611 1225.99 399.89C1225.25 400.169 1224.32 400.308 1223.19 400.308C1222.02 400.308 1220.93 400.117 1219.91 399.736C1218.92 399.355 1218.04 398.805 1217.3 398.086C1216.56 397.367 1215.99 396.524 1215.58 395.556C1215.18 394.573 1214.99 393.488 1214.99 392.3C1214.99 391.112 1215.18 390.034 1215.58 389.066C1215.99 388.083 1216.56 387.233 1217.3 386.514C1218.04 385.795 1218.92 385.245 1219.91 384.864C1220.93 384.483 1222.02 384.292 1223.19 384.292C1224.32 384.292 1225.25 384.431 1225.99 384.71C1226.73 384.989 1227.42 385.377 1228.05 385.876V389.418C1227.72 389.037 1227.31 388.685 1226.84 388.362C1226.39 388.039 1225.88 387.783 1225.3 387.592C1224.73 387.401 1224.08 387.306 1223.35 387.306C1222.47 387.306 1221.65 387.511 1220.9 387.922C1220.16 388.318 1219.55 388.89 1219.08 389.638C1218.62 390.386 1218.4 391.273 1218.4 392.3ZM1237.02 394.632L1241.18 384.6H1244.83L1237.02 400.902L1229.21 384.6H1232.84L1237.02 394.632Z" fill="#194979"/>
<rect x="1445" y="400" width="315" height="104" rx="10" fill="#CDDBE9"/>
<path d="M1488.84 446.6H1491.99V462H1488.84V446.6ZM1490.75 449.262V446.6H1493.81C1495.03 446.6 1496.06 446.798 1496.91 447.194C1497.78 447.59 1498.44 448.155 1498.89 448.888C1499.35 449.621 1499.58 450.494 1499.58 451.506C1499.58 452.503 1499.35 453.376 1498.89 454.124C1498.44 454.857 1497.78 455.422 1496.91 455.818C1496.06 456.214 1495.03 456.412 1493.81 456.412H1490.75V453.75H1493.81C1494.65 453.75 1495.31 453.559 1495.79 453.178C1496.28 452.797 1496.52 452.239 1496.52 451.506C1496.52 450.758 1496.28 450.201 1495.79 449.834C1495.31 449.453 1494.65 449.262 1493.81 449.262H1490.75ZM1505.51 454.828H1508.83L1513.85 462H1510.13L1505.51 454.828ZM1502.01 446.6H1505.16V462H1502.01V446.6ZM1503.92 449.284V446.6H1507.18C1508.4 446.6 1509.43 446.805 1510.28 447.216C1511.13 447.627 1511.79 448.199 1512.24 448.932C1512.7 449.665 1512.92 450.523 1512.92 451.506C1512.92 452.474 1512.7 453.332 1512.24 454.08C1511.79 454.813 1511.13 455.385 1510.28 455.796C1509.43 456.207 1508.4 456.412 1507.18 456.412H1503.92V453.904H1506.98C1507.54 453.904 1508.02 453.816 1508.41 453.64C1508.82 453.449 1509.14 453.185 1509.36 452.848C1509.58 452.496 1509.69 452.078 1509.69 451.594C1509.69 451.11 1509.58 450.699 1509.36 450.362C1509.14 450.01 1508.82 449.746 1508.41 449.57C1508.02 449.379 1507.54 449.284 1506.98 449.284H1503.92ZM1518.1 454.3C1518.1 455.283 1518.3 456.155 1518.71 456.918C1519.12 457.681 1519.69 458.282 1520.41 458.722C1521.12 459.162 1521.96 459.382 1522.91 459.382C1523.87 459.382 1524.7 459.162 1525.42 458.722C1526.14 458.282 1526.7 457.681 1527.09 456.918C1527.5 456.155 1527.71 455.283 1527.71 454.3C1527.71 453.317 1527.51 452.445 1527.12 451.682C1526.72 450.919 1526.16 450.318 1525.44 449.878C1524.72 449.438 1523.88 449.218 1522.91 449.218C1521.96 449.218 1521.12 449.438 1520.41 449.878C1519.69 450.318 1519.12 450.919 1518.71 451.682C1518.3 452.445 1518.1 453.317 1518.1 454.3ZM1514.77 454.3C1514.77 453.127 1514.98 452.056 1515.39 451.088C1515.8 450.105 1516.37 449.255 1517.11 448.536C1517.84 447.817 1518.7 447.267 1519.68 446.886C1520.68 446.49 1521.75 446.292 1522.91 446.292C1524.09 446.292 1525.16 446.49 1526.15 446.886C1527.13 447.267 1527.99 447.817 1528.72 448.536C1529.47 449.255 1530.04 450.105 1530.44 451.088C1530.85 452.056 1531.05 453.127 1531.05 454.3C1531.05 455.459 1530.85 456.537 1530.44 457.534C1530.04 458.517 1529.48 459.375 1528.74 460.108C1528.02 460.841 1527.17 461.413 1526.17 461.824C1525.19 462.22 1524.1 462.418 1522.91 462.418C1521.73 462.418 1520.63 462.22 1519.64 461.824C1518.65 461.413 1517.79 460.841 1517.06 460.108C1516.33 459.375 1515.76 458.517 1515.37 457.534C1514.97 456.537 1514.77 455.459 1514.77 454.3ZM1535.51 449.35V446.6H1542.4V449.35H1535.51ZM1535.51 455.422V452.804H1542.18V455.422H1535.51ZM1533.49 446.6H1536.52V462H1533.49V446.6ZM1547.3 462V459.338H1555.07V462H1547.3ZM1547.3 449.262V446.6H1555.07V449.262H1547.3ZM1547.3 455.136V452.518H1554.63V455.136H1547.3ZM1545.28 446.6H1548.32V462H1545.28V446.6ZM1559.51 456.83C1559.84 457.402 1560.19 457.901 1560.57 458.326C1560.97 458.751 1561.4 459.081 1561.87 459.316C1562.34 459.551 1562.84 459.668 1563.39 459.668C1564.02 459.668 1564.53 459.507 1564.93 459.184C1565.32 458.861 1565.52 458.421 1565.52 457.864C1565.52 457.38 1565.39 456.991 1565.15 456.698C1564.91 456.405 1564.55 456.148 1564.07 455.928C1563.6 455.693 1563.02 455.444 1562.33 455.18C1561.96 455.048 1561.54 454.872 1561.05 454.652C1560.58 454.417 1560.14 454.124 1559.71 453.772C1559.29 453.405 1558.93 452.965 1558.66 452.452C1558.38 451.924 1558.24 451.293 1558.24 450.56C1558.24 449.68 1558.46 448.925 1558.9 448.294C1559.35 447.649 1559.96 447.157 1560.72 446.82C1561.5 446.468 1562.37 446.292 1563.32 446.292C1564.3 446.292 1565.15 446.461 1565.85 446.798C1566.57 447.121 1567.16 447.539 1567.63 448.052C1568.12 448.551 1568.49 449.071 1568.75 449.614L1566.29 450.978C1566.08 450.611 1565.83 450.281 1565.54 449.988C1565.26 449.68 1564.94 449.438 1564.57 449.262C1564.21 449.071 1563.79 448.976 1563.32 448.976C1562.7 448.976 1562.24 449.123 1561.93 449.416C1561.63 449.695 1561.47 450.025 1561.47 450.406C1561.47 450.787 1561.6 451.125 1561.85 451.418C1562.09 451.697 1562.48 451.968 1562.99 452.232C1563.5 452.481 1564.15 452.738 1564.93 453.002C1565.42 453.178 1565.9 453.398 1566.36 453.662C1566.82 453.926 1567.24 454.249 1567.61 454.63C1567.99 454.997 1568.28 455.437 1568.49 455.95C1568.71 456.449 1568.82 457.028 1568.82 457.688C1568.82 458.436 1568.67 459.103 1568.38 459.69C1568.09 460.277 1567.68 460.775 1567.17 461.186C1566.66 461.582 1566.08 461.883 1565.43 462.088C1564.8 462.308 1564.13 462.418 1563.43 462.418C1562.49 462.418 1561.61 462.242 1560.79 461.89C1559.98 461.523 1559.28 461.032 1558.68 460.416C1558.08 459.8 1557.61 459.133 1557.27 458.414L1559.51 456.83ZM1579.94 446.6H1583.53L1578.23 455.62V462H1575.04V455.642L1569.73 446.6H1573.32L1576.62 452.804L1579.94 446.6ZM1586.57 454.3C1586.57 455.283 1586.77 456.155 1587.18 456.918C1587.59 457.681 1588.16 458.282 1588.88 458.722C1589.59 459.162 1590.43 459.382 1591.38 459.382C1592.34 459.382 1593.17 459.162 1593.89 458.722C1594.61 458.282 1595.17 457.681 1595.56 456.918C1595.97 456.155 1596.18 455.283 1596.18 454.3C1596.18 453.317 1595.98 452.445 1595.59 451.682C1595.19 450.919 1594.63 450.318 1593.91 449.878C1593.2 449.438 1592.35 449.218 1591.38 449.218C1590.43 449.218 1589.59 449.438 1588.88 449.878C1588.16 450.318 1587.59 450.919 1587.18 451.682C1586.77 452.445 1586.57 453.317 1586.57 454.3ZM1583.24 454.3C1583.24 453.127 1583.45 452.056 1583.86 451.088C1584.27 450.105 1584.84 449.255 1585.58 448.536C1586.31 447.817 1587.17 447.267 1588.15 446.886C1589.15 446.49 1590.23 446.292 1591.38 446.292C1592.56 446.292 1593.64 446.49 1594.62 446.886C1595.6 447.267 1596.46 447.817 1597.19 448.536C1597.94 449.255 1598.51 450.105 1598.91 451.088C1599.32 452.056 1599.52 453.127 1599.52 454.3C1599.52 455.459 1599.32 456.537 1598.91 457.534C1598.51 458.517 1597.95 459.375 1597.21 460.108C1596.5 460.841 1595.64 461.413 1594.64 461.824C1593.66 462.22 1592.57 462.418 1591.38 462.418C1590.2 462.418 1589.1 462.22 1588.11 461.824C1587.12 461.413 1586.27 460.841 1585.53 460.108C1584.8 459.375 1584.23 458.517 1583.84 457.534C1583.44 456.537 1583.24 455.459 1583.24 454.3ZM1612.91 446.6H1615.95V462.77L1604.99 452.452V462H1601.96V445.83L1612.91 456.148V446.6ZM1621.32 462V459.338H1629.08V462H1621.32ZM1621.32 449.262V446.6H1629.08V449.262H1621.32ZM1621.32 455.136V452.518H1628.64V455.136H1621.32ZM1619.29 446.6H1622.33V462H1619.29V446.6ZM1632.18 446.6H1635.33V459.25H1641.47V462H1632.18V446.6ZM1652.4 454.3C1652.4 455.312 1652.62 456.199 1653.08 456.962C1653.55 457.71 1654.16 458.289 1654.9 458.7C1655.65 459.096 1656.47 459.294 1657.35 459.294C1658.08 459.294 1658.73 459.199 1659.3 459.008C1659.88 458.817 1660.39 458.561 1660.84 458.238C1661.31 457.915 1661.72 457.563 1662.05 457.182V460.724C1661.42 461.223 1660.73 461.611 1659.99 461.89C1659.25 462.169 1658.32 462.308 1657.19 462.308C1656.02 462.308 1654.93 462.117 1653.91 461.736C1652.92 461.355 1652.04 460.805 1651.3 460.086C1650.56 459.367 1649.99 458.524 1649.58 457.556C1649.18 456.573 1648.99 455.488 1648.99 454.3C1648.99 453.112 1649.18 452.034 1649.58 451.066C1649.99 450.083 1650.56 449.233 1651.3 448.514C1652.04 447.795 1652.92 447.245 1653.91 446.864C1654.93 446.483 1656.02 446.292 1657.19 446.292C1658.32 446.292 1659.25 446.431 1659.99 446.71C1660.73 446.989 1661.42 447.377 1662.05 447.876V451.418C1661.72 451.037 1661.31 450.685 1660.84 450.362C1660.39 450.039 1659.88 449.783 1659.3 449.592C1658.73 449.401 1658.08 449.306 1657.35 449.306C1656.47 449.306 1655.65 449.511 1654.9 449.922C1654.16 450.318 1653.55 450.89 1653.08 451.638C1652.62 452.386 1652.4 453.273 1652.4 454.3ZM1671.02 456.632L1675.18 446.6H1678.83L1671.02 462.902L1663.21 446.6H1666.84L1671.02 456.632Z" fill="#194979"/>
<rect x="1011" y="464" width="315" height="104" rx="10" fill="#CDDBE9"/>
<path d="M1054.84 510.6H1057.99V526H1054.84V510.6ZM1056.75 513.262V510.6H1059.81C1061.03 510.6 1062.06 510.798 1062.91 511.194C1063.78 511.59 1064.44 512.155 1064.89 512.888C1065.35 513.621 1065.58 514.494 1065.58 515.506C1065.58 516.503 1065.35 517.376 1064.89 518.124C1064.44 518.857 1063.78 519.422 1062.91 519.818C1062.06 520.214 1061.03 520.412 1059.81 520.412H1056.75V517.75H1059.81C1060.65 517.75 1061.31 517.559 1061.79 517.178C1062.28 516.797 1062.52 516.239 1062.52 515.506C1062.52 514.758 1062.28 514.201 1061.79 513.834C1061.31 513.453 1060.65 513.262 1059.81 513.262H1056.75ZM1071.51 518.828H1074.83L1079.85 526H1076.13L1071.51 518.828ZM1068.01 510.6H1071.16V526H1068.01V510.6ZM1069.92 513.284V510.6H1073.18C1074.4 510.6 1075.43 510.805 1076.28 511.216C1077.13 511.627 1077.79 512.199 1078.24 512.932C1078.7 513.665 1078.92 514.523 1078.92 515.506C1078.92 516.474 1078.7 517.332 1078.24 518.08C1077.79 518.813 1077.13 519.385 1076.28 519.796C1075.43 520.207 1074.4 520.412 1073.18 520.412H1069.92V517.904H1072.98C1073.54 517.904 1074.02 517.816 1074.41 517.64C1074.82 517.449 1075.14 517.185 1075.36 516.848C1075.58 516.496 1075.69 516.078 1075.69 515.594C1075.69 515.11 1075.58 514.699 1075.36 514.362C1075.14 514.01 1074.82 513.746 1074.41 513.57C1074.02 513.379 1073.54 513.284 1072.98 513.284H1069.92ZM1084.1 518.3C1084.1 519.283 1084.3 520.155 1084.71 520.918C1085.12 521.681 1085.69 522.282 1086.41 522.722C1087.12 523.162 1087.96 523.382 1088.91 523.382C1089.87 523.382 1090.7 523.162 1091.42 522.722C1092.14 522.282 1092.7 521.681 1093.09 520.918C1093.5 520.155 1093.71 519.283 1093.71 518.3C1093.71 517.317 1093.51 516.445 1093.12 515.682C1092.72 514.919 1092.16 514.318 1091.44 513.878C1090.72 513.438 1089.88 513.218 1088.91 513.218C1087.96 513.218 1087.12 513.438 1086.41 513.878C1085.69 514.318 1085.12 514.919 1084.71 515.682C1084.3 516.445 1084.1 517.317 1084.1 518.3ZM1080.77 518.3C1080.77 517.127 1080.98 516.056 1081.39 515.088C1081.8 514.105 1082.37 513.255 1083.11 512.536C1083.84 511.817 1084.7 511.267 1085.68 510.886C1086.68 510.49 1087.75 510.292 1088.91 510.292C1090.09 510.292 1091.16 510.49 1092.15 510.886C1093.13 511.267 1093.99 511.817 1094.72 512.536C1095.47 513.255 1096.04 514.105 1096.44 515.088C1096.85 516.056 1097.05 517.127 1097.05 518.3C1097.05 519.459 1096.85 520.537 1096.44 521.534C1096.04 522.517 1095.48 523.375 1094.74 524.108C1094.02 524.841 1093.17 525.413 1092.17 525.824C1091.19 526.22 1090.1 526.418 1088.91 526.418C1087.73 526.418 1086.63 526.22 1085.64 525.824C1084.65 525.413 1083.79 524.841 1083.06 524.108C1082.33 523.375 1081.76 522.517 1081.37 521.534C1080.97 520.537 1080.77 519.459 1080.77 518.3ZM1101.51 513.35V510.6H1108.4V513.35H1101.51ZM1101.51 519.422V516.804H1108.18V519.422H1101.51ZM1099.49 510.6H1102.52V526H1099.49V510.6ZM1113.3 526V523.338H1121.07V526H1113.3ZM1113.3 513.262V510.6H1121.07V513.262H1113.3ZM1113.3 519.136V516.518H1120.63V519.136H1113.3ZM1111.28 510.6H1114.32V526H1111.28V510.6ZM1125.51 520.83C1125.84 521.402 1126.19 521.901 1126.57 522.326C1126.97 522.751 1127.4 523.081 1127.87 523.316C1128.34 523.551 1128.84 523.668 1129.39 523.668C1130.02 523.668 1130.53 523.507 1130.93 523.184C1131.32 522.861 1131.52 522.421 1131.52 521.864C1131.52 521.38 1131.39 520.991 1131.15 520.698C1130.91 520.405 1130.55 520.148 1130.07 519.928C1129.6 519.693 1129.02 519.444 1128.33 519.18C1127.96 519.048 1127.54 518.872 1127.05 518.652C1126.58 518.417 1126.14 518.124 1125.71 517.772C1125.29 517.405 1124.93 516.965 1124.66 516.452C1124.38 515.924 1124.24 515.293 1124.24 514.56C1124.24 513.68 1124.46 512.925 1124.9 512.294C1125.35 511.649 1125.96 511.157 1126.72 510.82C1127.5 510.468 1128.37 510.292 1129.32 510.292C1130.3 510.292 1131.15 510.461 1131.85 510.798C1132.57 511.121 1133.16 511.539 1133.63 512.052C1134.12 512.551 1134.49 513.071 1134.75 513.614L1132.29 514.978C1132.08 514.611 1131.83 514.281 1131.54 513.988C1131.26 513.68 1130.94 513.438 1130.57 513.262C1130.21 513.071 1129.79 512.976 1129.32 512.976C1128.7 512.976 1128.24 513.123 1127.93 513.416C1127.63 513.695 1127.47 514.025 1127.47 514.406C1127.47 514.787 1127.6 515.125 1127.85 515.418C1128.09 515.697 1128.48 515.968 1128.99 516.232C1129.5 516.481 1130.15 516.738 1130.93 517.002C1131.42 517.178 1131.9 517.398 1132.36 517.662C1132.82 517.926 1133.24 518.249 1133.61 518.63C1133.99 518.997 1134.28 519.437 1134.49 519.95C1134.71 520.449 1134.82 521.028 1134.82 521.688C1134.82 522.436 1134.67 523.103 1134.38 523.69C1134.09 524.277 1133.68 524.775 1133.17 525.186C1132.66 525.582 1132.08 525.883 1131.43 526.088C1130.8 526.308 1130.13 526.418 1129.43 526.418C1128.49 526.418 1127.61 526.242 1126.79 525.89C1125.98 525.523 1125.28 525.032 1124.68 524.416C1124.08 523.8 1123.61 523.133 1123.27 522.414L1125.51 520.83ZM1145.94 510.6H1149.53L1144.23 519.62V526H1141.04V519.642L1135.73 510.6H1139.32L1142.62 516.804L1145.94 510.6ZM1152.57 518.3C1152.57 519.283 1152.77 520.155 1153.18 520.918C1153.59 521.681 1154.16 522.282 1154.88 522.722C1155.59 523.162 1156.43 523.382 1157.38 523.382C1158.34 523.382 1159.17 523.162 1159.89 522.722C1160.61 522.282 1161.17 521.681 1161.56 520.918C1161.97 520.155 1162.18 519.283 1162.18 518.3C1162.18 517.317 1161.98 516.445 1161.59 515.682C1161.19 514.919 1160.63 514.318 1159.91 513.878C1159.2 513.438 1158.35 513.218 1157.38 513.218C1156.43 513.218 1155.59 513.438 1154.88 513.878C1154.16 514.318 1153.59 514.919 1153.18 515.682C1152.77 516.445 1152.57 517.317 1152.57 518.3ZM1149.24 518.3C1149.24 517.127 1149.45 516.056 1149.86 515.088C1150.27 514.105 1150.84 513.255 1151.58 512.536C1152.31 511.817 1153.17 511.267 1154.15 510.886C1155.15 510.49 1156.23 510.292 1157.38 510.292C1158.56 510.292 1159.64 510.49 1160.62 510.886C1161.6 511.267 1162.46 511.817 1163.19 512.536C1163.94 513.255 1164.51 514.105 1164.91 515.088C1165.32 516.056 1165.52 517.127 1165.52 518.3C1165.52 519.459 1165.32 520.537 1164.91 521.534C1164.51 522.517 1163.95 523.375 1163.21 524.108C1162.5 524.841 1161.64 525.413 1160.64 525.824C1159.66 526.22 1158.57 526.418 1157.38 526.418C1156.2 526.418 1155.1 526.22 1154.11 525.824C1153.12 525.413 1152.27 524.841 1151.53 524.108C1150.8 523.375 1150.23 522.517 1149.84 521.534C1149.44 520.537 1149.24 519.459 1149.24 518.3ZM1178.91 510.6H1181.95V526.77L1170.99 516.452V526H1167.96V509.83L1178.91 520.148V510.6ZM1187.32 526V523.338H1195.08V526H1187.32ZM1187.32 513.262V510.6H1195.08V513.262H1187.32ZM1187.32 519.136V516.518H1194.64V519.136H1187.32ZM1185.29 510.6H1188.33V526H1185.29V510.6ZM1198.18 510.6H1201.33V523.25H1207.47V526H1198.18V510.6ZM1218.4 518.3C1218.4 519.312 1218.62 520.199 1219.08 520.962C1219.55 521.71 1220.16 522.289 1220.9 522.7C1221.65 523.096 1222.47 523.294 1223.35 523.294C1224.08 523.294 1224.73 523.199 1225.3 523.008C1225.88 522.817 1226.39 522.561 1226.84 522.238C1227.31 521.915 1227.72 521.563 1228.05 521.182V524.724C1227.42 525.223 1226.73 525.611 1225.99 525.89C1225.25 526.169 1224.32 526.308 1223.19 526.308C1222.02 526.308 1220.93 526.117 1219.91 525.736C1218.92 525.355 1218.04 524.805 1217.3 524.086C1216.56 523.367 1215.99 522.524 1215.58 521.556C1215.18 520.573 1214.99 519.488 1214.99 518.3C1214.99 517.112 1215.18 516.034 1215.58 515.066C1215.99 514.083 1216.56 513.233 1217.3 512.514C1218.04 511.795 1218.92 511.245 1219.91 510.864C1220.93 510.483 1222.02 510.292 1223.19 510.292C1224.32 510.292 1225.25 510.431 1225.99 510.71C1226.73 510.989 1227.42 511.377 1228.05 511.876V515.418C1227.72 515.037 1227.31 514.685 1226.84 514.362C1226.39 514.039 1225.88 513.783 1225.3 513.592C1224.73 513.401 1224.08 513.306 1223.35 513.306C1222.47 513.306 1221.65 513.511 1220.9 513.922C1220.16 514.318 1219.55 514.89 1219.08 515.638C1218.62 516.386 1218.4 517.273 1218.4 518.3ZM1237.02 520.632L1241.18 510.6H1244.83L1237.02 526.902L1229.21 510.6H1232.84L1237.02 520.632Z" fill="#194979"/>
<rect x="577" y="526" width="315" height="104" rx="10" fill="#CDDBE9"/>
<path d="M620.841 572.6H623.987V588H620.841V572.6ZM622.755 575.262V572.6H625.813C627.03 572.6 628.064 572.798 628.915 573.194C629.78 573.59 630.44 574.155 630.895 574.888C631.35 575.621 631.577 576.494 631.577 577.506C631.577 578.503 631.35 579.376 630.895 580.124C630.44 580.857 629.78 581.422 628.915 581.818C628.064 582.214 627.03 582.412 625.813 582.412H622.755V579.75H625.813C626.649 579.75 627.309 579.559 627.793 579.178C628.277 578.797 628.519 578.239 628.519 577.506C628.519 576.758 628.277 576.201 627.793 575.834C627.309 575.453 626.649 575.262 625.813 575.262H622.755ZM637.509 580.828H640.831L645.847 588H642.129L637.509 580.828ZM634.011 572.6H637.157V588H634.011V572.6ZM635.925 575.284V572.6H639.181C640.398 572.6 641.432 572.805 642.283 573.216C643.134 573.627 643.786 574.199 644.241 574.932C644.696 575.665 644.923 576.523 644.923 577.506C644.923 578.474 644.696 579.332 644.241 580.08C643.786 580.813 643.134 581.385 642.283 581.796C641.432 582.207 640.398 582.412 639.181 582.412H635.925V579.904H638.983C639.54 579.904 640.017 579.816 640.413 579.64C640.824 579.449 641.139 579.185 641.359 578.848C641.579 578.496 641.689 578.078 641.689 577.594C641.689 577.11 641.579 576.699 641.359 576.362C641.139 576.01 640.824 575.746 640.413 575.57C640.017 575.379 639.54 575.284 638.983 575.284H635.925ZM650.095 580.3C650.095 581.283 650.301 582.155 650.711 582.918C651.122 583.681 651.687 584.282 652.405 584.722C653.124 585.162 653.96 585.382 654.913 585.382C655.867 585.382 656.703 585.162 657.421 584.722C658.14 584.282 658.697 583.681 659.093 582.918C659.504 582.155 659.709 581.283 659.709 580.3C659.709 579.317 659.511 578.445 659.115 577.682C658.719 576.919 658.162 576.318 657.443 575.878C656.725 575.438 655.881 575.218 654.913 575.218C653.96 575.218 653.124 575.438 652.405 575.878C651.687 576.318 651.122 576.919 650.711 577.682C650.301 578.445 650.095 579.317 650.095 580.3ZM646.773 580.3C646.773 579.127 646.979 578.056 647.389 577.088C647.8 576.105 648.372 575.255 649.105 574.536C649.839 573.817 650.697 573.267 651.679 572.886C652.677 572.49 653.755 572.292 654.913 572.292C656.087 572.292 657.165 572.49 658.147 572.886C659.13 573.267 659.988 573.817 660.721 574.536C661.469 575.255 662.041 576.105 662.437 577.088C662.848 578.056 663.053 579.127 663.053 580.3C663.053 581.459 662.848 582.537 662.437 583.534C662.041 584.517 661.477 585.375 660.743 586.108C660.025 586.841 659.167 587.413 658.169 587.824C657.187 588.22 656.101 588.418 654.913 588.418C653.725 588.418 652.633 588.22 651.635 587.824C650.653 587.413 649.795 586.841 649.061 586.108C648.328 585.375 647.763 584.517 647.367 583.534C646.971 582.537 646.773 581.459 646.773 580.3ZM667.509 575.35V572.6H674.395V575.35H667.509ZM667.509 581.422V578.804H674.175V581.422H667.509ZM665.485 572.6H668.521V588H665.485V572.6ZM679.304 588V585.338H687.07V588H679.304ZM679.304 575.262V572.6H687.07V575.262H679.304ZM679.304 581.136V578.518H686.63V581.136H679.304ZM677.28 572.6H680.316V588H677.28V572.6ZM691.513 582.83C691.836 583.402 692.188 583.901 692.569 584.326C692.965 584.751 693.398 585.081 693.867 585.316C694.336 585.551 694.842 585.668 695.385 585.668C696.016 585.668 696.529 585.507 696.925 585.184C697.321 584.861 697.519 584.421 697.519 583.864C697.519 583.38 697.394 582.991 697.145 582.698C696.91 582.405 696.551 582.148 696.067 581.928C695.598 581.693 695.018 581.444 694.329 581.18C693.962 581.048 693.537 580.872 693.053 580.652C692.584 580.417 692.136 580.124 691.711 579.772C691.286 579.405 690.934 578.965 690.655 578.452C690.376 577.924 690.237 577.293 690.237 576.56C690.237 575.68 690.457 574.925 690.897 574.294C691.352 573.649 691.96 573.157 692.723 572.82C693.5 572.468 694.366 572.292 695.319 572.292C696.302 572.292 697.145 572.461 697.849 572.798C698.568 573.121 699.162 573.539 699.631 574.052C700.115 574.551 700.489 575.071 700.753 575.614L698.289 576.978C698.084 576.611 697.834 576.281 697.541 575.988C697.262 575.68 696.94 575.438 696.573 575.262C696.206 575.071 695.788 574.976 695.319 574.976C694.703 574.976 694.241 575.123 693.933 575.416C693.625 575.695 693.471 576.025 693.471 576.406C693.471 576.787 693.596 577.125 693.845 577.418C694.094 577.697 694.476 577.968 694.989 578.232C695.502 578.481 696.148 578.738 696.925 579.002C697.424 579.178 697.9 579.398 698.355 579.662C698.824 579.926 699.242 580.249 699.609 580.63C699.99 580.997 700.284 581.437 700.489 581.95C700.709 582.449 700.819 583.028 700.819 583.688C700.819 584.436 700.672 585.103 700.379 585.69C700.086 586.277 699.682 586.775 699.169 587.186C698.656 587.582 698.076 587.883 697.431 588.088C696.8 588.308 696.133 588.418 695.429 588.418C694.49 588.418 693.61 588.242 692.789 587.89C691.982 587.523 691.278 587.032 690.677 586.416C690.076 585.8 689.606 585.133 689.269 584.414L691.513 582.83ZM711.942 572.6H715.528L710.226 581.62V588H707.036V581.642L701.734 572.6H705.32L708.62 578.804L711.942 572.6ZM718.566 580.3C718.566 581.283 718.771 582.155 719.182 582.918C719.593 583.681 720.157 584.282 720.876 584.722C721.595 585.162 722.431 585.382 723.384 585.382C724.337 585.382 725.173 585.162 725.892 584.722C726.611 584.282 727.168 583.681 727.564 582.918C727.975 582.155 728.18 581.283 728.18 580.3C728.18 579.317 727.982 578.445 727.586 577.682C727.19 576.919 726.633 576.318 725.914 575.878C725.195 575.438 724.352 575.218 723.384 575.218C722.431 575.218 721.595 575.438 720.876 575.878C720.157 576.318 719.593 576.919 719.182 577.682C718.771 578.445 718.566 579.317 718.566 580.3ZM715.244 580.3C715.244 579.127 715.449 578.056 715.86 577.088C716.271 576.105 716.843 575.255 717.576 574.536C718.309 573.817 719.167 573.267 720.15 572.886C721.147 572.49 722.225 572.292 723.384 572.292C724.557 572.292 725.635 572.49 726.618 572.886C727.601 573.267 728.459 573.817 729.192 574.536C729.94 575.255 730.512 576.105 730.908 577.088C731.319 578.056 731.524 579.127 731.524 580.3C731.524 581.459 731.319 582.537 730.908 583.534C730.512 584.517 729.947 585.375 729.214 586.108C728.495 586.841 727.637 587.413 726.64 587.824C725.657 588.22 724.572 588.418 723.384 588.418C722.196 588.418 721.103 588.22 720.106 587.824C719.123 587.413 718.265 586.841 717.532 586.108C716.799 585.375 716.234 584.517 715.838 583.534C715.442 582.537 715.244 581.459 715.244 580.3ZM744.912 572.6H747.948V588.77L736.992 578.452V588H733.956V571.83L744.912 582.148V572.6ZM753.318 588V585.338H761.084V588H753.318ZM753.318 575.262V572.6H761.084V575.262H753.318ZM753.318 581.136V578.518H760.644V581.136H753.318ZM751.294 572.6H754.33V588H751.294V572.6ZM764.185 572.6H767.331V585.25H773.469V588H764.185V572.6ZM784.396 580.3C784.396 581.312 784.624 582.199 785.078 582.962C785.548 583.71 786.156 584.289 786.904 584.7C787.652 585.096 788.466 585.294 789.346 585.294C790.08 585.294 790.732 585.199 791.304 585.008C791.876 584.817 792.39 584.561 792.844 584.238C793.314 583.915 793.717 583.563 794.054 583.182V586.724C793.424 587.223 792.734 587.611 791.986 587.89C791.253 588.169 790.322 588.308 789.192 588.308C788.019 588.308 786.926 588.117 785.914 587.736C784.917 587.355 784.044 586.805 783.296 586.086C782.563 585.367 781.991 584.524 781.58 583.556C781.184 582.573 780.986 581.488 780.986 580.3C780.986 579.112 781.184 578.034 781.58 577.066C781.991 576.083 782.563 575.233 783.296 574.514C784.044 573.795 784.917 573.245 785.914 572.864C786.926 572.483 788.019 572.292 789.192 572.292C790.322 572.292 791.253 572.431 791.986 572.71C792.734 572.989 793.424 573.377 794.054 573.876V577.418C793.717 577.037 793.314 576.685 792.844 576.362C792.39 576.039 791.876 575.783 791.304 575.592C790.732 575.401 790.08 575.306 789.346 575.306C788.466 575.306 787.652 575.511 786.904 575.922C786.156 576.318 785.548 576.89 785.078 577.638C784.624 578.386 784.396 579.273 784.396 580.3ZM803.022 582.632L807.18 572.6H810.832L803.022 588.902L795.212 572.6H798.842L803.022 582.632Z" fill="#194979"/>
<line x1="512.5" y1="590.017" x2="512.5" y2="319" stroke="#256CB3" stroke-width="5"/>
<path d="M510 317H543" stroke="#256CB3" stroke-width="5"/>
<line x1="512" y1="452.5" x2="543.016" y2="452.5" stroke="#256CB3" stroke-width="5"/>
<line x1="512" y1="587.5" x2="543.016" y2="587.5" stroke="#256CB3" stroke-width="5"/>
<line x1="933.5" y1="521" x2="933.5" y2="382" stroke="#256CB3" stroke-width="5"/>
<path d="M931 382.5H967.016" stroke="#256CB3" stroke-width="5"/>
<line x1="936" y1="518.5" x2="967.016" y2="518.5" stroke="#256CB3" stroke-width="5"/>
<line x1="1387.5" y1="490" x2="1387.5" y2="418" stroke="#256CB3" stroke-width="5"/>
<line x1="1390" y1="452.5" x2="1421.02" y2="452.5" stroke="#256CB3" stroke-width="5"/>
<g filter="url(#filter0_d_210_19)">
<rect x="110.5" y="106.5" width="1682" height="684" stroke="#E4F0FC" shape-rendering="crispEdges"/>
</g>
<defs>
<filter id="filter0_d_210_19" x="0" y="0" width="1903" height="905" filterUnits="userSpaceOnUse" color-interpolation-filters="sRGB">
<feFlood flood-opacity="0" result="BackgroundImageFix"/>
<feColorMatrix in="SourceAlpha" type="matrix" values="0 0 0 0 0 0 0 0 0 0 0 0 0 0 0 0 0 0 127 0" result="hardAlpha"/>
<feMorphology radius="10" operator="dilate" in="SourceAlpha" result="effect1_dropShadow_210_19"/>
<feOffset dy="4"/>
<feGaussianBlur stdDeviation="50"/>
<feComposite in2="hardAlpha" operator="out"/>
<feColorMatrix type="matrix" values="0 0 0 0 0.811042 0 0 0 0 0.883186 0 0 0 0 0.954167 0 0 0 1 0"/>
<feBlend mode="normal" in2="BackgroundImageFix" result="effect1_dropShadow_210_19"/>
<feBlend mode="normal" in="SourceGraphic" in2="effect1_dropShadow_210_19" result="shape"/>
</filter>
</defs>
</svg>
