<svg width="67" height="67" viewBox="0 0 67 67" fill="none" xmlns="http://www.w3.org/2000/svg">
<path d="M45.8346 17.9281V21.1664L25.5112 41.4898C24.1432 40.2437 23.0494 38.7265 22.2997 37.0347C21.5499 35.3429 21.1605 33.5136 21.1562 31.6631V17.9281C21.1562 12.1773 25.0646 7.40353 30.3688 6.03561C30.8992 5.89603 31.4017 6.34269 31.4017 6.87311V11.1723C31.4017 12.3169 32.3508 13.266 33.4954 13.266C34.64 13.266 35.5892 12.3169 35.5892 11.1723V6.87311C35.5892 6.34269 36.0917 5.89603 36.6221 6.03561C41.9263 7.40353 45.8346 12.1773 45.8346 17.9281Z" fill="#256CB3"/>
<path opacity="0.4" d="M21.7213 45.2837L18.9576 48.0475C16.6748 46.0067 14.8484 43.5071 13.5976 40.7122C12.3469 37.9173 11.7 34.8899 11.6992 31.8279V27.3891C11.6992 26.3283 12.5646 25.4629 13.6255 25.4629C14.7142 25.4629 15.5796 26.3283 15.5796 27.3891V31.8279C15.5796 37.1879 17.9526 42.0175 21.7213 45.2837ZM55.3078 27.3891V31.8279C55.3078 43.19 46.5699 52.5421 35.4591 53.5191V59.4654C35.4591 60.5541 34.5937 61.4196 33.5049 61.4196C32.4162 61.4196 31.5508 60.5541 31.5508 59.4654V53.5191C28.5078 53.24 25.6324 52.3466 23.0641 50.9229L25.9395 48.0475C28.2287 49.1083 30.797 49.7225 33.5049 49.7225C43.3874 49.7225 51.4274 41.6825 51.4274 31.8279V27.3891C51.4274 26.3283 52.2928 25.4629 53.3816 25.4629C54.4424 25.4629 55.3078 26.3283 55.3078 27.3891Z" fill="#256CB3"/>
<path opacity="0.4" d="M45.8332 28.1348V32.1827C45.8332 39.3852 39.6357 45.1639 32.2657 44.466C31.4841 44.3823 30.7024 44.2427 29.9766 43.9914L45.8332 28.1348Z" fill="#256CB3"/>
<path d="M60.771 6.22285C59.9335 5.38535 58.5656 5.38535 57.7281 6.22285L6.22188 57.757C5.38437 58.5945 5.38437 59.9624 6.22188 60.7999C6.42061 60.998 6.65675 61.1546 6.91656 61.2605C7.17637 61.3665 7.45465 61.4197 7.73522 61.4171C8.01579 61.4145 8.29304 61.3561 8.55084 61.2454C8.80864 61.1346 9.04184 60.9737 9.23688 60.772L60.771 9.23785C61.6365 8.40035 61.6365 7.06035 60.771 6.22285Z" fill="#256CB3"/>
</svg>
