<svg width="23" height="23" viewBox="0 0 23 23" fill="none" xmlns="http://www.w3.org/2000/svg">
<path d="M17.325 22.5001C12.732 22.4942 8.32873 20.667 5.08095 17.4192C1.83317 14.1714 0.00595341 9.76818 0 5.17513C0 3.80263 0.545222 2.48635 1.51572 1.51585C2.48622 0.54535 3.8025 0.000128582 5.175 0.000128582C5.46563 -0.00208519 5.75578 0.0242917 6.04125 0.0788785C6.31722 0.119717 6.58853 0.187542 6.85125 0.281379C7.03603 0.346212 7.20069 0.458154 7.32894 0.606135C7.45719 0.754116 7.54459 0.933011 7.5825 1.12513L9.12375 7.87513C9.16529 8.05835 9.16029 8.24906 9.1092 8.42985C9.0581 8.61064 8.96255 8.77576 8.83125 8.91013C8.685 9.06763 8.67375 9.07888 7.29 9.79888C8.39812 12.2298 10.3423 14.1821 12.7688 15.3001C13.5 13.9051 13.5112 13.8939 13.6687 13.7476C13.8031 13.6163 13.9682 13.5208 14.149 13.4697C14.3298 13.4186 14.5205 13.4136 14.7037 13.4551L21.4538 14.9964C21.6397 15.0395 21.8116 15.1293 21.9533 15.2572C22.0951 15.3851 22.2019 15.547 22.2638 15.7276C22.3587 15.9947 22.4302 16.2694 22.4775 16.5489C22.5228 16.8316 22.5453 17.1175 22.545 17.4039C22.5243 18.7705 21.9637 20.0734 20.9857 21.0282C20.0077 21.983 18.6917 22.5122 17.325 22.5001Z" fill="#256CB3"/>
</svg>
