<svg width="67" height="67" viewBox="0 0 67 67" fill="none" xmlns="http://www.w3.org/2000/svg">
<path opacity="0.4" d="M33.4128 61.4163C48.8311 61.4163 61.3294 48.918 61.3294 33.4997C61.3294 18.0813 48.8311 5.58301 33.4128 5.58301C17.9944 5.58301 5.49609 18.0813 5.49609 33.4997C5.49609 48.918 17.9944 61.4163 33.4128 61.4163Z" fill="#256CB3"/>
<path d="M33.5002 45.3089C36.632 45.3089 39.6356 44.0648 41.8502 41.8502C44.0648 39.6356 45.3089 36.632 45.3089 33.5002C45.3089 30.3683 44.0648 27.3647 41.8502 25.1501C39.6356 22.9355 36.632 21.6914 33.5002 21.6914C30.3683 21.6914 27.3647 22.9355 25.1501 25.1501C22.9355 27.3647 21.6914 30.3683 21.6914 33.5002C21.6914 36.632 22.9355 39.6356 25.1501 41.8502C27.3647 44.0648 30.3683 45.3089 33.5002 45.3089Z" fill="#256CB3"/>
</svg>
