<svg width="75" height="75" viewBox="0 0 75 75" fill="none" xmlns="http://www.w3.org/2000/svg">
<path d="M35.9375 65.625C39.8361 65.625 43.6966 64.8571 47.2984 63.3652C50.9003 61.8732 54.173 59.6865 56.9297 56.9297C59.6865 54.173 61.8732 50.9003 63.3652 47.2984C64.8571 43.6966 65.625 39.8361 65.625 35.9375C65.625 32.0389 64.8571 28.1784 63.3652 24.5766C61.8732 20.9747 59.6865 17.702 56.9297 14.9453C54.173 12.1885 50.9003 10.0018 47.2984 8.50983C43.6966 7.01789 39.8361 6.25 35.9375 6.25C28.0639 6.25 20.5128 9.37778 14.9453 14.9453C9.37778 20.5128 6.25 28.0639 6.25 35.9375C6.25 43.8111 9.37778 51.3622 14.9453 56.9297C20.5128 62.4972 28.0639 65.625 35.9375 65.625ZM66.5625 68.7469C66 68.7469 65.4375 68.5281 65.0312 68.1219L59.2188 62.3094C58.813 61.8967 58.5856 61.3412 58.5856 60.7625C58.5856 60.1838 58.813 59.6283 59.2188 59.2156C60.0625 58.3719 61.4375 58.3719 62.3125 59.2156L68.125 65.0281C68.9687 65.8719 68.9687 67.2469 68.125 68.1219C67.6875 68.5281 67.125 68.7469 66.5625 68.7469Z" fill="#256CB3"/>
</svg>
