<svg width="55" height="55" viewBox="0 0 55 55" fill="none" xmlns="http://www.w3.org/2000/svg">
<path d="M18.1978 45.0428C21.5281 45.1542 24.8469 44.5969 27.9582 43.4039C31.0695 42.2108 33.91 40.4062 36.312 38.0966C38.7139 35.787 40.6285 33.0194 41.9427 29.9573C43.2568 26.8952 43.9437 23.6007 43.9629 20.2686C45.4891 18.3799 46.6224 16.2052 47.2962 13.8724C47.3465 13.688 47.3424 13.4931 47.2845 13.311C47.2266 13.129 47.1173 12.9675 46.9697 12.8462C46.8222 12.7248 46.6427 12.6487 46.4529 12.6269C46.263 12.6052 46.071 12.6388 45.8998 12.7237C45.1014 13.1081 44.2025 13.2322 43.3297 13.0787C42.457 12.9252 41.6544 12.5017 41.0351 11.8679C40.2444 11.0021 39.2881 10.3038 38.2226 9.8144C37.1572 9.32499 36.0043 9.05442 34.8324 9.01871C33.6605 8.98301 32.4933 9.1829 31.4 9.60654C30.3068 10.0302 29.3097 10.669 28.4678 11.485C27.3151 12.6013 26.4708 13.9969 26.017 15.536C25.5631 17.0751 25.5152 18.7055 25.8778 20.2686C18.3329 20.719 13.1528 17.138 9.00879 12.2282C8.88429 12.0873 8.72144 11.9856 8.54011 11.9356C8.35878 11.8857 8.16683 11.8896 7.98769 11.9469C7.80856 12.0042 7.64999 12.1125 7.53136 12.2584C7.41272 12.4044 7.33915 12.5817 7.31964 12.7688C6.53017 17.148 7.09966 21.6639 8.95162 25.7101C10.8036 29.7562 13.8493 33.1387 17.6798 35.4034C15.1114 38.3489 11.5047 40.1886 7.61242 40.5384C7.4039 40.573 7.2114 40.6719 7.06187 40.8213C6.91235 40.9707 6.81328 41.1631 6.77853 41.3716C6.74378 41.5801 6.77509 41.7943 6.86808 41.9841C6.96106 42.1739 7.11107 42.3299 7.29711 42.4303C10.6833 44.1225 14.4123 45.0162 18.1978 45.0428Z" fill="#256CB3"/>
</svg>
