<svg width="79" height="79" viewBox="0 0 79 79" fill="none" xmlns="http://www.w3.org/2000/svg">
<path d="M69.6191 20.3099C68.2695 19.5857 65.4387 18.8287 61.5874 21.5278L56.7487 24.9512C56.3866 14.7141 51.9428 10.6982 41.1462 10.6982H21.3962C10.1387 10.6982 5.76074 15.0762 5.76074 26.3337V52.667C5.76074 60.2378 9.87533 68.3024 21.3962 68.3024H41.1462C51.9428 68.3024 56.3866 64.2866 56.7487 54.0495L61.5874 57.4728C63.6282 58.9212 65.4057 59.382 66.8212 59.382C68.0391 59.382 68.9937 59.0199 69.6191 58.6907C70.9687 57.9995 73.2399 56.1232 73.2399 51.4162V27.5845C73.2399 22.8774 70.9687 21.0012 69.6191 20.3099ZM36.2087 37.4595C32.8182 37.4595 30.0203 34.6945 30.0203 31.2712C30.0203 27.8478 32.8182 25.0828 36.2087 25.0828C39.5991 25.0828 42.397 27.8478 42.397 31.2712C42.397 34.6945 39.5991 37.4595 36.2087 37.4595Z" fill="#256CB3"/>
</svg>
